<svg xmlns="http://www.w3.org/2000/svg" xmlns:xlink="http://www.w3.org/1999/xlink" version="1.1" class="marks" width="1017" height="378" viewBox="0 0 1017 378"><rect width="1017" height="378" fill="white"/><g fill="none" stroke-miterlimit="10" transform="translate(70,8)"><g class="mark-group role-frame root" role="graphics-object" aria-roledescription="group mark container"><g transform="translate(0,0)"><path class="background" aria-hidden="true" d="M0.5,0.5h600v300h-600Z" stroke="#ddd"/><g><g class="mark-group role-axis" aria-hidden="true"><g transform="translate(0.5,0.5)"><path class="background" aria-hidden="true" d="M0,0h0v0h0Z" pointer-events="none"/><g><g class="mark-rule role-axis-grid" pointer-events="none"><line transform="translate(0,264)" x2="600" y2="0" stroke="#ddd" stroke-width="1" opacity="1"/><line transform="translate(0,216)" x2="600" y2="0" stroke="#ddd" stroke-width="1" opacity="1"/><line transform="translate(0,169)" x2="600" y2="0" stroke="#ddd" stroke-width="1" opacity="1"/><line transform="translate(0,122)" x2="600" y2="0" stroke="#ddd" stroke-width="1" opacity="1"/><line transform="translate(0,74)" x2="600" y2="0" stroke="#ddd" stroke-width="1" opacity="1"/><line transform="translate(0,27)" x2="600" y2="0" stroke="#ddd" stroke-width="1" opacity="1"/></g></g><path class="foreground" aria-hidden="true" d="" pointer-events="none" display="none"/></g></g><g class="mark-group role-axis" role="graphics-symbol" aria-roledescription="axis" aria-label="X-axis titled 'Number of Clusters' for a discrete scale with 10 values: 10, 20, 30, 40, 50, ending with 100"><g transform="translate(0.5,300.5)"><path class="background" aria-hidden="true" d="M0,0h0v0h0Z" pointer-events="none"/><g><g class="mark-rule role-axis-tick" pointer-events="none"><line transform="translate(30,0)" x2="0" y2="5" stroke="#888" stroke-width="1" opacity="1"/><line transform="translate(90,0)" x2="0" y2="5" stroke="#888" stroke-width="1" opacity="1"/><line transform="translate(150,0)" x2="0" y2="5" stroke="#888" stroke-width="1" opacity="1"/><line transform="translate(210,0)" x2="0" y2="5" stroke="#888" stroke-width="1" opacity="1"/><line transform="translate(270,0)" x2="0" y2="5" stroke="#888" stroke-width="1" opacity="1"/><line transform="translate(330,0)" x2="0" y2="5" stroke="#888" stroke-width="1" opacity="1"/><line transform="translate(390,0)" x2="0" y2="5" stroke="#888" stroke-width="1" opacity="1"/><line transform="translate(450,0)" x2="0" y2="5" stroke="#888" stroke-width="1" opacity="1"/><line transform="translate(510,0)" x2="0" y2="5" stroke="#888" stroke-width="1" opacity="1"/><line transform="translate(570,0)" x2="0" y2="5" stroke="#888" stroke-width="1" opacity="1"/></g><g class="mark-text role-axis-label" pointer-events="none"><text text-anchor="end" transform="translate(30,7) rotate(270) translate(0,6)" font-family="sans-serif" font-size="20px" fill="#000" opacity="1">10</text><text text-anchor="end" transform="translate(90,7) rotate(270) translate(0,6)" font-family="sans-serif" font-size="20px" fill="#000" opacity="1">20</text><text text-anchor="end" transform="translate(150,7) rotate(270) translate(0,6)" font-family="sans-serif" font-size="20px" fill="#000" opacity="1">30</text><text text-anchor="end" transform="translate(210,7) rotate(270) translate(0,6)" font-family="sans-serif" font-size="20px" fill="#000" opacity="1">40</text><text text-anchor="end" transform="translate(270,7) rotate(270) translate(0,6)" font-family="sans-serif" font-size="20px" fill="#000" opacity="1">50</text><text text-anchor="end" transform="translate(330,7) rotate(270) translate(0,6)" font-family="sans-serif" font-size="20px" fill="#000" opacity="1">60</text><text text-anchor="end" transform="translate(390,7) rotate(270) translate(0,6)" font-family="sans-serif" font-size="20px" fill="#000" opacity="1">70</text><text text-anchor="end" transform="translate(450,7) rotate(270) translate(0,6)" font-family="sans-serif" font-size="20px" fill="#000" opacity="1">80</text><text text-anchor="end" transform="translate(510,7) rotate(270) translate(0,6)" font-family="sans-serif" font-size="20px" fill="#000" opacity="1">90</text><text text-anchor="end" transform="translate(570,7) rotate(270) translate(0,6)" font-family="sans-serif" font-size="20px" fill="#000" opacity="1">100</text></g><g class="mark-rule role-axis-domain" pointer-events="none"><line transform="translate(0,0)" x2="600" y2="0" stroke="#888" stroke-width="1" opacity="1"/></g><g class="mark-text role-axis-title" pointer-events="none"><text text-anchor="middle" transform="translate(300,60.369140625)" font-family="sans-serif" font-size="20px" font-weight="bold" fill="#000" opacity="1">Number of Clusters</text></g></g><path class="foreground" aria-hidden="true" d="" pointer-events="none" display="none"/></g></g><g class="mark-group role-axis" role="graphics-symbol" aria-roledescription="axis" aria-label="Y-axis titled 'MEUR' for a linear scale with values from 385 to 511"><g transform="translate(0.5,0.5)"><path class="background" aria-hidden="true" d="M0,0h0v0h0Z" pointer-events="none"/><g><g class="mark-rule role-axis-tick" pointer-events="none"><line transform="translate(0,264)" x2="-5" y2="0" stroke="#888" stroke-width="1" opacity="1"/><line transform="translate(0,216)" x2="-5" y2="0" stroke="#888" stroke-width="1" opacity="1"/><line transform="translate(0,169)" x2="-5" y2="0" stroke="#888" stroke-width="1" opacity="1"/><line transform="translate(0,122)" x2="-5" y2="0" stroke="#888" stroke-width="1" opacity="1"/><line transform="translate(0,74)" x2="-5" y2="0" stroke="#888" stroke-width="1" opacity="1"/><line transform="translate(0,27)" x2="-5" y2="0" stroke="#888" stroke-width="1" opacity="1"/></g><g class="mark-text role-axis-label" pointer-events="none"><text text-anchor="end" transform="translate(-7,269.8960947822181)" font-family="sans-serif" font-size="20px" fill="#000" opacity="1">400</text><text text-anchor="end" transform="translate(-7,222.46297705036298)" font-family="sans-serif" font-size="20px" fill="#000" opacity="1">420</text><text text-anchor="end" transform="translate(-7,175.02985931850785)" font-family="sans-serif" font-size="20px" fill="#000" opacity="1">440</text><text text-anchor="end" transform="translate(-7,127.59674158665275)" font-family="sans-serif" font-size="20px" fill="#000" opacity="1">460</text><text text-anchor="end" transform="translate(-7,80.16362385479763)" font-family="sans-serif" font-size="20px" fill="#000" opacity="1">480</text><text text-anchor="end" transform="translate(-7,32.730506122942515)" font-family="sans-serif" font-size="20px" fill="#000" opacity="1">500</text></g><g class="mark-rule role-axis-domain" pointer-events="none"><line transform="translate(0,300)" x2="0" y2="-300" stroke="#888" stroke-width="1" opacity="1"/></g><g class="mark-text role-axis-title" pointer-events="none"><text text-anchor="middle" transform="translate(-44.369140625,150) rotate(-90) translate(0,-4)" font-family="sans-serif" font-size="20px" font-weight="bold" fill="#000" opacity="1">MEUR</text></g></g><path class="foreground" aria-hidden="true" d="" pointer-events="none" display="none"/></g></g><g class="mark-group role-scope layer_0_pathgroup" role="graphics-object" aria-roledescription="group mark container"><g transform="translate(0,0)"><path class="background" aria-hidden="true" d="M0,0h600v300h-600Z"/><g><g class="mark-line role-mark layer_0_marks" role="graphics-object" aria-roledescription="line mark container"><path aria-label="Number of Clusters: 10; MEUR: 409.989891886; Category5: 0.Full Year - MILP" role="graphics-symbol" aria-roledescription="line mark" d="M30,240.204L90,240.204L150,240.204L210,240.204L270,240.204L330,240.204L390,240.204L450,240.204L510,240.204L570,240.204" stroke="#4c78a8" stroke-width="2"/></g></g><path class="foreground" aria-hidden="true" d="" display="none"/></g><g transform="translate(0,0)"><path class="background" aria-hidden="true" d="M0,0h600v300h-600Z"/><g><g class="mark-line role-mark layer_0_marks" role="graphics-object" aria-roledescription="line mark container"><path aria-label="Number of Clusters: 10; MEUR: 434.478357912; Category5: 1.RES and Demand - 1.OptModel" role="graphics-symbol" aria-roledescription="line mark" d="M30,182.125L90,253.623L150,218.327L210,219.737L270,225.634L330,222.621L390,226.242L450,219.185L510,236.923L570,229.398" stroke="#f58518" stroke-width="2"/></g></g><path class="foreground" aria-hidden="true" d="" display="none"/></g><g transform="translate(0,0)"><path class="background" aria-hidden="true" d="M0,0h600v300h-600Z"/><g><g class="mark-line role-mark layer_0_marks" role="graphics-object" aria-roledescription="line mark container"><path aria-label="Number of Clusters: 10; MEUR: 412.0649858; Category5: 2.Line Benefits - 1.OptModel" role="graphics-symbol" aria-roledescription="line mark" d="M30,235.282L90,222.969L150,227.06L210,228.834L270,226.217L330,227.745L390,226.323L450,231.228L510,229.852L570,223.017" stroke="#e45756" stroke-width="2"/></g></g><path class="foreground" aria-hidden="true" d="" display="none"/></g><g transform="translate(0,0)"><path class="background" aria-hidden="true" d="M0,0h600v300h-600Z"/><g><g class="mark-line role-mark layer_0_marks" role="graphics-object" aria-roledescription="line mark container"><path aria-label="Number of Clusters: 10; MEUR: 384.776920875; Category5: 2.Line Benefits - 2.NN_OC_fy_1" role="graphics-symbol" aria-roledescription="line mark" d="M30,300L90,243.598L150,256.318L210,228.194L270,178.045L330,207.017L390,219.591L450,196.377L510,201.764L570,206.04" stroke="#72b7b2" stroke-width="2"/></g></g><path class="foreground" aria-hidden="true" d="" display="none"/></g><g transform="translate(0,0)"><path class="background" aria-hidden="true" d="M0,0h600v300h-600Z"/><g><g class="mark-line role-mark layer_0_marks" role="graphics-object" aria-roledescription="line mark container"><path aria-label="Number of Clusters: 10; MEUR: 460.116847114; Category5: 2.Line Benefits - 3.NN_OC_fy_2" role="graphics-symbol" aria-roledescription="line mark" d="M30,121.32L90,146.864L150,206.346L210,199.267L270,115.701L330,193.973L390,127.72L450,134.406L510,185.459L570,217.846" stroke="#54a24b" stroke-width="2"/></g></g><path class="foreground" aria-hidden="true" d="" display="none"/></g><g transform="translate(0,0)"><path class="background" aria-hidden="true" d="M0,0h600v300h-600Z"/><g><g class="mark-line role-mark layer_0_marks" role="graphics-object" aria-roledescription="line mark container"><path aria-label="Number of Clusters: 10; MEUR: 486.854284582; Category5: 2.Line Benefits - 4.NN_OC_fy_3" role="graphics-symbol" aria-roledescription="line mark" d="M30,57.908L90,138.585L150,145.58L210,190.846L270,62.875L330,126.852L390,185.575L450,201.992L510,192.276L570,82.878" stroke="#eeca3b" stroke-width="2"/></g></g><path class="foreground" aria-hidden="true" d="" display="none"/></g><g transform="translate(0,0)"><path class="background" aria-hidden="true" d="M0,0h600v300h-600Z"/><g><g class="mark-line role-mark layer_0_marks" role="graphics-object" aria-roledescription="line mark container"><path aria-label="Number of Clusters: 10; MEUR: 495.002511479; Category5: 2.Line Benefits - 5.NN_OC_fy_4" role="graphics-symbol" aria-roledescription="line mark" d="M30,38.583L90,0L150,68.864L210,84.938L270,10.638L330,79.584L390,50.893L450,142.765L510,53.145L570,33.136" stroke="#b279a2" stroke-width="2"/></g></g><path class="foreground" aria-hidden="true" d="" display="none"/></g></g><g class="mark-symbol role-mark layer_1_marks" role="graphics-object" aria-roledescription="symbol mark container"><path aria-label="Number of Clusters: 10; MEUR: 409.989891886; Category5: 0.Full Year - MILP" role="graphics-symbol" aria-roledescription="point" transform="translate(30,240.2035088834689)" d="M2.739,0A2.739,2.739,0,1,1,-2.739,0A2.739,2.739,0,1,1,2.739,0" fill="#4c78a8" stroke-width="2" opacity="1"/><path aria-label="Number of Clusters: 20; MEUR: 409.989891886; Category5: 0.Full Year - MILP" role="graphics-symbol" aria-roledescription="point" transform="translate(90,240.2035088834689)" d="M2.739,0A2.739,2.739,0,1,1,-2.739,0A2.739,2.739,0,1,1,2.739,0" fill="#4c78a8" stroke-width="2" opacity="1"/><path aria-label="Number of Clusters: 30; MEUR: 409.989891886; Category5: 0.Full Year - MILP" role="graphics-symbol" aria-roledescription="point" transform="translate(150,240.2035088834689)" d="M2.739,0A2.739,2.739,0,1,1,-2.739,0A2.739,2.739,0,1,1,2.739,0" fill="#4c78a8" stroke-width="2" opacity="1"/><path aria-label="Number of Clusters: 40; MEUR: 409.989891886; Category5: 0.Full Year - MILP" role="graphics-symbol" aria-roledescription="point" transform="translate(210,240.2035088834689)" d="M2.739,0A2.739,2.739,0,1,1,-2.739,0A2.739,2.739,0,1,1,2.739,0" fill="#4c78a8" stroke-width="2" opacity="1"/><path aria-label="Number of Clusters: 50; MEUR: 409.989891886; Category5: 0.Full Year - MILP" role="graphics-symbol" aria-roledescription="point" transform="translate(270,240.2035088834689)" d="M2.739,0A2.739,2.739,0,1,1,-2.739,0A2.739,2.739,0,1,1,2.739,0" fill="#4c78a8" stroke-width="2" opacity="1"/><path aria-label="Number of Clusters: 60; MEUR: 409.989891886; Category5: 0.Full Year - MILP" role="graphics-symbol" aria-roledescription="point" transform="translate(330,240.2035088834689)" d="M2.739,0A2.739,2.739,0,1,1,-2.739,0A2.739,2.739,0,1,1,2.739,0" fill="#4c78a8" stroke-width="2" opacity="1"/><path aria-label="Number of Clusters: 70; MEUR: 409.989891886; Category5: 0.Full Year - MILP" role="graphics-symbol" aria-roledescription="point" transform="translate(390,240.2035088834689)" d="M2.739,0A2.739,2.739,0,1,1,-2.739,0A2.739,2.739,0,1,1,2.739,0" fill="#4c78a8" stroke-width="2" opacity="1"/><path aria-label="Number of Clusters: 80; MEUR: 409.989891886; Category5: 0.Full Year - MILP" role="graphics-symbol" aria-roledescription="point" transform="translate(450,240.2035088834689)" d="M2.739,0A2.739,2.739,0,1,1,-2.739,0A2.739,2.739,0,1,1,2.739,0" fill="#4c78a8" stroke-width="2" opacity="1"/><path aria-label="Number of Clusters: 90; MEUR: 409.989891886; Category5: 0.Full Year - MILP" role="graphics-symbol" aria-roledescription="point" transform="translate(510,240.2035088834689)" d="M2.739,0A2.739,2.739,0,1,1,-2.739,0A2.739,2.739,0,1,1,2.739,0" fill="#4c78a8" stroke-width="2" opacity="1"/><path aria-label="Number of Clusters: 100; MEUR: 409.989891886; Category5: 0.Full Year - MILP" role="graphics-symbol" aria-roledescription="point" transform="translate(570,240.2035088834689)" d="M2.739,0A2.739,2.739,0,1,1,-2.739,0A2.739,2.739,0,1,1,2.739,0" fill="#4c78a8" stroke-width="2" opacity="1"/><path aria-label="Number of Clusters: 10; MEUR: 434.478357912; Category5: 1.RES and Demand - 1.OptModel" role="graphics-symbol" aria-roledescription="point" transform="translate(30,182.1252942792872)" d="M2.739,0A2.739,2.739,0,1,1,-2.739,0A2.739,2.739,0,1,1,2.739,0" fill="#f58518" stroke-width="2" opacity="1"/><path aria-label="Number of Clusters: 100; MEUR: 414.545812934; Category5: 1.RES and Demand - 1.OptModel" role="graphics-symbol" aria-roledescription="point" transform="translate(570,229.39843191152687)" d="M2.739,0A2.739,2.739,0,1,1,-2.739,0A2.739,2.739,0,1,1,2.739,0" fill="#f58518" stroke-width="2" opacity="1"/><path aria-label="Number of Clusters: 20; MEUR: 404.331589939; Category5: 1.RES and Demand - 1.OptModel" role="graphics-symbol" aria-roledescription="point" transform="translate(90,253.62305400446976)" d="M2.739,0A2.739,2.739,0,1,1,-2.739,0A2.739,2.739,0,1,1,2.739,0" fill="#f58518" stroke-width="2" opacity="1"/><path aria-label="Number of Clusters: 30; MEUR: 419.213927813; Category5: 1.RES and Demand - 1.OptModel" role="graphics-symbol" aria-roledescription="point" transform="translate(150,218.32726977926612)" d="M2.739,0A2.739,2.739,0,1,1,-2.739,0A2.739,2.739,0,1,1,2.739,0" fill="#f58518" stroke-width="2" opacity="1"/><path aria-label="Number of Clusters: 40; MEUR: 418.619620386; Category5: 1.RES and Demand - 1.OptModel" role="graphics-symbol" aria-roledescription="point" transform="translate(210,219.7367624887423)" d="M2.739,0A2.739,2.739,0,1,1,-2.739,0A2.739,2.739,0,1,1,2.739,0" fill="#f58518" stroke-width="2" opacity="1"/><path aria-label="Number of Clusters: 50; MEUR: 416.133085214; Category5: 1.RES and Demand - 1.OptModel" role="graphics-symbol" aria-roledescription="point" transform="translate(270,225.63396826529342)" d="M2.739,0A2.739,2.739,0,1,1,-2.739,0A2.739,2.739,0,1,1,2.739,0" fill="#f58518" stroke-width="2" opacity="1"/><path aria-label="Number of Clusters: 60; MEUR: 417.403665216; Category5: 1.RES and Demand - 1.OptModel" role="graphics-symbol" aria-roledescription="point" transform="translate(330,222.62058972479232)" d="M2.739,0A2.739,2.739,0,1,1,-2.739,0A2.739,2.739,0,1,1,2.739,0" fill="#f58518" stroke-width="2" opacity="1"/><path aria-label="Number of Clusters: 70; MEUR: 415.876746949; Category5: 1.RES and Demand - 1.OptModel" role="graphics-symbol" aria-roledescription="point" transform="translate(390,226.24191441987844)" d="M2.739,0A2.739,2.739,0,1,1,-2.739,0A2.739,2.739,0,1,1,2.739,0" fill="#f58518" stroke-width="2" opacity="1"/><path aria-label="Number of Clusters: 80; MEUR: 418.85236512; Category5: 1.RES and Demand - 1.OptModel" role="graphics-symbol" aria-roledescription="point" transform="translate(450,219.18477206857142)" d="M2.739,0A2.739,2.739,0,1,1,-2.739,0A2.739,2.739,0,1,1,2.739,0" fill="#f58518" stroke-width="2" opacity="1"/><path aria-label="Number of Clusters: 90; MEUR: 411.373015065; Category5: 1.RES and Demand - 1.OptModel" role="graphics-symbol" aria-roledescription="point" transform="translate(510,236.92321665414804)" d="M2.739,0A2.739,2.739,0,1,1,-2.739,0A2.739,2.739,0,1,1,2.739,0" fill="#f58518" stroke-width="2" opacity="1"/><path aria-label="Number of Clusters: 10; MEUR: 412.0649858; Category5: 2.Line Benefits - 1.OptModel" role="graphics-symbol" aria-roledescription="point" transform="translate(30,235.28210018799012)" d="M2.739,0A2.739,2.739,0,1,1,-2.739,0A2.739,2.739,0,1,1,2.739,0" fill="#e45756" stroke-width="2" opacity="1"/><path aria-label="Number of Clusters: 100; MEUR: 417.2364576; Category5: 2.Line Benefits - 1.OptModel" role="graphics-symbol" aria-roledescription="point" transform="translate(570,223.01714865117168)" d="M2.739,0A2.739,2.739,0,1,1,-2.739,0A2.739,2.739,0,1,1,2.739,0" fill="#e45756" stroke-width="2" opacity="1"/><path aria-label="Number of Clusters: 20; MEUR: 417.256622; Category5: 2.Line Benefits - 1.OptModel" role="graphics-symbol" aria-roledescription="point" transform="translate(90,222.96932563321207)" d="M2.739,0A2.739,2.739,0,1,1,-2.739,0A2.739,2.739,0,1,1,2.739,0" fill="#e45756" stroke-width="2" opacity="1"/><path aria-label="Number of Clusters: 30; MEUR: 415.5318687; Category5: 2.Line Benefits - 1.OptModel" role="graphics-symbol" aria-roledescription="point" transform="translate(150,227.05984695007731)" d="M2.739,0A2.739,2.739,0,1,1,-2.739,0A2.739,2.739,0,1,1,2.739,0" fill="#e45756" stroke-width="2" opacity="1"/><path aria-label="Number of Clusters: 40; MEUR: 414.7836381; Category5: 2.Line Benefits - 1.OptModel" role="graphics-symbol" aria-roledescription="point" transform="translate(210,228.83439245709613)" d="M2.739,0A2.739,2.739,0,1,1,-2.739,0A2.739,2.739,0,1,1,2.739,0" fill="#e45756" stroke-width="2" opacity="1"/><path aria-label="Number of Clusters: 50; MEUR: 415.8871852; Category5: 2.Line Benefits - 1.OptModel" role="graphics-symbol" aria-roledescription="point" transform="translate(270,226.21715848124884)" d="M2.739,0A2.739,2.739,0,1,1,-2.739,0A2.739,2.739,0,1,1,2.739,0" fill="#e45756" stroke-width="2" opacity="1"/><path aria-label="Number of Clusters: 60; MEUR: 415.2429902; Category5: 2.Line Benefits - 1.OptModel" role="graphics-symbol" aria-roledescription="point" transform="translate(330,227.7449673451124)" d="M2.739,0A2.739,2.739,0,1,1,-2.739,0A2.739,2.739,0,1,1,2.739,0" fill="#e45756" stroke-width="2" opacity="1"/><path aria-label="Number of Clusters: 70; MEUR: 415.8426815; Category5: 2.Line Benefits - 1.OptModel" role="graphics-symbol" aria-roledescription="point" transform="translate(390,226.32270594332888)" d="M2.739,0A2.739,2.739,0,1,1,-2.739,0A2.739,2.739,0,1,1,2.739,0" fill="#e45756" stroke-width="2" opacity="1"/><path aria-label="Number of Clusters: 80; MEUR: 413.7743544; Category5: 2.Line Benefits - 1.OptModel" role="graphics-symbol" aria-roledescription="point" transform="translate(450,231.2280660854433)" d="M2.739,0A2.739,2.739,0,1,1,-2.739,0A2.739,2.739,0,1,1,2.739,0" fill="#e45756" stroke-width="2" opacity="1"/><path aria-label="Number of Clusters: 90; MEUR: 414.3546893; Category5: 2.Line Benefits - 1.OptModel" role="graphics-symbol" aria-roledescription="point" transform="translate(510,229.85171140366302)" d="M2.739,0A2.739,2.739,0,1,1,-2.739,0A2.739,2.739,0,1,1,2.739,0" fill="#e45756" stroke-width="2" opacity="1"/><path aria-label="Number of Clusters: 10; MEUR: 384.776920875; Category5: 2.Line Benefits - 2.NN_OC_fy_1" role="graphics-symbol" aria-roledescription="point" transform="translate(30,300)" d="M2.739,0A2.739,2.739,0,1,1,-2.739,0A2.739,2.739,0,1,1,2.739,0" fill="#72b7b2" stroke-width="2" opacity="1"/><path aria-label="Number of Clusters: 100; MEUR: 424.395017693; Category5: 2.Line Benefits - 2.NN_OC_fy_1" role="graphics-symbol" aria-roledescription="point" transform="translate(570,206.03950746645953)" d="M2.739,0A2.739,2.739,0,1,1,-2.739,0A2.739,2.739,0,1,1,2.739,0" fill="#72b7b2" stroke-width="2" opacity="1"/><path aria-label="Number of Clusters: 20; MEUR: 408.558445792; Category5: 2.Line Benefits - 2.NN_OC_fy_1" role="graphics-symbol" aria-roledescription="point" transform="translate(90,243.5984064399544)" d="M2.739,0A2.739,2.739,0,1,1,-2.739,0A2.739,2.739,0,1,1,2.739,0" fill="#72b7b2" stroke-width="2" opacity="1"/><path aria-label="Number of Clusters: 30; MEUR: 403.195380879; Category5: 2.Line Benefits - 2.NN_OC_fy_1" role="graphics-symbol" aria-roledescription="point" transform="translate(150,256.3177509117523)" d="M2.739,0A2.739,2.739,0,1,1,-2.739,0A2.739,2.739,0,1,1,2.739,0" fill="#72b7b2" stroke-width="2" opacity="1"/><path aria-label="Number of Clusters: 40; MEUR: 415.053617322; Category5: 2.Line Benefits - 2.NN_OC_fy_1" role="graphics-symbol" aria-roledescription="point" transform="translate(210,228.19409464704182)" d="M2.739,0A2.739,2.739,0,1,1,-2.739,0A2.739,2.739,0,1,1,2.739,0" fill="#72b7b2" stroke-width="2" opacity="1"/><path aria-label="Number of Clusters: 50; MEUR: 436.198708437; Category5: 2.Line Benefits - 2.NN_OC_fy_1" role="graphics-symbol" aria-roledescription="point" transform="translate(270,178.04521483104628)" d="M2.739,0A2.739,2.739,0,1,1,-2.739,0A2.739,2.739,0,1,1,2.739,0" fill="#72b7b2" stroke-width="2" opacity="1"/><path aria-label="Number of Clusters: 60; MEUR: 423.982912214; Category5: 2.Line Benefits - 2.NN_OC_fy_1" role="graphics-symbol" aria-roledescription="point" transform="translate(330,207.01687985219957)" d="M2.739,0A2.739,2.739,0,1,1,-2.739,0A2.739,2.739,0,1,1,2.739,0" fill="#72b7b2" stroke-width="2" opacity="1"/><path aria-label="Number of Clusters: 70; MEUR: 418.681127498; Category5: 2.Line Benefits - 2.NN_OC_fy_1" role="graphics-symbol" aria-roledescription="point" transform="translate(390,219.5908887827598)" d="M2.739,0A2.739,2.739,0,1,1,-2.739,0A2.739,2.739,0,1,1,2.739,0" fill="#72b7b2" stroke-width="2" opacity="1"/><path aria-label="Number of Clusters: 80; MEUR: 428.468994934; Category5: 2.Line Benefits - 2.NN_OC_fy_1" role="graphics-symbol" aria-roledescription="point" transform="translate(450,196.37743536276918)" d="M2.739,0A2.739,2.739,0,1,1,-2.739,0A2.739,2.739,0,1,1,2.739,0" fill="#72b7b2" stroke-width="2" opacity="1"/><path aria-label="Number of Clusters: 90; MEUR: 426.197819339; Category5: 2.Line Benefits - 2.NN_OC_fy_1" role="graphics-symbol" aria-roledescription="point" transform="translate(510,201.76388232985636)" d="M2.739,0A2.739,2.739,0,1,1,-2.739,0A2.739,2.739,0,1,1,2.739,0" fill="#72b7b2" stroke-width="2" opacity="1"/><path aria-label="Number of Clusters: 10; MEUR: 460.116847114; Category5: 2.Line Benefits - 3.NN_OC_fy_2" role="graphics-symbol" aria-roledescription="point" transform="translate(30,121.31962044016666)" d="M2.739,0A2.739,2.739,0,1,1,-2.739,0A2.739,2.739,0,1,1,2.739,0" fill="#54a24b" stroke-width="2" opacity="1"/><path aria-label="Number of Clusters: 100; MEUR: 419.416752611; Category5: 2.Line Benefits - 3.NN_OC_fy_2" role="graphics-symbol" aria-roledescription="point" transform="translate(570,217.84623915434116)" d="M2.739,0A2.739,2.739,0,1,1,-2.739,0A2.739,2.739,0,1,1,2.739,0" fill="#54a24b" stroke-width="2" opacity="1"/><path aria-label="Number of Clusters: 20; MEUR: 449.346099211; Category5: 2.Line Benefits - 3.NN_OC_fy_2" role="graphics-symbol" aria-roledescription="point" transform="translate(90,146.86412810770602)" d="M2.739,0A2.739,2.739,0,1,1,-2.739,0A2.739,2.739,0,1,1,2.739,0" fill="#54a24b" stroke-width="2" opacity="1"/><path aria-label="Number of Clusters: 30; MEUR: 424.265645795; Category5: 2.Line Benefits - 3.NN_OC_fy_2" role="graphics-symbol" aria-roledescription="point" transform="translate(150,206.34633309023513)" d="M2.739,0A2.739,2.739,0,1,1,-2.739,0A2.739,2.739,0,1,1,2.739,0" fill="#54a24b" stroke-width="2" opacity="1"/><path aria-label="Number of Clusters: 40; MEUR: 427.250417799; Category5: 2.Line Benefits - 3.NN_OC_fy_2" role="graphics-symbol" aria-roledescription="point" transform="translate(210,199.26748099828535)" d="M2.739,0A2.739,2.739,0,1,1,-2.739,0A2.739,2.739,0,1,1,2.739,0" fill="#54a24b" stroke-width="2" opacity="1"/><path aria-label="Number of Clusters: 50; MEUR: 462.485940963; Category5: 2.Line Benefits - 3.NN_OC_fy_2" role="graphics-symbol" aria-roledescription="point" transform="translate(270,115.70094506837587)" d="M2.739,0A2.739,2.739,0,1,1,-2.739,0A2.739,2.739,0,1,1,2.739,0" fill="#54a24b" stroke-width="2" opacity="1"/><path aria-label="Number of Clusters: 60; MEUR: 429.482864181; Category5: 2.Line Benefits - 3.NN_OC_fy_2" role="graphics-symbol" aria-roledescription="point" transform="translate(330,193.97288639444594)" d="M2.739,0A2.739,2.739,0,1,1,-2.739,0A2.739,2.739,0,1,1,2.739,0" fill="#54a24b" stroke-width="2" opacity="1"/><path aria-label="Number of Clusters: 70; MEUR: 457.418046604; Category5: 2.Line Benefits - 3.NN_OC_fy_2" role="graphics-symbol" aria-roledescription="point" transform="translate(390,127.7202465582611)" d="M2.739,0A2.739,2.739,0,1,1,-2.739,0A2.739,2.739,0,1,1,2.739,0" fill="#54a24b" stroke-width="2" opacity="1"/><path aria-label="Number of Clusters: 80; MEUR: 454.598887616; Category5: 2.Line Benefits - 3.NN_OC_fy_2" role="graphics-symbol" aria-roledescription="point" transform="translate(450,134.40632156650815)" d="M2.739,0A2.739,2.739,0,1,1,-2.739,0A2.739,2.739,0,1,1,2.739,0" fill="#54a24b" stroke-width="2" opacity="1"/><path aria-label="Number of Clusters: 90; MEUR: 433.072627676; Category5: 2.Line Benefits - 3.NN_OC_fy_2" role="graphics-symbol" aria-roledescription="point" transform="translate(510,185.45920267017394)" d="M2.739,0A2.739,2.739,0,1,1,-2.739,0A2.739,2.739,0,1,1,2.739,0" fill="#54a24b" stroke-width="2" opacity="1"/><path aria-label="Number of Clusters: 10; MEUR: 486.854284582; Category5: 2.Line Benefits - 4.NN_OC_fy_3" role="graphics-symbol" aria-roledescription="point" transform="translate(30,57.9076194764908)" d="M2.739,0A2.739,2.739,0,1,1,-2.739,0A2.739,2.739,0,1,1,2.739,0" fill="#eeca3b" stroke-width="2" opacity="1"/><path aria-label="Number of Clusters: 100; MEUR: 476.325617446; Category5: 2.Line Benefits - 4.NN_OC_fy_3" role="graphics-symbol" aria-roledescription="point" transform="translate(570,82.8779948694393)" d="M2.739,0A2.739,2.739,0,1,1,-2.739,0A2.739,2.739,0,1,1,2.739,0" fill="#eeca3b" stroke-width="2" opacity="1"/><path aria-label="Number of Clusters: 20; MEUR: 452.836784405; Category5: 2.Line Benefits - 4.NN_OC_fy_3" role="graphics-symbol" aria-roledescription="point" transform="translate(90,138.58542401958994)" d="M2.739,0A2.739,2.739,0,1,1,-2.739,0A2.739,2.739,0,1,1,2.739,0" fill="#eeca3b" stroke-width="2" opacity="1"/><path aria-label="Number of Clusters: 30; MEUR: 449.887613221; Category5: 2.Line Benefits - 4.NN_OC_fy_3" role="graphics-symbol" aria-roledescription="point" transform="translate(150,145.57984321894338)" d="M2.739,0A2.739,2.739,0,1,1,-2.739,0A2.739,2.739,0,1,1,2.739,0" fill="#eeca3b" stroke-width="2" opacity="1"/><path aria-label="Number of Clusters: 40; MEUR: 430.801136059; Category5: 2.Line Benefits - 4.NN_OC_fy_3" role="graphics-symbol" aria-roledescription="point" transform="translate(210,190.84639913333993)" d="M2.739,0A2.739,2.739,0,1,1,-2.739,0A2.739,2.739,0,1,1,2.739,0" fill="#eeca3b" stroke-width="2" opacity="1"/><path aria-label="Number of Clusters: 50; MEUR: 484.760000594; Category5: 2.Line Benefits - 4.NN_OC_fy_3" role="graphics-symbol" aria-roledescription="point" transform="translate(270,62.874540426276596)" d="M2.739,0A2.739,2.739,0,1,1,-2.739,0A2.739,2.739,0,1,1,2.739,0" fill="#eeca3b" stroke-width="2" opacity="1"/><path aria-label="Number of Clusters: 60; MEUR: 457.783945791; Category5: 2.Line Benefits - 4.NN_OC_fy_3" role="graphics-symbol" aria-roledescription="point" transform="translate(330,126.85245959581731)" d="M2.739,0A2.739,2.739,0,1,1,-2.739,0A2.739,2.739,0,1,1,2.739,0" fill="#eeca3b" stroke-width="2" opacity="1"/><path aria-label="Number of Clusters: 70; MEUR: 433.023953733; Category5: 2.Line Benefits - 4.NN_OC_fy_3" role="graphics-symbol" aria-roledescription="point" transform="translate(390,185.57464051290455)" d="M2.739,0A2.739,2.739,0,1,1,-2.739,0A2.739,2.739,0,1,1,2.739,0" fill="#eeca3b" stroke-width="2" opacity="1"/><path aria-label="Number of Clusters: 80; MEUR: 426.101844528; Category5: 2.Line Benefits - 4.NN_OC_fy_3" role="graphics-symbol" aria-roledescription="point" transform="translate(450,201.99150155682221)" d="M2.739,0A2.739,2.739,0,1,1,-2.739,0A2.739,2.739,0,1,1,2.739,0" fill="#eeca3b" stroke-width="2" opacity="1"/><path aria-label="Number of Clusters: 90; MEUR: 430.198411097; Category5: 2.Line Benefits - 4.NN_OC_fy_3" role="graphics-symbol" aria-roledescription="point" transform="translate(510,192.27585533890755)" d="M2.739,0A2.739,2.739,0,1,1,-2.739,0A2.739,2.739,0,1,1,2.739,0" fill="#eeca3b" stroke-width="2" opacity="1"/><path aria-label="Number of Clusters: 10; MEUR: 495.002511479; Category5: 2.Line Benefits - 5.NN_OC_fy_4" role="graphics-symbol" aria-roledescription="point" transform="translate(30,38.58282919284888)" d="M2.739,0A2.739,2.739,0,1,1,-2.739,0A2.739,2.739,0,1,1,2.739,0" fill="#b279a2" stroke-width="2" opacity="1"/><path aria-label="Number of Clusters: 100; MEUR: 497.299180322; Category5: 2.Line Benefits - 5.NN_OC_fy_4" role="graphics-symbol" aria-roledescription="point" transform="translate(570,33.13592101206213)" d="M2.739,0A2.739,2.739,0,1,1,-2.739,0A2.739,2.739,0,1,1,2.739,0" fill="#b279a2" stroke-width="2" opacity="1"/><path aria-label="Number of Clusters: 20; MEUR: 511.270819799; Category5: 2.Line Benefits - 5.NN_OC_fy_4" role="graphics-symbol" aria-roledescription="point" transform="translate(90,0)" d="M2.739,0A2.739,2.739,0,1,1,-2.739,0A2.739,2.739,0,1,1,2.739,0" fill="#b279a2" stroke-width="2" opacity="1"/><path aria-label="Number of Clusters: 30; MEUR: 482.234607166; Category5: 2.Line Benefits - 5.NN_OC_fy_4" role="graphics-symbol" aria-roledescription="point" transform="translate(150,68.86390461630383)" d="M2.739,0A2.739,2.739,0,1,1,-2.739,0A2.739,2.739,0,1,1,2.739,0" fill="#b279a2" stroke-width="2" opacity="1"/><path aria-label="Number of Clusters: 40; MEUR: 475.457116004; Category5: 2.Line Benefits - 5.NN_OC_fy_4" role="graphics-symbol" aria-roledescription="point" transform="translate(210,84.93778142713465)" d="M2.739,0A2.739,2.739,0,1,1,-2.739,0A2.739,2.739,0,1,1,2.739,0" fill="#b279a2" stroke-width="2" opacity="1"/><path aria-label="Number of Clusters: 50; MEUR: 506.785335549; Category5: 2.Line Benefits - 5.NN_OC_fy_4" role="graphics-symbol" aria-roledescription="point" transform="translate(270,10.638025126519345)" d="M2.739,0A2.739,2.739,0,1,1,-2.739,0A2.739,2.739,0,1,1,2.739,0" fill="#b279a2" stroke-width="2" opacity="1"/><path aria-label="Number of Clusters: 60; MEUR: 477.714523428; Category5: 2.Line Benefits - 5.NN_OC_fy_4" role="graphics-symbol" aria-roledescription="point" transform="translate(330,79.58398781971637)" d="M2.739,0A2.739,2.739,0,1,1,-2.739,0A2.739,2.739,0,1,1,2.739,0" fill="#b279a2" stroke-width="2" opacity="1"/><path aria-label="Number of Clusters: 70; MEUR: 489.812052988; Category5: 2.Line Benefits - 5.NN_OC_fy_4" role="graphics-symbol" aria-roledescription="point" transform="translate(390,50.89281062623607)" d="M2.739,0A2.739,2.739,0,1,1,-2.739,0A2.739,2.739,0,1,1,2.739,0" fill="#b279a2" stroke-width="2" opacity="1"/><path aria-label="Number of Clusters: 80; MEUR: 451.074593936; Category5: 2.Line Benefits - 5.NN_OC_fy_4" role="graphics-symbol" aria-roledescription="point" transform="translate(450,142.7647334174682)" d="M2.739,0A2.739,2.739,0,1,1,-2.739,0A2.739,2.739,0,1,1,2.739,0" fill="#b279a2" stroke-width="2" opacity="1"/><path aria-label="Number of Clusters: 90; MEUR: 488.862540989; Category5: 2.Line Benefits - 5.NN_OC_fy_4" role="graphics-symbol" aria-roledescription="point" transform="translate(510,53.144726347824026)" d="M2.739,0A2.739,2.739,0,1,1,-2.739,0A2.739,2.739,0,1,1,2.739,0" fill="#b279a2" stroke-width="2" opacity="1"/></g><g class="mark-group role-legend" role="graphics-symbol" aria-roledescription="legend" aria-label="Symbol legend for fill color and stroke color with 7 values: 0.Full Year - MILP, 1.RES and Demand - 1.OptModel, 2.Line Benefits - 1.OptModel, 2.Line Benefits - 2.NN_OC_fy_1, 2.Line Benefits - 3.NN_OC_fy_2, 2.Line Benefits - 4.NN_OC_fy_3, 2.Line Benefits - 5.NN_OC_fy_4"><g transform="translate(618,0)"><path class="background" aria-hidden="true" d="M0,0h324v152h-324Z" pointer-events="none"/><g><g class="mark-group role-legend-entry"><g transform="translate(0,0)"><path class="background" aria-hidden="true" d="M0,0h0v0h0Z" pointer-events="none"/><g><g class="mark-group role-scope" role="graphics-object" aria-roledescription="group mark container"><g transform="translate(0,0)"><path class="background" aria-hidden="true" d="M0,0h323.04296875v20h-323.04296875Z" pointer-events="none" opacity="1"/><g><g class="mark-symbol role-legend-symbol" pointer-events="none"><path transform="translate(10,10)" d="M5,0A5,5,0,1,1,-5,0A5,5,0,1,1,5,0" fill="#4c78a8" stroke="#4c78a8" stroke-width="1.5" opacity="1"/></g><g class="mark-text role-legend-label" pointer-events="none"><text text-anchor="start" transform="translate(24,16)" font-family="sans-serif" font-size="20px" fill="#000" opacity="1">0.Full Year - MILP</text></g></g><path class="foreground" aria-hidden="true" d="" pointer-events="none" display="none"/></g><g transform="translate(0,22)"><path class="background" aria-hidden="true" d="M0,0h323.04296875v20h-323.04296875Z" pointer-events="none" opacity="1"/><g><g class="mark-symbol role-legend-symbol" pointer-events="none"><path transform="translate(10,10)" d="M5,0A5,5,0,1,1,-5,0A5,5,0,1,1,5,0" fill="#f58518" stroke="#f58518" stroke-width="1.5" opacity="1"/></g><g class="mark-text role-legend-label" pointer-events="none"><text text-anchor="start" transform="translate(24,16)" font-family="sans-serif" font-size="20px" fill="#000" opacity="1">1.RES and Demand - 1.OptModel</text></g></g><path class="foreground" aria-hidden="true" d="" pointer-events="none" display="none"/></g><g transform="translate(0,44)"><path class="background" aria-hidden="true" d="M0,0h323.04296875v20h-323.04296875Z" pointer-events="none" opacity="1"/><g><g class="mark-symbol role-legend-symbol" pointer-events="none"><path transform="translate(10,10)" d="M5,0A5,5,0,1,1,-5,0A5,5,0,1,1,5,0" fill="#e45756" stroke="#e45756" stroke-width="1.5" opacity="1"/></g><g class="mark-text role-legend-label" pointer-events="none"><text text-anchor="start" transform="translate(24,16)" font-family="sans-serif" font-size="20px" fill="#000" opacity="1">2.Line Benefits - 1.OptModel</text></g></g><path class="foreground" aria-hidden="true" d="" pointer-events="none" display="none"/></g><g transform="translate(0,66)"><path class="background" aria-hidden="true" d="M0,0h323.04296875v20h-323.04296875Z" pointer-events="none" opacity="1"/><g><g class="mark-symbol role-legend-symbol" pointer-events="none"><path transform="translate(10,10)" d="M5,0A5,5,0,1,1,-5,0A5,5,0,1,1,5,0" fill="#72b7b2" stroke="#72b7b2" stroke-width="1.5" opacity="1"/></g><g class="mark-text role-legend-label" pointer-events="none"><text text-anchor="start" transform="translate(24,16)" font-family="sans-serif" font-size="20px" fill="#000" opacity="1">2.Line Benefits - 2.NN_OC_fy_1</text></g></g><path class="foreground" aria-hidden="true" d="" pointer-events="none" display="none"/></g><g transform="translate(0,88)"><path class="background" aria-hidden="true" d="M0,0h323.04296875v20h-323.04296875Z" pointer-events="none" opacity="1"/><g><g class="mark-symbol role-legend-symbol" pointer-events="none"><path transform="translate(10,10)" d="M5,0A5,5,0,1,1,-5,0A5,5,0,1,1,5,0" fill="#54a24b" stroke="#54a24b" stroke-width="1.5" opacity="1"/></g><g class="mark-text role-legend-label" pointer-events="none"><text text-anchor="start" transform="translate(24,16)" font-family="sans-serif" font-size="20px" fill="#000" opacity="1">2.Line Benefits - 3.NN_OC_fy_2</text></g></g><path class="foreground" aria-hidden="true" d="" pointer-events="none" display="none"/></g><g transform="translate(0,110)"><path class="background" aria-hidden="true" d="M0,0h323.04296875v20h-323.04296875Z" pointer-events="none" opacity="1"/><g><g class="mark-symbol role-legend-symbol" pointer-events="none"><path transform="translate(10,10)" d="M5,0A5,5,0,1,1,-5,0A5,5,0,1,1,5,0" fill="#eeca3b" stroke="#eeca3b" stroke-width="1.5" opacity="1"/></g><g class="mark-text role-legend-label" pointer-events="none"><text text-anchor="start" transform="translate(24,16)" font-family="sans-serif" font-size="20px" fill="#000" opacity="1">2.Line Benefits - 4.NN_OC_fy_3</text></g></g><path class="foreground" aria-hidden="true" d="" pointer-events="none" display="none"/></g><g transform="translate(0,132)"><path class="background" aria-hidden="true" d="M0,0h323.04296875v20h-323.04296875Z" pointer-events="none" opacity="1"/><g><g class="mark-symbol role-legend-symbol" pointer-events="none"><path transform="translate(10,10)" d="M5,0A5,5,0,1,1,-5,0A5,5,0,1,1,5,0" fill="#b279a2" stroke="#b279a2" stroke-width="1.5" opacity="1"/></g><g class="mark-text role-legend-label" pointer-events="none"><text text-anchor="start" transform="translate(24,16)" font-family="sans-serif" font-size="20px" fill="#000" opacity="1">2.Line Benefits - 5.NN_OC_fy_4</text></g></g><path class="foreground" aria-hidden="true" d="" pointer-events="none" display="none"/></g></g></g><path class="foreground" aria-hidden="true" d="" pointer-events="none" display="none"/></g></g></g><path class="foreground" aria-hidden="true" d="" pointer-events="none" display="none"/></g></g></g><path class="foreground" aria-hidden="true" d="" display="none"/></g></g></g></svg>