<svg xmlns="http://www.w3.org/2000/svg" xmlns:xlink="http://www.w3.org/1999/xlink" version="1.1" class="marks" width="833" height="352" viewBox="0 0 833 352"><rect width="833" height="352" fill="white"/><g fill="none" stroke-miterlimit="10" transform="translate(44,8)"><g class="mark-group role-frame root" role="graphics-object" aria-roledescription="group mark container"><g transform="translate(0,0)"><path class="background" aria-hidden="true" d="M0.5,0.5h600v300h-600Z" stroke="#ddd"/><g><g class="mark-group role-axis" aria-hidden="true"><g transform="translate(0.5,0.5)"><path class="background" aria-hidden="true" d="M0,0h0v0h0Z" pointer-events="none"/><g><g class="mark-rule role-axis-grid" pointer-events="none"><line transform="translate(0,265)" x2="600" y2="0" stroke="#ddd" stroke-width="1" opacity="1"/><line transform="translate(0,214)" x2="600" y2="0" stroke="#ddd" stroke-width="1" opacity="1"/><line transform="translate(0,163)" x2="600" y2="0" stroke="#ddd" stroke-width="1" opacity="1"/><line transform="translate(0,113)" x2="600" y2="0" stroke="#ddd" stroke-width="1" opacity="1"/><line transform="translate(0,62)" x2="600" y2="0" stroke="#ddd" stroke-width="1" opacity="1"/><line transform="translate(0,11)" x2="600" y2="0" stroke="#ddd" stroke-width="1" opacity="1"/></g></g><path class="foreground" aria-hidden="true" d="" pointer-events="none" display="none"/></g></g><g class="mark-group role-axis" role="graphics-symbol" aria-roledescription="axis" aria-label="X-axis titled 'Number of Clusters' for a discrete scale with 10 values: 10, 20, 30, 40, 50, ending with 100"><g transform="translate(0.5,300.5)"><path class="background" aria-hidden="true" d="M0,0h0v0h0Z" pointer-events="none"/><g><g class="mark-rule role-axis-tick" pointer-events="none"><line transform="translate(30,0)" x2="0" y2="5" stroke="#888" stroke-width="1" opacity="1"/><line transform="translate(90,0)" x2="0" y2="5" stroke="#888" stroke-width="1" opacity="1"/><line transform="translate(150,0)" x2="0" y2="5" stroke="#888" stroke-width="1" opacity="1"/><line transform="translate(210,0)" x2="0" y2="5" stroke="#888" stroke-width="1" opacity="1"/><line transform="translate(270,0)" x2="0" y2="5" stroke="#888" stroke-width="1" opacity="1"/><line transform="translate(330,0)" x2="0" y2="5" stroke="#888" stroke-width="1" opacity="1"/><line transform="translate(390,0)" x2="0" y2="5" stroke="#888" stroke-width="1" opacity="1"/><line transform="translate(450,0)" x2="0" y2="5" stroke="#888" stroke-width="1" opacity="1"/><line transform="translate(510,0)" x2="0" y2="5" stroke="#888" stroke-width="1" opacity="1"/><line transform="translate(570,0)" x2="0" y2="5" stroke="#888" stroke-width="1" opacity="1"/></g><g class="mark-text role-axis-label" pointer-events="none"><text text-anchor="end" transform="translate(30,7) rotate(270) translate(0,3)" font-family="sans-serif" font-size="10px" fill="#000" opacity="1">10</text><text text-anchor="end" transform="translate(90,7) rotate(270) translate(0,3)" font-family="sans-serif" font-size="10px" fill="#000" opacity="1">20</text><text text-anchor="end" transform="translate(150,7) rotate(270) translate(0,3)" font-family="sans-serif" font-size="10px" fill="#000" opacity="1">30</text><text text-anchor="end" transform="translate(210,7) rotate(270) translate(0,3)" font-family="sans-serif" font-size="10px" fill="#000" opacity="1">40</text><text text-anchor="end" transform="translate(270,7) rotate(270) translate(0,3)" font-family="sans-serif" font-size="10px" fill="#000" opacity="1">50</text><text text-anchor="end" transform="translate(330,7) rotate(270) translate(0,3)" font-family="sans-serif" font-size="10px" fill="#000" opacity="1">60</text><text text-anchor="end" transform="translate(390,7) rotate(270) translate(0,3)" font-family="sans-serif" font-size="10px" fill="#000" opacity="1">70</text><text text-anchor="end" transform="translate(450,7) rotate(270) translate(0,3)" font-family="sans-serif" font-size="10px" fill="#000" opacity="1">80</text><text text-anchor="end" transform="translate(510,7) rotate(270) translate(0,3)" font-family="sans-serif" font-size="10px" fill="#000" opacity="1">90</text><text text-anchor="end" transform="translate(570,7) rotate(270) translate(0,3)" font-family="sans-serif" font-size="10px" fill="#000" opacity="1">100</text></g><g class="mark-rule role-axis-domain" pointer-events="none"><line transform="translate(0,0)" x2="600" y2="0" stroke="#888" stroke-width="1" opacity="1"/></g><g class="mark-text role-axis-title" pointer-events="none"><text text-anchor="middle" transform="translate(300,36.6845703125)" font-family="sans-serif" font-size="11px" font-weight="bold" fill="#000" opacity="1">Number of Clusters</text></g></g><path class="foreground" aria-hidden="true" d="" pointer-events="none" display="none"/></g></g><g class="mark-group role-axis" role="graphics-symbol" aria-roledescription="axis" aria-label="Y-axis titled 'MEUR' for a linear scale with values from 215 to 511"><g transform="translate(0.5,0.5)"><path class="background" aria-hidden="true" d="M0,0h0v0h0Z" pointer-events="none"/><g><g class="mark-rule role-axis-tick" pointer-events="none"><line transform="translate(0,265)" x2="-5" y2="0" stroke="#888" stroke-width="1" opacity="1"/><line transform="translate(0,214)" x2="-5" y2="0" stroke="#888" stroke-width="1" opacity="1"/><line transform="translate(0,163)" x2="-5" y2="0" stroke="#888" stroke-width="1" opacity="1"/><line transform="translate(0,113)" x2="-5" y2="0" stroke="#888" stroke-width="1" opacity="1"/><line transform="translate(0,62)" x2="-5" y2="0" stroke="#888" stroke-width="1" opacity="1"/><line transform="translate(0,11)" x2="-5" y2="0" stroke="#888" stroke-width="1" opacity="1"/></g><g class="mark-text role-axis-label" pointer-events="none"><text text-anchor="end" transform="translate(-7,267.8418240388905)" font-family="sans-serif" font-size="10px" fill="#000" opacity="1">250</text><text text-anchor="end" transform="translate(-7,217.15843271285706)" font-family="sans-serif" font-size="10px" fill="#000" opacity="1">300</text><text text-anchor="end" transform="translate(-7,166.47504138682365)" font-family="sans-serif" font-size="10px" fill="#000" opacity="1">350</text><text text-anchor="end" transform="translate(-7,115.79165006079023)" font-family="sans-serif" font-size="10px" fill="#000" opacity="1">400</text><text text-anchor="end" transform="translate(-7,65.10825873475683)" font-family="sans-serif" font-size="10px" fill="#000" opacity="1">450</text><text text-anchor="end" transform="translate(-7,14.424867408723383)" font-family="sans-serif" font-size="10px" fill="#000" opacity="1">500</text></g><g class="mark-rule role-axis-domain" pointer-events="none"><line transform="translate(0,300)" x2="0" y2="-300" stroke="#888" stroke-width="1" opacity="1"/></g><g class="mark-text role-axis-title" pointer-events="none"><text text-anchor="middle" transform="translate(-27.6845703125,150) rotate(-90) translate(0,-2)" font-family="sans-serif" font-size="11px" font-weight="bold" fill="#000" opacity="1">MEUR</text></g></g><path class="foreground" aria-hidden="true" d="" pointer-events="none" display="none"/></g></g><g class="mark-group role-scope layer_0_pathgroup" role="graphics-object" aria-roledescription="group mark container"><g transform="translate(0,0)"><path class="background" aria-hidden="true" d="M0,0h600v300h-600Z"/><g><g class="mark-line role-mark layer_0_marks" role="graphics-object" aria-roledescription="line mark container"><path aria-label="Number of Clusters: 10; MEUR: 409.989891886; Category5: 0.Full Year - MILP" role="graphics-symbol" aria-roledescription="line mark" d="M30,102.665L90,102.665L150,102.665L210,102.665L270,102.665L330,102.665L390,102.665L450,102.665L510,102.665L570,102.665" stroke="#4c78a8" stroke-width="2"/></g></g><path class="foreground" aria-hidden="true" d="" display="none"/></g><g transform="translate(0,0)"><path class="background" aria-hidden="true" d="M0,0h600v300h-600Z"/><g><g class="mark-line role-mark layer_0_marks" role="graphics-object" aria-roledescription="line mark container"><path aria-label="Number of Clusters: 10; MEUR: 434.478357912; Category5: 1.RES and Demand - 1.OptModel" role="graphics-symbol" aria-roledescription="line mark" d="M30,77.842L90,108.401L150,93.315L210,93.918L270,96.438L330,95.15L390,96.698L450,93.682L510,101.263L570,98.047" stroke="#f58518" stroke-width="2"/></g></g><path class="foreground" aria-hidden="true" d="" display="none"/></g><g transform="translate(0,0)"><path class="background" aria-hidden="true" d="M0,0h600v300h-600Z"/><g><g class="mark-line role-mark layer_0_marks" role="graphics-object" aria-roledescription="line mark container"><path aria-label="Number of Clusters: 10; MEUR: 412.0649858; Category5: 2.Line Benefits - 1.OptModel" role="graphics-symbol" aria-roledescription="line mark" d="M30,100.562L90,95.299L150,97.047L210,97.806L270,96.687L330,97.34L390,96.732L450,98.829L510,300L570,296.783" stroke="#e45756" stroke-width="2"/></g></g><path class="foreground" aria-hidden="true" d="" display="none"/></g><g transform="translate(0,0)"><path class="background" aria-hidden="true" d="M0,0h600v300h-600Z"/><g><g class="mark-line role-mark layer_0_marks" role="graphics-object" aria-roledescription="line mark container"><path aria-label="Number of Clusters: 10; MEUR: 384.776920875; Category5: 2.Line Benefits - 2.NN_OC_fy_1" role="graphics-symbol" aria-roledescription="line mark" d="M30,128.223L90,104.116L150,109.553L210,97.532L270,76.098L330,88.481L390,93.855L450,83.934L510,86.236L570,88.063" stroke="#72b7b2" stroke-width="2"/></g></g><path class="foreground" aria-hidden="true" d="" display="none"/></g><g transform="translate(0,0)"><path class="background" aria-hidden="true" d="M0,0h600v300h-600Z"/><g><g class="mark-line role-mark layer_0_marks" role="graphics-object" aria-roledescription="line mark container"><path aria-label="Number of Clusters: 10; MEUR: 460.116847114; Category5: 2.Line Benefits - 3.NN_OC_fy_2" role="graphics-symbol" aria-roledescription="line mark" d="M30,51.853L90,62.771L150,88.194L210,85.169L270,49.452L330,82.906L390,54.589L450,57.447L510,79.267L570,93.11" stroke="#54a24b" stroke-width="2"/></g></g><path class="foreground" aria-hidden="true" d="" display="none"/></g><g transform="translate(0,0)"><path class="background" aria-hidden="true" d="M0,0h600v300h-600Z"/><g><g class="mark-line role-mark layer_0_marks" role="graphics-object" aria-roledescription="line mark container"><path aria-label="Number of Clusters: 10; MEUR: 486.854284582; Category5: 2.Line Benefits - 4.NN_OC_fy_3" role="graphics-symbol" aria-roledescription="line mark" d="M30,24.75L90,59.233L150,62.222L210,81.57L270,26.873L330,54.218L390,79.316L450,86.333L510,82.18L570,35.423" stroke="#eeca3b" stroke-width="2"/></g></g><path class="foreground" aria-hidden="true" d="" display="none"/></g><g transform="translate(0,0)"><path class="background" aria-hidden="true" d="M0,0h600v300h-600Z"/><g><g class="mark-line role-mark layer_0_marks" role="graphics-object" aria-roledescription="line mark container"><path aria-label="Number of Clusters: 10; MEUR: 495.002511479; Category5: 2.Line Benefits - 5.NN_OC_fy_4" role="graphics-symbol" aria-roledescription="line mark" d="M30,16.491L90,0L150,29.433L210,36.303L270,4.547L330,34.015L390,21.752L450,61.019L510,22.715L570,14.163" stroke="#b279a2" stroke-width="2"/></g></g><path class="foreground" aria-hidden="true" d="" display="none"/></g></g><g class="mark-symbol role-mark layer_1_marks" role="graphics-object" aria-roledescription="symbol mark container"><path aria-label="Number of Clusters: 10; MEUR: 409.989891886; Category5: 0.Full Year - MILP" role="graphics-symbol" aria-roledescription="point" transform="translate(30,102.66521806515085)" d="M2.739,0A2.739,2.739,0,1,1,-2.739,0A2.739,2.739,0,1,1,2.739,0" fill="#4c78a8" stroke-width="2" opacity="1"/><path aria-label="Number of Clusters: 20; MEUR: 409.989891886; Category5: 0.Full Year - MILP" role="graphics-symbol" aria-roledescription="point" transform="translate(90,102.66521806515085)" d="M2.739,0A2.739,2.739,0,1,1,-2.739,0A2.739,2.739,0,1,1,2.739,0" fill="#4c78a8" stroke-width="2" opacity="1"/><path aria-label="Number of Clusters: 30; MEUR: 409.989891886; Category5: 0.Full Year - MILP" role="graphics-symbol" aria-roledescription="point" transform="translate(150,102.66521806515085)" d="M2.739,0A2.739,2.739,0,1,1,-2.739,0A2.739,2.739,0,1,1,2.739,0" fill="#4c78a8" stroke-width="2" opacity="1"/><path aria-label="Number of Clusters: 40; MEUR: 409.989891886; Category5: 0.Full Year - MILP" role="graphics-symbol" aria-roledescription="point" transform="translate(210,102.66521806515085)" d="M2.739,0A2.739,2.739,0,1,1,-2.739,0A2.739,2.739,0,1,1,2.739,0" fill="#4c78a8" stroke-width="2" opacity="1"/><path aria-label="Number of Clusters: 50; MEUR: 409.989891886; Category5: 0.Full Year - MILP" role="graphics-symbol" aria-roledescription="point" transform="translate(270,102.66521806515085)" d="M2.739,0A2.739,2.739,0,1,1,-2.739,0A2.739,2.739,0,1,1,2.739,0" fill="#4c78a8" stroke-width="2" opacity="1"/><path aria-label="Number of Clusters: 60; MEUR: 409.989891886; Category5: 0.Full Year - MILP" role="graphics-symbol" aria-roledescription="point" transform="translate(330,102.66521806515085)" d="M2.739,0A2.739,2.739,0,1,1,-2.739,0A2.739,2.739,0,1,1,2.739,0" fill="#4c78a8" stroke-width="2" opacity="1"/><path aria-label="Number of Clusters: 70; MEUR: 409.989891886; Category5: 0.Full Year - MILP" role="graphics-symbol" aria-roledescription="point" transform="translate(390,102.66521806515085)" d="M2.739,0A2.739,2.739,0,1,1,-2.739,0A2.739,2.739,0,1,1,2.739,0" fill="#4c78a8" stroke-width="2" opacity="1"/><path aria-label="Number of Clusters: 80; MEUR: 409.989891886; Category5: 0.Full Year - MILP" role="graphics-symbol" aria-roledescription="point" transform="translate(450,102.66521806515085)" d="M2.739,0A2.739,2.739,0,1,1,-2.739,0A2.739,2.739,0,1,1,2.739,0" fill="#4c78a8" stroke-width="2" opacity="1"/><path aria-label="Number of Clusters: 90; MEUR: 409.989891886; Category5: 0.Full Year - MILP" role="graphics-symbol" aria-roledescription="point" transform="translate(510,102.66521806515085)" d="M2.739,0A2.739,2.739,0,1,1,-2.739,0A2.739,2.739,0,1,1,2.739,0" fill="#4c78a8" stroke-width="2" opacity="1"/><path aria-label="Number of Clusters: 100; MEUR: 409.989891886; Category5: 0.Full Year - MILP" role="graphics-symbol" aria-roledescription="point" transform="translate(570,102.66521806515085)" d="M2.739,0A2.739,2.739,0,1,1,-2.739,0A2.739,2.739,0,1,1,2.739,0" fill="#4c78a8" stroke-width="2" opacity="1"/><path aria-label="Number of Clusters: 10; MEUR: 434.478357912; Category5: 1.RES and Demand - 1.OptModel" role="graphics-symbol" aria-roledescription="point" transform="translate(30,77.8420479337536)" d="M2.739,0A2.739,2.739,0,1,1,-2.739,0A2.739,2.739,0,1,1,2.739,0" fill="#f58518" stroke-width="2" opacity="1"/><path aria-label="Number of Clusters: 100; MEUR: 414.545812934; Category5: 1.RES and Demand - 1.OptModel" role="graphics-symbol" aria-roledescription="point" transform="translate(570,98.04702747879548)" d="M2.739,0A2.739,2.739,0,1,1,-2.739,0A2.739,2.739,0,1,1,2.739,0" fill="#f58518" stroke-width="2" opacity="1"/><path aria-label="Number of Clusters: 20; MEUR: 404.331589939; Category5: 1.RES and Demand - 1.OptModel" role="graphics-symbol" aria-roledescription="point" transform="translate(90,108.40085670168328)" d="M2.739,0A2.739,2.739,0,1,1,-2.739,0A2.739,2.739,0,1,1,2.739,0" fill="#f58518" stroke-width="2" opacity="1"/><path aria-label="Number of Clusters: 30; MEUR: 419.213927813; Category5: 1.RES and Demand - 1.OptModel" role="graphics-symbol" aria-roledescription="point" transform="translate(150,93.31510961536989)" d="M2.739,0A2.739,2.739,0,1,1,-2.739,0A2.739,2.739,0,1,1,2.739,0" fill="#f58518" stroke-width="2" opacity="1"/><path aria-label="Number of Clusters: 40; MEUR: 418.619620386; Category5: 1.RES and Demand - 1.OptModel" role="graphics-symbol" aria-roledescription="point" transform="translate(210,93.91753993394535)" d="M2.739,0A2.739,2.739,0,1,1,-2.739,0A2.739,2.739,0,1,1,2.739,0" fill="#f58518" stroke-width="2" opacity="1"/><path aria-label="Number of Clusters: 50; MEUR: 416.133085214; Category5: 1.RES and Demand - 1.OptModel" role="graphics-symbol" aria-roledescription="point" transform="translate(270,96.43806063673995)" d="M2.739,0A2.739,2.739,0,1,1,-2.739,0A2.739,2.739,0,1,1,2.739,0" fill="#f58518" stroke-width="2" opacity="1"/><path aria-label="Number of Clusters: 60; MEUR: 417.403665216; Category5: 1.RES and Demand - 1.OptModel" role="graphics-symbol" aria-roledescription="point" transform="translate(330,95.15011456796093)" d="M2.739,0A2.739,2.739,0,1,1,-2.739,0A2.739,2.739,0,1,1,2.739,0" fill="#f58518" stroke-width="2" opacity="1"/><path aria-label="Number of Clusters: 70; MEUR: 415.876746949; Category5: 1.RES and Demand - 1.OptModel" role="graphics-symbol" aria-roledescription="point" transform="translate(390,96.69790248843671)" d="M2.739,0A2.739,2.739,0,1,1,-2.739,0A2.739,2.739,0,1,1,2.739,0" fill="#f58518" stroke-width="2" opacity="1"/><path aria-label="Number of Clusters: 80; MEUR: 418.85236512; Category5: 1.RES and Demand - 1.OptModel" role="graphics-symbol" aria-roledescription="point" transform="translate(450,93.68161408456814)" d="M2.739,0A2.739,2.739,0,1,1,-2.739,0A2.739,2.739,0,1,1,2.739,0" fill="#f58518" stroke-width="2" opacity="1"/><path aria-label="Number of Clusters: 90; MEUR: 411.373015065; Category5: 1.RES and Demand - 1.OptModel" role="graphics-symbol" aria-roledescription="point" transform="translate(510,101.26319059849955)" d="M2.739,0A2.739,2.739,0,1,1,-2.739,0A2.739,2.739,0,1,1,2.739,0" fill="#f58518" stroke-width="2" opacity="1"/><path aria-label="Number of Clusters: 10; MEUR: 412.0649858; Category5: 2.Line Benefits - 1.OptModel" role="graphics-symbol" aria-roledescription="point" transform="translate(30,100.56176212790152)" d="M2.739,0A2.739,2.739,0,1,1,-2.739,0A2.739,2.739,0,1,1,2.739,0" fill="#e45756" stroke-width="2" opacity="1"/><path aria-label="Number of Clusters: 100; MEUR: 218.489475487; Category5: 2.Line Benefits - 1.OptModel" role="graphics-symbol" aria-roledescription="point" transform="translate(570,296.78302893488086)" d="M2.739,0A2.739,2.739,0,1,1,-2.739,0A2.739,2.739,0,1,1,2.739,0" fill="#e45756" stroke-width="2" opacity="1"/><path aria-label="Number of Clusters: 20; MEUR: 417.256622; Category5: 2.Line Benefits - 1.OptModel" role="graphics-symbol" aria-roledescription="point" transform="translate(90,95.29916754496149)" d="M2.739,0A2.739,2.739,0,1,1,-2.739,0A2.739,2.739,0,1,1,2.739,0" fill="#e45756" stroke-width="2" opacity="1"/><path aria-label="Number of Clusters: 30; MEUR: 415.5318687; Category5: 2.Line Benefits - 1.OptModel" role="graphics-symbol" aria-roledescription="point" transform="translate(150,97.04749447385682)" d="M2.739,0A2.739,2.739,0,1,1,-2.739,0A2.739,2.739,0,1,1,2.739,0" fill="#e45756" stroke-width="2" opacity="1"/><path aria-label="Number of Clusters: 40; MEUR: 414.7836381; Category5: 2.Line Benefits - 1.OptModel" role="graphics-symbol" aria-roledescription="point" transform="translate(210,97.80595175989508)" d="M2.739,0A2.739,2.739,0,1,1,-2.739,0A2.739,2.739,0,1,1,2.739,0" fill="#e45756" stroke-width="2" opacity="1"/><path aria-label="Number of Clusters: 50; MEUR: 415.8871852; Category5: 2.Line Benefits - 1.OptModel" role="graphics-symbol" aria-roledescription="point" transform="translate(270,96.68732156957492)" d="M2.739,0A2.739,2.739,0,1,1,-2.739,0A2.739,2.739,0,1,1,2.739,0" fill="#e45756" stroke-width="2" opacity="1"/><path aria-label="Number of Clusters: 60; MEUR: 415.2429902; Category5: 2.Line Benefits - 1.OptModel" role="graphics-symbol" aria-roledescription="point" transform="translate(330,97.34032131508037)" d="M2.739,0A2.739,2.739,0,1,1,-2.739,0A2.739,2.739,0,1,1,2.739,0" fill="#e45756" stroke-width="2" opacity="1"/><path aria-label="Number of Clusters: 70; MEUR: 415.8426815; Category5: 2.Line Benefits - 1.OptModel" role="graphics-symbol" aria-roledescription="point" transform="translate(390,96.73243353842601)" d="M2.739,0A2.739,2.739,0,1,1,-2.739,0A2.739,2.739,0,1,1,2.739,0" fill="#e45756" stroke-width="2" opacity="1"/><path aria-label="Number of Clusters: 80; MEUR: 413.7743544; Category5: 2.Line Benefits - 1.OptModel" role="graphics-symbol" aria-roledescription="point" transform="translate(450,98.82903017441683)" d="M2.739,0A2.739,2.739,0,1,1,-2.739,0A2.739,2.739,0,1,1,2.739,0" fill="#e45756" stroke-width="2" opacity="1"/><path aria-label="Number of Clusters: 90; MEUR: 215.315880566; Category5: 2.Line Benefits - 1.OptModel" role="graphics-symbol" aria-roledescription="point" transform="translate(510,300)" d="M2.739,0A2.739,2.739,0,1,1,-2.739,0A2.739,2.739,0,1,1,2.739,0" fill="#e45756" stroke-width="2" opacity="1"/><path aria-label="Number of Clusters: 10; MEUR: 384.776920875; Category5: 2.Line Benefits - 2.NN_OC_fy_1" role="graphics-symbol" aria-roledescription="point" transform="translate(30,128.22279558991457)" d="M2.739,0A2.739,2.739,0,1,1,-2.739,0A2.739,2.739,0,1,1,2.739,0" fill="#72b7b2" stroke-width="2" opacity="1"/><path aria-label="Number of Clusters: 100; MEUR: 424.395017693; Category5: 2.Line Benefits - 2.NN_OC_fy_1" role="graphics-symbol" aria-roledescription="point" transform="translate(570,88.06320549772838)" d="M2.739,0A2.739,2.739,0,1,1,-2.739,0A2.739,2.739,0,1,1,2.739,0" fill="#72b7b2" stroke-width="2" opacity="1"/><path aria-label="Number of Clusters: 20; MEUR: 408.558445792; Category5: 2.Line Benefits - 2.NN_OC_fy_1" role="graphics-symbol" aria-roledescription="point" transform="translate(90,104.11622891659731)" d="M2.739,0A2.739,2.739,0,1,1,-2.739,0A2.739,2.739,0,1,1,2.739,0" fill="#72b7b2" stroke-width="2" opacity="1"/><path aria-label="Number of Clusters: 30; MEUR: 403.195380879; Category5: 2.Line Benefits - 2.NN_OC_fy_1" role="graphics-symbol" aria-roledescription="point" transform="translate(150,109.5525952707475)" d="M2.739,0A2.739,2.739,0,1,1,-2.739,0A2.739,2.739,0,1,1,2.739,0" fill="#72b7b2" stroke-width="2" opacity="1"/><path aria-label="Number of Clusters: 40; MEUR: 415.053617322; Category5: 2.Line Benefits - 2.NN_OC_fy_1" role="graphics-symbol" aria-roledescription="point" transform="translate(210,97.53228250917752)" d="M2.739,0A2.739,2.739,0,1,1,-2.739,0A2.739,2.739,0,1,1,2.739,0" fill="#72b7b2" stroke-width="2" opacity="1"/><path aria-label="Number of Clusters: 50; MEUR: 436.198708437; Category5: 2.Line Benefits - 2.NN_OC_fy_1" role="graphics-symbol" aria-roledescription="point" transform="translate(270,76.09818395681225)" d="M2.739,0A2.739,2.739,0,1,1,-2.739,0A2.739,2.739,0,1,1,2.739,0" fill="#72b7b2" stroke-width="2" opacity="1"/><path aria-label="Number of Clusters: 60; MEUR: 423.982912214; Category5: 2.Line Benefits - 2.NN_OC_fy_1" role="graphics-symbol" aria-roledescription="point" transform="translate(330,88.48094356316828)" d="M2.739,0A2.739,2.739,0,1,1,-2.739,0A2.739,2.739,0,1,1,2.739,0" fill="#72b7b2" stroke-width="2" opacity="1"/><path aria-label="Number of Clusters: 70; MEUR: 418.681127498; Category5: 2.Line Benefits - 2.NN_OC_fy_1" role="graphics-symbol" aria-roledescription="point" transform="translate(390,93.8551921526649)" d="M2.739,0A2.739,2.739,0,1,1,-2.739,0A2.739,2.739,0,1,1,2.739,0" fill="#72b7b2" stroke-width="2" opacity="1"/><path aria-label="Number of Clusters: 80; MEUR: 428.468994934; Category5: 2.Line Benefits - 2.NN_OC_fy_1" role="graphics-symbol" aria-roledescription="point" transform="translate(450,83.93354584330669)" d="M2.739,0A2.739,2.739,0,1,1,-2.739,0A2.739,2.739,0,1,1,2.739,0" fill="#72b7b2" stroke-width="2" opacity="1"/><path aria-label="Number of Clusters: 90; MEUR: 426.197819339; Category5: 2.Line Benefits - 2.NN_OC_fy_1" role="graphics-symbol" aria-roledescription="point" transform="translate(510,86.23576347136249)" d="M2.739,0A2.739,2.739,0,1,1,-2.739,0A2.739,2.739,0,1,1,2.739,0" fill="#72b7b2" stroke-width="2" opacity="1"/><path aria-label="Number of Clusters: 10; MEUR: 460.116847114; Category5: 2.Line Benefits - 3.NN_OC_fy_2" role="graphics-symbol" aria-roledescription="point" transform="translate(30,51.8531363091517)" d="M2.739,0A2.739,2.739,0,1,1,-2.739,0A2.739,2.739,0,1,1,2.739,0" fill="#54a24b" stroke-width="2" opacity="1"/><path aria-label="Number of Clusters: 100; MEUR: 419.416752611; Category5: 2.Line Benefits - 3.NN_OC_fy_2" role="graphics-symbol" aria-roledescription="point" transform="translate(570,93.1095126437291)" d="M2.739,0A2.739,2.739,0,1,1,-2.739,0A2.739,2.739,0,1,1,2.739,0" fill="#54a24b" stroke-width="2" opacity="1"/><path aria-label="Number of Clusters: 20; MEUR: 449.346099211; Category5: 2.Line Benefits - 3.NN_OC_fy_2" role="graphics-symbol" aria-roledescription="point" transform="translate(90,62.77109692615136)" d="M2.739,0A2.739,2.739,0,1,1,-2.739,0A2.739,2.739,0,1,1,2.739,0" fill="#54a24b" stroke-width="2" opacity="1"/><path aria-label="Number of Clusters: 30; MEUR: 424.265645795; Category5: 2.Line Benefits - 3.NN_OC_fy_2" role="graphics-symbol" aria-roledescription="point" transform="translate(150,88.19434562852547)" d="M2.739,0A2.739,2.739,0,1,1,-2.739,0A2.739,2.739,0,1,1,2.739,0" fill="#54a24b" stroke-width="2" opacity="1"/><path aria-label="Number of Clusters: 40; MEUR: 427.250417799; Category5: 2.Line Benefits - 3.NN_OC_fy_2" role="graphics-symbol" aria-roledescription="point" transform="translate(210,85.16877827920109)" d="M2.739,0A2.739,2.739,0,1,1,-2.739,0A2.739,2.739,0,1,1,2.739,0" fill="#54a24b" stroke-width="2" opacity="1"/><path aria-label="Number of Clusters: 50; MEUR: 462.485940963; Category5: 2.Line Benefits - 3.NN_OC_fy_2" role="graphics-symbol" aria-roledescription="point" transform="translate(270,49.451662096874315)" d="M2.739,0A2.739,2.739,0,1,1,-2.739,0A2.739,2.739,0,1,1,2.739,0" fill="#54a24b" stroke-width="2" opacity="1"/><path aria-label="Number of Clusters: 60; MEUR: 429.482864181; Category5: 2.Line Benefits - 3.NN_OC_fy_2" role="graphics-symbol" aria-roledescription="point" transform="translate(330,82.90581920713589)" d="M2.739,0A2.739,2.739,0,1,1,-2.739,0A2.739,2.739,0,1,1,2.739,0" fill="#54a24b" stroke-width="2" opacity="1"/><path aria-label="Number of Clusters: 70; MEUR: 457.418046604; Category5: 2.Line Benefits - 3.NN_OC_fy_2" role="graphics-symbol" aria-roledescription="point" transform="translate(390,54.58882355711134)" d="M2.739,0A2.739,2.739,0,1,1,-2.739,0A2.739,2.739,0,1,1,2.739,0" fill="#54a24b" stroke-width="2" opacity="1"/><path aria-label="Number of Clusters: 80; MEUR: 454.598887616; Category5: 2.Line Benefits - 3.NN_OC_fy_2" role="graphics-symbol" aria-roledescription="point" transform="translate(450,57.44651432071566)" d="M2.739,0A2.739,2.739,0,1,1,-2.739,0A2.739,2.739,0,1,1,2.739,0" fill="#54a24b" stroke-width="2" opacity="1"/><path aria-label="Number of Clusters: 90; MEUR: 433.072627676; Category5: 2.Line Benefits - 3.NN_OC_fy_2" role="graphics-symbol" aria-roledescription="point" transform="translate(510,79.26699144748751)" d="M2.739,0A2.739,2.739,0,1,1,-2.739,0A2.739,2.739,0,1,1,2.739,0" fill="#54a24b" stroke-width="2" opacity="1"/><path aria-label="Number of Clusters: 10; MEUR: 486.854284582; Category5: 2.Line Benefits - 4.NN_OC_fy_3" role="graphics-symbol" aria-roledescription="point" transform="translate(30,24.7502561841088)" d="M2.739,0A2.739,2.739,0,1,1,-2.739,0A2.739,2.739,0,1,1,2.739,0" fill="#eeca3b" stroke-width="2" opacity="1"/><path aria-label="Number of Clusters: 100; MEUR: 476.325617446; Category5: 2.Line Benefits - 4.NN_OC_fy_3" role="graphics-symbol" aria-roledescription="point" transform="translate(570,35.42282731682036)" d="M2.739,0A2.739,2.739,0,1,1,-2.739,0A2.739,2.739,0,1,1,2.739,0" fill="#eeca3b" stroke-width="2" opacity="1"/><path aria-label="Number of Clusters: 20; MEUR: 452.836784405; Category5: 2.Line Benefits - 4.NN_OC_fy_3" role="graphics-symbol" aria-roledescription="point" transform="translate(90,59.23270165268504)" d="M2.739,0A2.739,2.739,0,1,1,-2.739,0A2.739,2.739,0,1,1,2.739,0" fill="#eeca3b" stroke-width="2" opacity="1"/><path aria-label="Number of Clusters: 30; MEUR: 449.887613221; Category5: 2.Line Benefits - 4.NN_OC_fy_3" role="graphics-symbol" aria-roledescription="point" transform="translate(150,62.22218159691463)" d="M2.739,0A2.739,2.739,0,1,1,-2.739,0A2.739,2.739,0,1,1,2.739,0" fill="#eeca3b" stroke-width="2" opacity="1"/><path aria-label="Number of Clusters: 40; MEUR: 430.801136059; Category5: 2.Line Benefits - 4.NN_OC_fy_3" role="graphics-symbol" aria-roledescription="point" transform="translate(210,81.56952941715166)" d="M2.739,0A2.739,2.739,0,1,1,-2.739,0A2.739,2.739,0,1,1,2.739,0" fill="#eeca3b" stroke-width="2" opacity="1"/><path aria-label="Number of Clusters: 50; MEUR: 484.760000594; Category5: 2.Line Benefits - 4.NN_OC_fy_3" role="graphics-symbol" aria-roledescription="point" transform="translate(270,26.87316448296094)" d="M2.739,0A2.739,2.739,0,1,1,-2.739,0A2.739,2.739,0,1,1,2.739,0" fill="#eeca3b" stroke-width="2" opacity="1"/><path aria-label="Number of Clusters: 60; MEUR: 457.783945791; Category5: 2.Line Benefits - 4.NN_OC_fy_3" role="graphics-symbol" aria-roledescription="point" transform="translate(330,54.21792332277461)" d="M2.739,0A2.739,2.739,0,1,1,-2.739,0A2.739,2.739,0,1,1,2.739,0" fill="#eeca3b" stroke-width="2" opacity="1"/><path aria-label="Number of Clusters: 70; MEUR: 433.023953733; Category5: 2.Line Benefits - 4.NN_OC_fy_3" role="graphics-symbol" aria-roledescription="point" transform="translate(390,79.31633065719346)" d="M2.739,0A2.739,2.739,0,1,1,-2.739,0A2.739,2.739,0,1,1,2.739,0" fill="#eeca3b" stroke-width="2" opacity="1"/><path aria-label="Number of Clusters: 80; MEUR: 426.101844528; Category5: 2.Line Benefits - 4.NN_OC_fy_3" role="graphics-symbol" aria-roledescription="point" transform="translate(450,86.33305005006773)" d="M2.739,0A2.739,2.739,0,1,1,-2.739,0A2.739,2.739,0,1,1,2.739,0" fill="#eeca3b" stroke-width="2" opacity="1"/><path aria-label="Number of Clusters: 90; MEUR: 430.198411097; Category5: 2.Line Benefits - 4.NN_OC_fy_3" role="graphics-symbol" aria-roledescription="point" transform="translate(510,82.18049231998909)" d="M2.739,0A2.739,2.739,0,1,1,-2.739,0A2.739,2.739,0,1,1,2.739,0" fill="#eeca3b" stroke-width="2" opacity="1"/><path aria-label="Number of Clusters: 10; MEUR: 495.002511479; Category5: 2.Line Benefits - 5.NN_OC_fy_4" role="graphics-symbol" aria-roledescription="point" transform="translate(30,16.490660736250828)" d="M2.739,0A2.739,2.739,0,1,1,-2.739,0A2.739,2.739,0,1,1,2.739,0" fill="#b279a2" stroke-width="2" opacity="1"/><path aria-label="Number of Clusters: 100; MEUR: 497.299180322; Category5: 2.Line Benefits - 5.NN_OC_fy_4" role="graphics-symbol" aria-roledescription="point" transform="translate(570,14.162601422043986)" d="M2.739,0A2.739,2.739,0,1,1,-2.739,0A2.739,2.739,0,1,1,2.739,0" fill="#b279a2" stroke-width="2" opacity="1"/><path aria-label="Number of Clusters: 20; MEUR: 511.270819799; Category5: 2.Line Benefits - 5.NN_OC_fy_4" role="graphics-symbol" aria-roledescription="point" transform="translate(90,0)" d="M2.739,0A2.739,2.739,0,1,1,-2.739,0A2.739,2.739,0,1,1,2.739,0" fill="#b279a2" stroke-width="2" opacity="1"/><path aria-label="Number of Clusters: 30; MEUR: 482.234607166; Category5: 2.Line Benefits - 5.NN_OC_fy_4" role="graphics-symbol" aria-roledescription="point" transform="translate(150,29.433074550465644)" d="M2.739,0A2.739,2.739,0,1,1,-2.739,0A2.739,2.739,0,1,1,2.739,0" fill="#b279a2" stroke-width="2" opacity="1"/><path aria-label="Number of Clusters: 40; MEUR: 475.457116004; Category5: 2.Line Benefits - 5.NN_OC_fy_4" role="graphics-symbol" aria-roledescription="point" transform="translate(210,36.30319928597441)" d="M2.739,0A2.739,2.739,0,1,1,-2.739,0A2.739,2.739,0,1,1,2.739,0" fill="#b279a2" stroke-width="2" opacity="1"/><path aria-label="Number of Clusters: 50; MEUR: 506.785335549; Category5: 2.Line Benefits - 5.NN_OC_fy_4" role="graphics-symbol" aria-roledescription="point" transform="translate(270,4.54679107092687)" d="M2.739,0A2.739,2.739,0,1,1,-2.739,0A2.739,2.739,0,1,1,2.739,0" fill="#b279a2" stroke-width="2" opacity="1"/><path aria-label="Number of Clusters: 60; MEUR: 477.714523428; Category5: 2.Line Benefits - 5.NN_OC_fy_4" role="graphics-symbol" aria-roledescription="point" transform="translate(330,34.01493800812582)" d="M2.739,0A2.739,2.739,0,1,1,-2.739,0A2.739,2.739,0,1,1,2.739,0" fill="#b279a2" stroke-width="2" opacity="1"/><path aria-label="Number of Clusters: 70; MEUR: 489.812052988; Category5: 2.Line Benefits - 5.NN_OC_fy_4" role="graphics-symbol" aria-roledescription="point" transform="translate(390,21.752061513080314)" d="M2.739,0A2.739,2.739,0,1,1,-2.739,0A2.739,2.739,0,1,1,2.739,0" fill="#b279a2" stroke-width="2" opacity="1"/><path aria-label="Number of Clusters: 80; MEUR: 451.074593936; Category5: 2.Line Benefits - 5.NN_OC_fy_4" role="graphics-symbol" aria-roledescription="point" transform="translate(450,61.0189774347889)" d="M2.739,0A2.739,2.739,0,1,1,-2.739,0A2.739,2.739,0,1,1,2.739,0" fill="#b279a2" stroke-width="2" opacity="1"/><path aria-label="Number of Clusters: 90; MEUR: 488.862540989; Category5: 2.Line Benefits - 5.NN_OC_fy_4" role="graphics-symbol" aria-roledescription="point" transform="translate(510,22.714551277263297)" d="M2.739,0A2.739,2.739,0,1,1,-2.739,0A2.739,2.739,0,1,1,2.739,0" fill="#b279a2" stroke-width="2" opacity="1"/></g><g class="mark-group role-legend" role="graphics-symbol" aria-roledescription="legend" aria-label="Symbol legend for fill color and stroke color with 7 values: 0.Full Year - MILP, 1.RES and Demand - 1.OptModel, 2.Line Benefits - 1.OptModel, 2.Line Benefits - 2.NN_OC_fy_1, 2.Line Benefits - 3.NN_OC_fy_2, 2.Line Benefits - 4.NN_OC_fy_3, 2.Line Benefits - 5.NN_OC_fy_4"><g transform="translate(618,0)"><path class="background" aria-hidden="true" d="M0,0h166v109h-166Z" pointer-events="none"/><g><g class="mark-group role-legend-entry"><g transform="translate(0,0)"><path class="background" aria-hidden="true" d="M0,0h0v0h0Z" pointer-events="none"/><g><g class="mark-group role-scope" role="graphics-object" aria-roledescription="group mark container"><g transform="translate(0,0)"><path class="background" aria-hidden="true" d="M0,0h165.521484375v12.5h-165.521484375Z" pointer-events="none" opacity="1"/><g><g class="mark-symbol role-legend-symbol" pointer-events="none"><path transform="translate(6,6)" d="M5,0A5,5,0,1,1,-5,0A5,5,0,1,1,5,0" fill="#4c78a8" stroke="#4c78a8" stroke-width="1.5" opacity="1"/></g><g class="mark-text role-legend-label" pointer-events="none"><text text-anchor="start" transform="translate(16,9)" font-family="sans-serif" font-size="10px" fill="#000" opacity="1">0.Full Year - MILP</text></g></g><path class="foreground" aria-hidden="true" d="" pointer-events="none" display="none"/></g><g transform="translate(0,16)"><path class="background" aria-hidden="true" d="M0,0h165.521484375v12.5h-165.521484375Z" pointer-events="none" opacity="1"/><g><g class="mark-symbol role-legend-symbol" pointer-events="none"><path transform="translate(6,6)" d="M5,0A5,5,0,1,1,-5,0A5,5,0,1,1,5,0" fill="#f58518" stroke="#f58518" stroke-width="1.5" opacity="1"/></g><g class="mark-text role-legend-label" pointer-events="none"><text text-anchor="start" transform="translate(16,9)" font-family="sans-serif" font-size="10px" fill="#000" opacity="1">1.RES and Demand - 1.OptModel</text></g></g><path class="foreground" aria-hidden="true" d="" pointer-events="none" display="none"/></g><g transform="translate(0,32)"><path class="background" aria-hidden="true" d="M0,0h165.521484375v12.5h-165.521484375Z" pointer-events="none" opacity="1"/><g><g class="mark-symbol role-legend-symbol" pointer-events="none"><path transform="translate(6,6)" d="M5,0A5,5,0,1,1,-5,0A5,5,0,1,1,5,0" fill="#e45756" stroke="#e45756" stroke-width="1.5" opacity="1"/></g><g class="mark-text role-legend-label" pointer-events="none"><text text-anchor="start" transform="translate(16,9)" font-family="sans-serif" font-size="10px" fill="#000" opacity="1">2.Line Benefits - 1.OptModel</text></g></g><path class="foreground" aria-hidden="true" d="" pointer-events="none" display="none"/></g><g transform="translate(0,48)"><path class="background" aria-hidden="true" d="M0,0h165.521484375v12.5h-165.521484375Z" pointer-events="none" opacity="1"/><g><g class="mark-symbol role-legend-symbol" pointer-events="none"><path transform="translate(6,6)" d="M5,0A5,5,0,1,1,-5,0A5,5,0,1,1,5,0" fill="#72b7b2" stroke="#72b7b2" stroke-width="1.5" opacity="1"/></g><g class="mark-text role-legend-label" pointer-events="none"><text text-anchor="start" transform="translate(16,9)" font-family="sans-serif" font-size="10px" fill="#000" opacity="1">2.Line Benefits - 2.NN_OC_fy_1</text></g></g><path class="foreground" aria-hidden="true" d="" pointer-events="none" display="none"/></g><g transform="translate(0,64)"><path class="background" aria-hidden="true" d="M0,0h165.521484375v12.5h-165.521484375Z" pointer-events="none" opacity="1"/><g><g class="mark-symbol role-legend-symbol" pointer-events="none"><path transform="translate(6,6)" d="M5,0A5,5,0,1,1,-5,0A5,5,0,1,1,5,0" fill="#54a24b" stroke="#54a24b" stroke-width="1.5" opacity="1"/></g><g class="mark-text role-legend-label" pointer-events="none"><text text-anchor="start" transform="translate(16,9)" font-family="sans-serif" font-size="10px" fill="#000" opacity="1">2.Line Benefits - 3.NN_OC_fy_2</text></g></g><path class="foreground" aria-hidden="true" d="" pointer-events="none" display="none"/></g><g transform="translate(0,80)"><path class="background" aria-hidden="true" d="M0,0h165.521484375v12.5h-165.521484375Z" pointer-events="none" opacity="1"/><g><g class="mark-symbol role-legend-symbol" pointer-events="none"><path transform="translate(6,6)" d="M5,0A5,5,0,1,1,-5,0A5,5,0,1,1,5,0" fill="#eeca3b" stroke="#eeca3b" stroke-width="1.5" opacity="1"/></g><g class="mark-text role-legend-label" pointer-events="none"><text text-anchor="start" transform="translate(16,9)" font-family="sans-serif" font-size="10px" fill="#000" opacity="1">2.Line Benefits - 4.NN_OC_fy_3</text></g></g><path class="foreground" aria-hidden="true" d="" pointer-events="none" display="none"/></g><g transform="translate(0,96)"><path class="background" aria-hidden="true" d="M0,0h165.521484375v12.5h-165.521484375Z" pointer-events="none" opacity="1"/><g><g class="mark-symbol role-legend-symbol" pointer-events="none"><path transform="translate(6,6)" d="M5,0A5,5,0,1,1,-5,0A5,5,0,1,1,5,0" fill="#b279a2" stroke="#b279a2" stroke-width="1.5" opacity="1"/></g><g class="mark-text role-legend-label" pointer-events="none"><text text-anchor="start" transform="translate(16,9)" font-family="sans-serif" font-size="10px" fill="#000" opacity="1">2.Line Benefits - 5.NN_OC_fy_4</text></g></g><path class="foreground" aria-hidden="true" d="" pointer-events="none" display="none"/></g></g></g><path class="foreground" aria-hidden="true" d="" pointer-events="none" display="none"/></g></g></g><path class="foreground" aria-hidden="true" d="" pointer-events="none" display="none"/></g></g></g><path class="foreground" aria-hidden="true" d="" display="none"/></g></g></g></svg>