<svg xmlns="http://www.w3.org/2000/svg" xmlns:xlink="http://www.w3.org/1999/xlink" version="1.1" class="marks" width="833" height="352" viewBox="0 0 833 352"><rect width="833" height="352" fill="white"/><g fill="none" stroke-miterlimit="10" transform="translate(44,8)"><g class="mark-group role-frame root" role="graphics-object" aria-roledescription="group mark container"><g transform="translate(0,0)"><path class="background" aria-hidden="true" d="M0.5,0.5h600v300h-600Z" stroke="#ddd"/><g><g class="mark-group role-axis" aria-hidden="true"><g transform="translate(0.5,0.5)"><path class="background" aria-hidden="true" d="M0,0h0v0h0Z" pointer-events="none"/><g><g class="mark-rule role-axis-grid" pointer-events="none"><line transform="translate(0,283)" x2="600" y2="0" stroke="#ddd" stroke-width="1" opacity="1"/><line transform="translate(0,245)" x2="600" y2="0" stroke="#ddd" stroke-width="1" opacity="1"/><line transform="translate(0,207)" x2="600" y2="0" stroke="#ddd" stroke-width="1" opacity="1"/><line transform="translate(0,169)" x2="600" y2="0" stroke="#ddd" stroke-width="1" opacity="1"/><line transform="translate(0,131)" x2="600" y2="0" stroke="#ddd" stroke-width="1" opacity="1"/><line transform="translate(0,93)" x2="600" y2="0" stroke="#ddd" stroke-width="1" opacity="1"/><line transform="translate(0,55)" x2="600" y2="0" stroke="#ddd" stroke-width="1" opacity="1"/><line transform="translate(0,17)" x2="600" y2="0" stroke="#ddd" stroke-width="1" opacity="1"/></g></g><path class="foreground" aria-hidden="true" d="" pointer-events="none" display="none"/></g></g><g class="mark-group role-axis" role="graphics-symbol" aria-roledescription="axis" aria-label="X-axis titled 'Number of Clusters' for a discrete scale with 10 values: 10, 20, 30, 40, 50, ending with 100"><g transform="translate(0.5,300.5)"><path class="background" aria-hidden="true" d="M0,0h0v0h0Z" pointer-events="none"/><g><g class="mark-rule role-axis-tick" pointer-events="none"><line transform="translate(30,0)" x2="0" y2="5" stroke="#888" stroke-width="1" opacity="1"/><line transform="translate(90,0)" x2="0" y2="5" stroke="#888" stroke-width="1" opacity="1"/><line transform="translate(150,0)" x2="0" y2="5" stroke="#888" stroke-width="1" opacity="1"/><line transform="translate(210,0)" x2="0" y2="5" stroke="#888" stroke-width="1" opacity="1"/><line transform="translate(270,0)" x2="0" y2="5" stroke="#888" stroke-width="1" opacity="1"/><line transform="translate(330,0)" x2="0" y2="5" stroke="#888" stroke-width="1" opacity="1"/><line transform="translate(390,0)" x2="0" y2="5" stroke="#888" stroke-width="1" opacity="1"/><line transform="translate(450,0)" x2="0" y2="5" stroke="#888" stroke-width="1" opacity="1"/><line transform="translate(510,0)" x2="0" y2="5" stroke="#888" stroke-width="1" opacity="1"/><line transform="translate(570,0)" x2="0" y2="5" stroke="#888" stroke-width="1" opacity="1"/></g><g class="mark-text role-axis-label" pointer-events="none"><text text-anchor="end" transform="translate(30,7) rotate(270) translate(0,3)" font-family="sans-serif" font-size="10px" fill="#000" opacity="1">10</text><text text-anchor="end" transform="translate(90,7) rotate(270) translate(0,3)" font-family="sans-serif" font-size="10px" fill="#000" opacity="1">20</text><text text-anchor="end" transform="translate(150,7) rotate(270) translate(0,3)" font-family="sans-serif" font-size="10px" fill="#000" opacity="1">30</text><text text-anchor="end" transform="translate(210,7) rotate(270) translate(0,3)" font-family="sans-serif" font-size="10px" fill="#000" opacity="1">40</text><text text-anchor="end" transform="translate(270,7) rotate(270) translate(0,3)" font-family="sans-serif" font-size="10px" fill="#000" opacity="1">50</text><text text-anchor="end" transform="translate(330,7) rotate(270) translate(0,3)" font-family="sans-serif" font-size="10px" fill="#000" opacity="1">60</text><text text-anchor="end" transform="translate(390,7) rotate(270) translate(0,3)" font-family="sans-serif" font-size="10px" fill="#000" opacity="1">70</text><text text-anchor="end" transform="translate(450,7) rotate(270) translate(0,3)" font-family="sans-serif" font-size="10px" fill="#000" opacity="1">80</text><text text-anchor="end" transform="translate(510,7) rotate(270) translate(0,3)" font-family="sans-serif" font-size="10px" fill="#000" opacity="1">90</text><text text-anchor="end" transform="translate(570,7) rotate(270) translate(0,3)" font-family="sans-serif" font-size="10px" fill="#000" opacity="1">100</text></g><g class="mark-rule role-axis-domain" pointer-events="none"><line transform="translate(0,0)" x2="600" y2="0" stroke="#888" stroke-width="1" opacity="1"/></g><g class="mark-text role-axis-title" pointer-events="none"><text text-anchor="middle" transform="translate(300,36.6845703125)" font-family="sans-serif" font-size="11px" font-weight="bold" fill="#000" opacity="1">Number of Clusters</text></g></g><path class="foreground" aria-hidden="true" d="" pointer-events="none" display="none"/></g></g><g class="mark-group role-axis" role="graphics-symbol" aria-roledescription="axis" aria-label="Y-axis titled 'MEUR' for a linear scale with values from 174 to 181"><g transform="translate(0.5,0.5)"><path class="background" aria-hidden="true" d="M0,0h0v0h0Z" pointer-events="none"/><g><g class="mark-rule role-axis-tick" pointer-events="none"><line transform="translate(0,283)" x2="-5" y2="0" stroke="#888" stroke-width="1" opacity="1"/><line transform="translate(0,245)" x2="-5" y2="0" stroke="#888" stroke-width="1" opacity="1"/><line transform="translate(0,207)" x2="-5" y2="0" stroke="#888" stroke-width="1" opacity="1"/><line transform="translate(0,169)" x2="-5" y2="0" stroke="#888" stroke-width="1" opacity="1"/><line transform="translate(0,131)" x2="-5" y2="0" stroke="#888" stroke-width="1" opacity="1"/><line transform="translate(0,93)" x2="-5" y2="0" stroke="#888" stroke-width="1" opacity="1"/><line transform="translate(0,55)" x2="-5" y2="0" stroke="#888" stroke-width="1" opacity="1"/><line transform="translate(0,17)" x2="-5" y2="0" stroke="#888" stroke-width="1" opacity="1"/></g><g class="mark-text role-axis-label" pointer-events="none"><text text-anchor="end" transform="translate(-7,286.0419261661435)" font-family="sans-serif" font-size="10px" fill="#000" opacity="1">174</text><text text-anchor="end" transform="translate(-7,248.02109699402408)" font-family="sans-serif" font-size="10px" fill="#000" opacity="1">175</text><text text-anchor="end" transform="translate(-7,210.00026782190457)" font-family="sans-serif" font-size="10px" fill="#000" opacity="1">176</text><text text-anchor="end" transform="translate(-7,171.97943864978507)" font-family="sans-serif" font-size="10px" fill="#000" opacity="1">177</text><text text-anchor="end" transform="translate(-7,133.9586094776656)" font-family="sans-serif" font-size="10px" fill="#000" opacity="1">178</text><text text-anchor="end" transform="translate(-7,95.93778030554611)" font-family="sans-serif" font-size="10px" fill="#000" opacity="1">179</text><text text-anchor="end" transform="translate(-7,57.91695113342661)" font-family="sans-serif" font-size="10px" fill="#000" opacity="1">180</text><text text-anchor="end" transform="translate(-7,19.89612196130713)" font-family="sans-serif" font-size="10px" fill="#000" opacity="1">181</text></g><g class="mark-rule role-axis-domain" pointer-events="none"><line transform="translate(0,300)" x2="0" y2="-300" stroke="#888" stroke-width="1" opacity="1"/></g><g class="mark-text role-axis-title" pointer-events="none"><text text-anchor="middle" transform="translate(-27.6845703125,150) rotate(-90) translate(0,-2)" font-family="sans-serif" font-size="11px" font-weight="bold" fill="#000" opacity="1">MEUR</text></g></g><path class="foreground" aria-hidden="true" d="" pointer-events="none" display="none"/></g></g><g class="mark-group role-scope layer_0_pathgroup" role="graphics-object" aria-roledescription="group mark container"><g transform="translate(0,0)"><path class="background" aria-hidden="true" d="M0,0h600v300h-600Z"/><g><g class="mark-line role-mark layer_0_marks" role="graphics-object" aria-roledescription="line mark container"><path aria-label="Number of Clusters: 10; MEUR: 174.568533343; Category5: 0.Full Year - MILP" role="graphics-symbol" aria-roledescription="line mark" d="M30,261.426L90,261.426L150,261.426L210,261.426L270,261.426L330,261.426L390,261.426L450,261.426L510,261.426L570,261.426" stroke="#4c78a8" stroke-width="2"/></g></g><path class="foreground" aria-hidden="true" d="" display="none"/></g><g transform="translate(0,0)"><path class="background" aria-hidden="true" d="M0,0h600v300h-600Z"/><g><g class="mark-line role-mark layer_0_marks" role="graphics-object" aria-roledescription="line mark container"><path aria-label="Number of Clusters: 10; MEUR: 181.444391202; Category5: 1.RES and Demand - 1.OptModel" role="graphics-symbol" aria-roledescription="line mark" d="M30,0L90,24.683L150,24.786L210,201.417L270,76.8L330,111.151L390,76.871L450,109.976L510,25.461L570,75.691" stroke="#f58518" stroke-width="2"/></g></g><path class="foreground" aria-hidden="true" d="" display="none"/></g><g transform="translate(0,0)"><path class="background" aria-hidden="true" d="M0,0h600v300h-600Z"/><g><g class="mark-line role-mark layer_0_marks" role="graphics-object" aria-roledescription="line mark container"><path aria-label="Number of Clusters: 10; MEUR: 175.041954281; Category5: 2.Line Benefits - 1.OptModel" role="graphics-symbol" aria-roledescription="line mark" d="M30,243.426L90,217.327L150,206.942L210,132.572L270,261.985L330,244.481L390,284.06L450,277.118L510,277.14L570,176.157" stroke="#e45756" stroke-width="2"/></g></g><path class="foreground" aria-hidden="true" d="" display="none"/></g><g transform="translate(0,0)"><path class="background" aria-hidden="true" d="M0,0h600v300h-600Z"/><g><g class="mark-line role-mark layer_0_marks" role="graphics-object" aria-roledescription="line mark container"><path aria-label="Number of Clusters: 10; MEUR: 177.345103506; Category5: 2.Line Benefits - 2.NN_OC_fy_1" role="graphics-symbol" aria-roledescription="line mark" d="M30,155.858L90,222.748L150,300L210,198.958L270,242.256L330,222.949L390,237.023L450,242.324L510,221.285L570,221.352" stroke="#72b7b2" stroke-width="2"/></g></g><path class="foreground" aria-hidden="true" d="" display="none"/></g><g transform="translate(0,0)"><path class="background" aria-hidden="true" d="M0,0h600v300h-600Z"/><g><g class="mark-line role-mark layer_0_marks" role="graphics-object" aria-roledescription="line mark container"><path aria-label="Number of Clusters: 10; MEUR: 176.790085728; Category5: 2.Line Benefits - 3.NN_OC_fy_2" role="graphics-symbol" aria-roledescription="line mark" d="M30,176.961L90,207.467L150,126.429L210,213.322L270,204.014L330,204.95L390,198.878L450,235.646L510,222.24L570,209.051" stroke="#54a24b" stroke-width="2"/></g></g><path class="foreground" aria-hidden="true" d="" display="none"/></g><g transform="translate(0,0)"><path class="background" aria-hidden="true" d="M0,0h600v300h-600Z"/><g><g class="mark-line role-mark layer_0_marks" role="graphics-object" aria-roledescription="line mark container"><path aria-label="Number of Clusters: 10; MEUR: 174.853117413; Category5: 2.Line Benefits - 4.NN_OC_fy_3" role="graphics-symbol" aria-roledescription="line mark" d="M30,250.606L90,296.224L150,268.217L210,177.38L270,249.95L330,213.203L390,173.782L450,126.27L510,226.946L570,264.852" stroke="#eeca3b" stroke-width="2"/></g></g><path class="foreground" aria-hidden="true" d="" display="none"/></g><g transform="translate(0,0)"><path class="background" aria-hidden="true" d="M0,0h600v300h-600Z"/><g><g class="mark-line role-mark layer_0_marks" role="graphics-object" aria-roledescription="line mark container"><path aria-label="Number of Clusters: 10; MEUR: 178.7635853; Category5: 2.Line Benefits - 5.NN_OC_fy_4" role="graphics-symbol" aria-roledescription="line mark" d="M30,101.926L90,196.214L150,216.57L210,211.347L270,233.951L330,259.794L390,252.582L450,244.444L510,217.204L570,226.441" stroke="#b279a2" stroke-width="2"/></g></g><path class="foreground" aria-hidden="true" d="" display="none"/></g></g><g class="mark-symbol role-mark layer_1_marks" role="graphics-object" aria-roledescription="symbol mark container"><path aria-label="Number of Clusters: 10; MEUR: 174.568533343; Category5: 0.Full Year - MILP" role="graphics-symbol" aria-roledescription="point" transform="translate(30,261.4258170538458)" d="M2.739,0A2.739,2.739,0,1,1,-2.739,0A2.739,2.739,0,1,1,2.739,0" fill="#4c78a8" stroke-width="2" opacity="1"/><path aria-label="Number of Clusters: 20; MEUR: 174.568533343; Category5: 0.Full Year - MILP" role="graphics-symbol" aria-roledescription="point" transform="translate(90,261.4258170538458)" d="M2.739,0A2.739,2.739,0,1,1,-2.739,0A2.739,2.739,0,1,1,2.739,0" fill="#4c78a8" stroke-width="2" opacity="1"/><path aria-label="Number of Clusters: 30; MEUR: 174.568533343; Category5: 0.Full Year - MILP" role="graphics-symbol" aria-roledescription="point" transform="translate(150,261.4258170538458)" d="M2.739,0A2.739,2.739,0,1,1,-2.739,0A2.739,2.739,0,1,1,2.739,0" fill="#4c78a8" stroke-width="2" opacity="1"/><path aria-label="Number of Clusters: 40; MEUR: 174.568533343; Category5: 0.Full Year - MILP" role="graphics-symbol" aria-roledescription="point" transform="translate(210,261.4258170538458)" d="M2.739,0A2.739,2.739,0,1,1,-2.739,0A2.739,2.739,0,1,1,2.739,0" fill="#4c78a8" stroke-width="2" opacity="1"/><path aria-label="Number of Clusters: 50; MEUR: 174.568533343; Category5: 0.Full Year - MILP" role="graphics-symbol" aria-roledescription="point" transform="translate(270,261.4258170538458)" d="M2.739,0A2.739,2.739,0,1,1,-2.739,0A2.739,2.739,0,1,1,2.739,0" fill="#4c78a8" stroke-width="2" opacity="1"/><path aria-label="Number of Clusters: 60; MEUR: 174.568533343; Category5: 0.Full Year - MILP" role="graphics-symbol" aria-roledescription="point" transform="translate(330,261.4258170538458)" d="M2.739,0A2.739,2.739,0,1,1,-2.739,0A2.739,2.739,0,1,1,2.739,0" fill="#4c78a8" stroke-width="2" opacity="1"/><path aria-label="Number of Clusters: 70; MEUR: 174.568533343; Category5: 0.Full Year - MILP" role="graphics-symbol" aria-roledescription="point" transform="translate(390,261.4258170538458)" d="M2.739,0A2.739,2.739,0,1,1,-2.739,0A2.739,2.739,0,1,1,2.739,0" fill="#4c78a8" stroke-width="2" opacity="1"/><path aria-label="Number of Clusters: 80; MEUR: 174.568533343; Category5: 0.Full Year - MILP" role="graphics-symbol" aria-roledescription="point" transform="translate(450,261.4258170538458)" d="M2.739,0A2.739,2.739,0,1,1,-2.739,0A2.739,2.739,0,1,1,2.739,0" fill="#4c78a8" stroke-width="2" opacity="1"/><path aria-label="Number of Clusters: 90; MEUR: 174.568533343; Category5: 0.Full Year - MILP" role="graphics-symbol" aria-roledescription="point" transform="translate(510,261.4258170538458)" d="M2.739,0A2.739,2.739,0,1,1,-2.739,0A2.739,2.739,0,1,1,2.739,0" fill="#4c78a8" stroke-width="2" opacity="1"/><path aria-label="Number of Clusters: 100; MEUR: 174.568533343; Category5: 0.Full Year - MILP" role="graphics-symbol" aria-roledescription="point" transform="translate(570,261.4258170538458)" d="M2.739,0A2.739,2.739,0,1,1,-2.739,0A2.739,2.739,0,1,1,2.739,0" fill="#4c78a8" stroke-width="2" opacity="1"/><path aria-label="Number of Clusters: 10; MEUR: 181.444391202; Category5: 1.RES and Demand - 1.OptModel" role="graphics-symbol" aria-roledescription="point" transform="translate(30,0)" d="M2.739,0A2.739,2.739,0,1,1,-2.739,0A2.739,2.739,0,1,1,2.739,0" fill="#f58518" stroke-width="2" opacity="1"/><path aria-label="Number of Clusters: 100; MEUR: 179.453620165; Category5: 1.RES and Demand - 1.OptModel" role="graphics-symbol" aria-roledescription="point" transform="translate(570,75.6907655114352)" d="M2.739,0A2.739,2.739,0,1,1,-2.739,0A2.739,2.739,0,1,1,2.739,0" fill="#f58518" stroke-width="2" opacity="1"/><path aria-label="Number of Clusters: 20; MEUR: 180.795200829; Category5: 1.RES and Demand - 1.OptModel" role="graphics-symbol" aria-roledescription="point" transform="translate(90,24.68275625159101)" d="M2.739,0A2.739,2.739,0,1,1,-2.739,0A2.739,2.739,0,1,1,2.739,0" fill="#f58518" stroke-width="2" opacity="1"/><path aria-label="Number of Clusters: 30; MEUR: 180.79249765; Category5: 1.RES and Demand - 1.OptModel" role="graphics-symbol" aria-roledescription="point" transform="translate(150,24.785533372139124)" d="M2.739,0A2.739,2.739,0,1,1,-2.739,0A2.739,2.739,0,1,1,2.739,0" fill="#f58518" stroke-width="2" opacity="1"/><path aria-label="Number of Clusters: 40; MEUR: 176.14683603; Category5: 1.RES and Demand - 1.OptModel" role="graphics-symbol" aria-roledescription="point" transform="translate(210,201.4174401954405)" d="M2.739,0A2.739,2.739,0,1,1,-2.739,0A2.739,2.739,0,1,1,2.739,0" fill="#f58518" stroke-width="2" opacity="1"/><path aria-label="Number of Clusters: 50; MEUR: 179.42444543; Category5: 1.RES and Demand - 1.OptModel" role="graphics-symbol" aria-roledescription="point" transform="translate(270,76.80001313344704)" d="M2.739,0A2.739,2.739,0,1,1,-2.739,0A2.739,2.739,0,1,1,2.739,0" fill="#f58518" stroke-width="2" opacity="1"/><path aria-label="Number of Clusters: 60; MEUR: 178.520974879; Category5: 1.RES and Demand - 1.OptModel" role="graphics-symbol" aria-roledescription="point" transform="translate(330,111.15071261902344)" d="M2.739,0A2.739,2.739,0,1,1,-2.739,0A2.739,2.739,0,1,1,2.739,0" fill="#f58518" stroke-width="2" opacity="1"/><path aria-label="Number of Clusters: 70; MEUR: 179.422582821; Category5: 1.RES and Demand - 1.OptModel" role="graphics-symbol" aria-roledescription="point" transform="translate(390,76.87083105715851)" d="M2.739,0A2.739,2.739,0,1,1,-2.739,0A2.739,2.739,0,1,1,2.739,0" fill="#f58518" stroke-width="2" opacity="1"/><path aria-label="Number of Clusters: 80; MEUR: 178.551873241; Category5: 1.RES and Demand - 1.OptModel" role="graphics-symbol" aria-roledescription="point" transform="translate(450,109.97593124812569)" d="M2.739,0A2.739,2.739,0,1,1,-2.739,0A2.739,2.739,0,1,1,2.739,0" fill="#f58518" stroke-width="2" opacity="1"/><path aria-label="Number of Clusters: 90; MEUR: 180.774722553; Category5: 1.RES and Demand - 1.OptModel" role="graphics-symbol" aria-roledescription="point" transform="translate(510,25.461357296844977)" d="M2.739,0A2.739,2.739,0,1,1,-2.739,0A2.739,2.739,0,1,1,2.739,0" fill="#f58518" stroke-width="2" opacity="1"/><path aria-label="Number of Clusters: 10; MEUR: 175.041954281; Category5: 2.Line Benefits - 1.OptModel" role="graphics-symbol" aria-roledescription="point" transform="translate(30,243.42596046018733)" d="M2.739,0A2.739,2.739,0,1,1,-2.739,0A2.739,2.739,0,1,1,2.739,0" fill="#e45756" stroke-width="2" opacity="1"/><path aria-label="Number of Clusters: 100; MEUR: 176.811210156; Category5: 2.Line Benefits - 1.OptModel" role="graphics-symbol" aria-roledescription="point" transform="translate(570,176.1573850563316)" d="M2.739,0A2.739,2.739,0,1,1,-2.739,0A2.739,2.739,0,1,1,2.739,0" fill="#e45756" stroke-width="2" opacity="1"/><path aria-label="Number of Clusters: 20; MEUR: 175.728393966; Category5: 2.Line Benefits - 1.OptModel" role="graphics-symbol" aria-roledescription="point" transform="translate(90,217.32695444391769)" d="M2.739,0A2.739,2.739,0,1,1,-2.739,0A2.739,2.739,0,1,1,2.739,0" fill="#e45756" stroke-width="2" opacity="1"/><path aria-label="Number of Clusters: 30; MEUR: 176.001530266; Category5: 2.Line Benefits - 1.OptModel" role="graphics-symbol" aria-roledescription="point" transform="translate(150,206.9420858427984)" d="M2.739,0A2.739,2.739,0,1,1,-2.739,0A2.739,2.739,0,1,1,2.739,0" fill="#e45756" stroke-width="2" opacity="1"/><path aria-label="Number of Clusters: 40; MEUR: 177.957574897; Category5: 2.Line Benefits - 1.OptModel" role="graphics-symbol" aria-roledescription="point" transform="translate(210,132.57164707510898)" d="M2.739,0A2.739,2.739,0,1,1,-2.739,0A2.739,2.739,0,1,1,2.739,0" fill="#e45756" stroke-width="2" opacity="1"/><path aria-label="Number of Clusters: 50; MEUR: 174.553816401; Category5: 2.Line Benefits - 1.OptModel" role="graphics-symbol" aria-roledescription="point" transform="translate(270,261.985367374687)" d="M2.739,0A2.739,2.739,0,1,1,-2.739,0A2.739,2.739,0,1,1,2.739,0" fill="#e45756" stroke-width="2" opacity="1"/><path aria-label="Number of Clusters: 60; MEUR: 175.014204465; Category5: 2.Line Benefits - 1.OptModel" role="graphics-symbol" aria-roledescription="point" transform="translate(330,244.4810314408384)" d="M2.739,0A2.739,2.739,0,1,1,-2.739,0A2.739,2.739,0,1,1,2.739,0" fill="#e45756" stroke-width="2" opacity="1"/><path aria-label="Number of Clusters: 70; MEUR: 173.973230617; Category5: 2.Line Benefits - 1.OptModel" role="graphics-symbol" aria-roledescription="point" transform="translate(390,284.05972030969485)" d="M2.739,0A2.739,2.739,0,1,1,-2.739,0A2.739,2.739,0,1,1,2.739,0" fill="#e45756" stroke-width="2" opacity="1"/><path aria-label="Number of Clusters: 80; MEUR: 174.155806109; Category5: 2.Line Benefits - 1.OptModel" role="graphics-symbol" aria-roledescription="point" transform="translate(450,277.1180486939265)" d="M2.739,0A2.739,2.739,0,1,1,-2.739,0A2.739,2.739,0,1,1,2.739,0" fill="#e45756" stroke-width="2" opacity="1"/><path aria-label="Number of Clusters: 90; MEUR: 174.155240755; Category5: 2.Line Benefits - 1.OptModel" role="graphics-symbol" aria-roledescription="point" transform="translate(510,277.1395439273519)" d="M2.739,0A2.739,2.739,0,1,1,-2.739,0A2.739,2.739,0,1,1,2.739,0" fill="#e45756" stroke-width="2" opacity="1"/><path aria-label="Number of Clusters: 10; MEUR: 177.345103506; Category5: 2.Line Benefits - 2.NN_OC_fy_1" role="graphics-symbol" aria-roledescription="point" transform="translate(30,155.85831719515036)" d="M2.739,0A2.739,2.739,0,1,1,-2.739,0A2.739,2.739,0,1,1,2.739,0" fill="#72b7b2" stroke-width="2" opacity="1"/><path aria-label="Number of Clusters: 100; MEUR: 175.622538723; Category5: 2.Line Benefits - 2.NN_OC_fy_1" role="graphics-symbol" aria-roledescription="point" transform="translate(570,221.35165853868764)" d="M2.739,0A2.739,2.739,0,1,1,-2.739,0A2.739,2.739,0,1,1,2.739,0" fill="#72b7b2" stroke-width="2" opacity="1"/><path aria-label="Number of Clusters: 20; MEUR: 175.585806974; Category5: 2.Line Benefits - 2.NN_OC_fy_1" role="graphics-symbol" aria-roledescription="point" transform="translate(90,222.7482301159635)" d="M2.739,0A2.739,2.739,0,1,1,-2.739,0A2.739,2.739,0,1,1,2.739,0" fill="#72b7b2" stroke-width="2" opacity="1"/><path aria-label="Number of Clusters: 30; MEUR: 173.553979379; Category5: 2.Line Benefits - 2.NN_OC_fy_1" role="graphics-symbol" aria-roledescription="point" transform="translate(150,300)" d="M2.739,0A2.739,2.739,0,1,1,-2.739,0A2.739,2.739,0,1,1,2.739,0" fill="#72b7b2" stroke-width="2" opacity="1"/><path aria-label="Number of Clusters: 40; MEUR: 176.211514136; Category5: 2.Line Benefits - 2.NN_OC_fy_1" role="graphics-symbol" aria-roledescription="point" transform="translate(210,198.95832500149965)" d="M2.739,0A2.739,2.739,0,1,1,-2.739,0A2.739,2.739,0,1,1,2.739,0" fill="#72b7b2" stroke-width="2" opacity="1"/><path aria-label="Number of Clusters: 50; MEUR: 175.072722771; Category5: 2.Line Benefits - 2.NN_OC_fy_1" role="graphics-symbol" aria-roledescription="point" transform="translate(270,242.25611692806777)" d="M2.739,0A2.739,2.739,0,1,1,-2.739,0A2.739,2.739,0,1,1,2.739,0" fill="#72b7b2" stroke-width="2" opacity="1"/><path aria-label="Number of Clusters: 60; MEUR: 175.580513553; Category5: 2.Line Benefits - 2.NN_OC_fy_1" role="graphics-symbol" aria-roledescription="point" transform="translate(330,222.94949034754353)" d="M2.739,0A2.739,2.739,0,1,1,-2.739,0A2.739,2.739,0,1,1,2.739,0" fill="#72b7b2" stroke-width="2" opacity="1"/><path aria-label="Number of Clusters: 70; MEUR: 175.21035427; Category5: 2.Line Benefits - 2.NN_OC_fy_1" role="graphics-symbol" aria-roledescription="point" transform="translate(390,237.0232532252676)" d="M2.739,0A2.739,2.739,0,1,1,-2.739,0A2.739,2.739,0,1,1,2.739,0" fill="#72b7b2" stroke-width="2" opacity="1"/><path aria-label="Number of Clusters: 80; MEUR: 175.070933917; Category5: 2.Line Benefits - 2.NN_OC_fy_1" role="graphics-symbol" aria-roledescription="point" transform="translate(450,242.32413063646533)" d="M2.739,0A2.739,2.739,0,1,1,-2.739,0A2.739,2.739,0,1,1,2.739,0" fill="#72b7b2" stroke-width="2" opacity="1"/><path aria-label="Number of Clusters: 90; MEUR: 175.6242873; Category5: 2.Line Benefits - 2.NN_OC_fy_1" role="graphics-symbol" aria-roledescription="point" transform="translate(510,221.28517619390223)" d="M2.739,0A2.739,2.739,0,1,1,-2.739,0A2.739,2.739,0,1,1,2.739,0" fill="#72b7b2" stroke-width="2" opacity="1"/><path aria-label="Number of Clusters: 10; MEUR: 176.790085728; Category5: 2.Line Benefits - 3.NN_OC_fy_2" role="graphics-symbol" aria-roledescription="point" transform="translate(30,176.96055331466349)" d="M2.739,0A2.739,2.739,0,1,1,-2.739,0A2.739,2.739,0,1,1,2.739,0" fill="#54a24b" stroke-width="2" opacity="1"/><path aria-label="Number of Clusters: 100; MEUR: 175.946074478; Category5: 2.Line Benefits - 3.NN_OC_fy_2" role="graphics-symbol" aria-roledescription="point" transform="translate(570,209.05056088050452)" d="M2.739,0A2.739,2.739,0,1,1,-2.739,0A2.739,2.739,0,1,1,2.739,0" fill="#54a24b" stroke-width="2" opacity="1"/><path aria-label="Number of Clusters: 20; MEUR: 175.98773239; Category5: 2.Line Benefits - 3.NN_OC_fy_2" role="graphics-symbol" aria-roledescription="point" transform="translate(90,207.46669252471648)" d="M2.739,0A2.739,2.739,0,1,1,-2.739,0A2.739,2.739,0,1,1,2.739,0" fill="#54a24b" stroke-width="2" opacity="1"/><path aria-label="Number of Clusters: 30; MEUR: 178.119143935; Category5: 2.Line Benefits - 3.NN_OC_fy_2" role="graphics-symbol" aria-roledescription="point" transform="translate(150,126.4286582684451)" d="M2.739,0A2.739,2.739,0,1,1,-2.739,0A2.739,2.739,0,1,1,2.739,0" fill="#54a24b" stroke-width="2" opacity="1"/><path aria-label="Number of Clusters: 40; MEUR: 175.833734382; Category5: 2.Line Benefits - 3.NN_OC_fy_2" role="graphics-symbol" aria-roledescription="point" transform="translate(210,213.3218244945368)" d="M2.739,0A2.739,2.739,0,1,1,-2.739,0A2.739,2.739,0,1,1,2.739,0" fill="#54a24b" stroke-width="2" opacity="1"/><path aria-label="Number of Clusters: 50; MEUR: 176.078547814; Category5: 2.Line Benefits - 3.NN_OC_fy_2" role="graphics-symbol" aria-roledescription="point" transform="translate(270,204.01381479599368)" d="M2.739,0A2.739,2.739,0,1,1,-2.739,0A2.739,2.739,0,1,1,2.739,0" fill="#54a24b" stroke-width="2" opacity="1"/><path aria-label="Number of Clusters: 60; MEUR: 176.053924116; Category5: 2.Line Benefits - 3.NN_OC_fy_2" role="graphics-symbol" aria-roledescription="point" transform="translate(330,204.95002822400934)" d="M2.739,0A2.739,2.739,0,1,1,-2.739,0A2.739,2.739,0,1,1,2.739,0" fill="#54a24b" stroke-width="2" opacity="1"/><path aria-label="Number of Clusters: 70; MEUR: 176.213628578; Category5: 2.Line Benefits - 3.NN_OC_fy_2" role="graphics-symbol" aria-roledescription="point" transform="translate(390,198.8779321693659)" d="M2.739,0A2.739,2.739,0,1,1,-2.739,0A2.739,2.739,0,1,1,2.739,0" fill="#54a24b" stroke-width="2" opacity="1"/><path aria-label="Number of Clusters: 80; MEUR: 175.246584653; Category5: 2.Line Benefits - 3.NN_OC_fy_2" role="graphics-symbol" aria-roledescription="point" transform="translate(450,235.64574400874773)" d="M2.739,0A2.739,2.739,0,1,1,-2.739,0A2.739,2.739,0,1,1,2.739,0" fill="#54a24b" stroke-width="2" opacity="1"/><path aria-label="Number of Clusters: 90; MEUR: 175.599165967; Category5: 2.Line Benefits - 3.NN_OC_fy_2" role="graphics-symbol" aria-roledescription="point" transform="translate(510,222.24031010459927)" d="M2.739,0A2.739,2.739,0,1,1,-2.739,0A2.739,2.739,0,1,1,2.739,0" fill="#54a24b" stroke-width="2" opacity="1"/><path aria-label="Number of Clusters: 10; MEUR: 174.853117413; Category5: 2.Line Benefits - 4.NN_OC_fy_3" role="graphics-symbol" aria-roledescription="point" transform="translate(30,250.6056947556545)" d="M2.739,0A2.739,2.739,0,1,1,-2.739,0A2.739,2.739,0,1,1,2.739,0" fill="#eeca3b" stroke-width="2" opacity="1"/><path aria-label="Number of Clusters: 100; MEUR: 174.478424304; Category5: 2.Line Benefits - 4.NN_OC_fy_3" role="graphics-symbol" aria-roledescription="point" transform="translate(570,264.8518374484191)" d="M2.739,0A2.739,2.739,0,1,1,-2.739,0A2.739,2.739,0,1,1,2.739,0" fill="#eeca3b" stroke-width="2" opacity="1"/><path aria-label="Number of Clusters: 20; MEUR: 173.653293356; Category5: 2.Line Benefits - 4.NN_OC_fy_3" role="graphics-symbol" aria-roledescription="point" transform="translate(90,296.2240002523919)" d="M2.739,0A2.739,2.739,0,1,1,-2.739,0A2.739,2.739,0,1,1,2.739,0" fill="#eeca3b" stroke-width="2" opacity="1"/><path aria-label="Number of Clusters: 30; MEUR: 174.389909418; Category5: 2.Line Benefits - 4.NN_OC_fy_3" role="graphics-symbol" aria-roledescription="point" transform="translate(150,268.217246800559)" d="M2.739,0A2.739,2.739,0,1,1,-2.739,0A2.739,2.739,0,1,1,2.739,0" fill="#eeca3b" stroke-width="2" opacity="1"/><path aria-label="Number of Clusters: 40; MEUR: 176.779046383; Category5: 2.Line Benefits - 4.NN_OC_fy_3" role="graphics-symbol" aria-roledescription="point" transform="translate(210,177.38027837492717)" d="M2.739,0A2.739,2.739,0,1,1,-2.739,0A2.739,2.739,0,1,1,2.739,0" fill="#eeca3b" stroke-width="2" opacity="1"/><path aria-label="Number of Clusters: 50; MEUR: 174.870365604; Category5: 2.Line Benefits - 4.NN_OC_fy_3" role="graphics-symbol" aria-roledescription="point" transform="translate(270,249.94990421113116)" d="M2.739,0A2.739,2.739,0,1,1,-2.739,0A2.739,2.739,0,1,1,2.739,0" fill="#eeca3b" stroke-width="2" opacity="1"/><path aria-label="Number of Clusters: 60; MEUR: 175.836855655; Category5: 2.Line Benefits - 4.NN_OC_fy_3" role="graphics-symbol" aria-roledescription="point" transform="translate(330,213.2031510747682)" d="M2.739,0A2.739,2.739,0,1,1,-2.739,0A2.739,2.739,0,1,1,2.739,0" fill="#eeca3b" stroke-width="2" opacity="1"/><path aria-label="Number of Clusters: 70; MEUR: 176.873679255; Category5: 2.Line Benefits - 4.NN_OC_fy_3" role="graphics-symbol" aria-roledescription="point" transform="translate(390,173.78225810290212)" d="M2.739,0A2.739,2.739,0,1,1,-2.739,0A2.739,2.739,0,1,1,2.739,0" fill="#eeca3b" stroke-width="2" opacity="1"/><path aria-label="Number of Clusters: 80; MEUR: 178.123308469; Category5: 2.Line Benefits - 4.NN_OC_fy_3" role="graphics-symbol" aria-roledescription="point" transform="translate(450,126.27031924395675)" d="M2.739,0A2.739,2.739,0,1,1,-2.739,0A2.739,2.739,0,1,1,2.739,0" fill="#eeca3b" stroke-width="2" opacity="1"/><path aria-label="Number of Clusters: 90; MEUR: 175.475411224; Category5: 2.Line Benefits - 4.NN_OC_fy_3" role="graphics-symbol" aria-roledescription="point" transform="translate(510,226.94556806967145)" d="M2.739,0A2.739,2.739,0,1,1,-2.739,0A2.739,2.739,0,1,1,2.739,0" fill="#eeca3b" stroke-width="2" opacity="1"/><path aria-label="Number of Clusters: 10; MEUR: 178.7635853; Category5: 2.Line Benefits - 5.NN_OC_fy_4" role="graphics-symbol" aria-roledescription="point" transform="translate(30,101.92646322812709)" d="M2.739,0A2.739,2.739,0,1,1,-2.739,0A2.739,2.739,0,1,1,2.739,0" fill="#b279a2" stroke-width="2" opacity="1"/><path aria-label="Number of Clusters: 100; MEUR: 175.488682323; Category5: 2.Line Benefits - 5.NN_OC_fy_4" role="graphics-symbol" aria-roledescription="point" transform="translate(570,226.44098987125955)" d="M2.739,0A2.739,2.739,0,1,1,-2.739,0A2.739,2.739,0,1,1,2.739,0" fill="#b279a2" stroke-width="2" opacity="1"/><path aria-label="Number of Clusters: 20; MEUR: 176.283680788; Category5: 2.Line Benefits - 5.NN_OC_fy_4" role="graphics-symbol" aria-roledescription="point" transform="translate(90,196.21448902693894)" d="M2.739,0A2.739,2.739,0,1,1,-2.739,0A2.739,2.739,0,1,1,2.739,0" fill="#b279a2" stroke-width="2" opacity="1"/><path aria-label="Number of Clusters: 30; MEUR: 175.748302977; Category5: 2.Line Benefits - 5.NN_OC_fy_4" role="graphics-symbol" aria-roledescription="point" transform="translate(150,216.5699973377988)" d="M2.739,0A2.739,2.739,0,1,1,-2.739,0A2.739,2.739,0,1,1,2.739,0" fill="#b279a2" stroke-width="2" opacity="1"/><path aria-label="Number of Clusters: 40; MEUR: 175.885680287; Category5: 2.Line Benefits - 5.NN_OC_fy_4" role="graphics-symbol" aria-roledescription="point" transform="translate(210,211.34679809370206)" d="M2.739,0A2.739,2.739,0,1,1,-2.739,0A2.739,2.739,0,1,1,2.739,0" fill="#b279a2" stroke-width="2" opacity="1"/><path aria-label="Number of Clusters: 50; MEUR: 175.291150279; Category5: 2.Line Benefits - 5.NN_OC_fy_4" role="graphics-symbol" aria-roledescription="point" transform="translate(270,233.95132197932378)" d="M2.739,0A2.739,2.739,0,1,1,-2.739,0A2.739,2.739,0,1,1,2.739,0" fill="#b279a2" stroke-width="2" opacity="1"/><path aria-label="Number of Clusters: 60; MEUR: 174.611444844; Category5: 2.Line Benefits - 5.NN_OC_fy_4" role="graphics-symbol" aria-roledescription="point" transform="translate(330,259.7942862180154)" d="M2.739,0A2.739,2.739,0,1,1,-2.739,0A2.739,2.739,0,1,1,2.739,0" fill="#b279a2" stroke-width="2" opacity="1"/><path aria-label="Number of Clusters: 70; MEUR: 174.801135092; Category5: 2.Line Benefits - 5.NN_OC_fy_4" role="graphics-symbol" aria-roledescription="point" transform="translate(390,252.58210567907835)" d="M2.739,0A2.739,2.739,0,1,1,-2.739,0A2.739,2.739,0,1,1,2.739,0" fill="#b279a2" stroke-width="2" opacity="1"/><path aria-label="Number of Clusters: 80; MEUR: 175.015176288; Category5: 2.Line Benefits - 5.NN_OC_fy_4" role="graphics-symbol" aria-roledescription="point" transform="translate(450,244.44408192726112)" d="M2.739,0A2.739,2.739,0,1,1,-2.739,0A2.739,2.739,0,1,1,2.739,0" fill="#b279a2" stroke-width="2" opacity="1"/><path aria-label="Number of Clusters: 90; MEUR: 175.731638062; Category5: 2.Line Benefits - 5.NN_OC_fy_4" role="graphics-symbol" aria-roledescription="point" transform="translate(510,217.2036112331208)" d="M2.739,0A2.739,2.739,0,1,1,-2.739,0A2.739,2.739,0,1,1,2.739,0" fill="#b279a2" stroke-width="2" opacity="1"/></g><g class="mark-group role-legend" role="graphics-symbol" aria-roledescription="legend" aria-label="Symbol legend for fill color and stroke color with 7 values: 0.Full Year - MILP, 1.RES and Demand - 1.OptModel, 2.Line Benefits - 1.OptModel, 2.Line Benefits - 2.NN_OC_fy_1, 2.Line Benefits - 3.NN_OC_fy_2, 2.Line Benefits - 4.NN_OC_fy_3, 2.Line Benefits - 5.NN_OC_fy_4"><g transform="translate(618,0)"><path class="background" aria-hidden="true" d="M0,0h166v109h-166Z" pointer-events="none"/><g><g class="mark-group role-legend-entry"><g transform="translate(0,0)"><path class="background" aria-hidden="true" d="M0,0h0v0h0Z" pointer-events="none"/><g><g class="mark-group role-scope" role="graphics-object" aria-roledescription="group mark container"><g transform="translate(0,0)"><path class="background" aria-hidden="true" d="M0,0h165.521484375v12.5h-165.521484375Z" pointer-events="none" opacity="1"/><g><g class="mark-symbol role-legend-symbol" pointer-events="none"><path transform="translate(6,6)" d="M5,0A5,5,0,1,1,-5,0A5,5,0,1,1,5,0" fill="#4c78a8" stroke="#4c78a8" stroke-width="1.5" opacity="1"/></g><g class="mark-text role-legend-label" pointer-events="none"><text text-anchor="start" transform="translate(16,9)" font-family="sans-serif" font-size="10px" fill="#000" opacity="1">0.Full Year - MILP</text></g></g><path class="foreground" aria-hidden="true" d="" pointer-events="none" display="none"/></g><g transform="translate(0,16)"><path class="background" aria-hidden="true" d="M0,0h165.521484375v12.5h-165.521484375Z" pointer-events="none" opacity="1"/><g><g class="mark-symbol role-legend-symbol" pointer-events="none"><path transform="translate(6,6)" d="M5,0A5,5,0,1,1,-5,0A5,5,0,1,1,5,0" fill="#f58518" stroke="#f58518" stroke-width="1.5" opacity="1"/></g><g class="mark-text role-legend-label" pointer-events="none"><text text-anchor="start" transform="translate(16,9)" font-family="sans-serif" font-size="10px" fill="#000" opacity="1">1.RES and Demand - 1.OptModel</text></g></g><path class="foreground" aria-hidden="true" d="" pointer-events="none" display="none"/></g><g transform="translate(0,32)"><path class="background" aria-hidden="true" d="M0,0h165.521484375v12.5h-165.521484375Z" pointer-events="none" opacity="1"/><g><g class="mark-symbol role-legend-symbol" pointer-events="none"><path transform="translate(6,6)" d="M5,0A5,5,0,1,1,-5,0A5,5,0,1,1,5,0" fill="#e45756" stroke="#e45756" stroke-width="1.5" opacity="1"/></g><g class="mark-text role-legend-label" pointer-events="none"><text text-anchor="start" transform="translate(16,9)" font-family="sans-serif" font-size="10px" fill="#000" opacity="1">2.Line Benefits - 1.OptModel</text></g></g><path class="foreground" aria-hidden="true" d="" pointer-events="none" display="none"/></g><g transform="translate(0,48)"><path class="background" aria-hidden="true" d="M0,0h165.521484375v12.5h-165.521484375Z" pointer-events="none" opacity="1"/><g><g class="mark-symbol role-legend-symbol" pointer-events="none"><path transform="translate(6,6)" d="M5,0A5,5,0,1,1,-5,0A5,5,0,1,1,5,0" fill="#72b7b2" stroke="#72b7b2" stroke-width="1.5" opacity="1"/></g><g class="mark-text role-legend-label" pointer-events="none"><text text-anchor="start" transform="translate(16,9)" font-family="sans-serif" font-size="10px" fill="#000" opacity="1">2.Line Benefits - 2.NN_OC_fy_1</text></g></g><path class="foreground" aria-hidden="true" d="" pointer-events="none" display="none"/></g><g transform="translate(0,64)"><path class="background" aria-hidden="true" d="M0,0h165.521484375v12.5h-165.521484375Z" pointer-events="none" opacity="1"/><g><g class="mark-symbol role-legend-symbol" pointer-events="none"><path transform="translate(6,6)" d="M5,0A5,5,0,1,1,-5,0A5,5,0,1,1,5,0" fill="#54a24b" stroke="#54a24b" stroke-width="1.5" opacity="1"/></g><g class="mark-text role-legend-label" pointer-events="none"><text text-anchor="start" transform="translate(16,9)" font-family="sans-serif" font-size="10px" fill="#000" opacity="1">2.Line Benefits - 3.NN_OC_fy_2</text></g></g><path class="foreground" aria-hidden="true" d="" pointer-events="none" display="none"/></g><g transform="translate(0,80)"><path class="background" aria-hidden="true" d="M0,0h165.521484375v12.5h-165.521484375Z" pointer-events="none" opacity="1"/><g><g class="mark-symbol role-legend-symbol" pointer-events="none"><path transform="translate(6,6)" d="M5,0A5,5,0,1,1,-5,0A5,5,0,1,1,5,0" fill="#eeca3b" stroke="#eeca3b" stroke-width="1.5" opacity="1"/></g><g class="mark-text role-legend-label" pointer-events="none"><text text-anchor="start" transform="translate(16,9)" font-family="sans-serif" font-size="10px" fill="#000" opacity="1">2.Line Benefits - 4.NN_OC_fy_3</text></g></g><path class="foreground" aria-hidden="true" d="" pointer-events="none" display="none"/></g><g transform="translate(0,96)"><path class="background" aria-hidden="true" d="M0,0h165.521484375v12.5h-165.521484375Z" pointer-events="none" opacity="1"/><g><g class="mark-symbol role-legend-symbol" pointer-events="none"><path transform="translate(6,6)" d="M5,0A5,5,0,1,1,-5,0A5,5,0,1,1,5,0" fill="#b279a2" stroke="#b279a2" stroke-width="1.5" opacity="1"/></g><g class="mark-text role-legend-label" pointer-events="none"><text text-anchor="start" transform="translate(16,9)" font-family="sans-serif" font-size="10px" fill="#000" opacity="1">2.Line Benefits - 5.NN_OC_fy_4</text></g></g><path class="foreground" aria-hidden="true" d="" pointer-events="none" display="none"/></g></g></g><path class="foreground" aria-hidden="true" d="" pointer-events="none" display="none"/></g></g></g><path class="foreground" aria-hidden="true" d="" pointer-events="none" display="none"/></g></g></g><path class="foreground" aria-hidden="true" d="" display="none"/></g></g></g></svg>