<svg xmlns="http://www.w3.org/2000/svg" xmlns:xlink="http://www.w3.org/1999/xlink" version="1.1" class="marks" width="833" height="354" viewBox="0 0 833 354"><rect width="833" height="354" fill="white"/><g fill="none" stroke-miterlimit="10" transform="translate(44,10)"><g class="mark-group role-frame root" role="graphics-object" aria-roledescription="group mark container"><g transform="translate(0,0)"><path class="background" aria-hidden="true" d="M0.5,0.5h600v300h-600Z" stroke="#ddd"/><g><g class="mark-group role-axis" aria-hidden="true"><g transform="translate(0.5,0.5)"><path class="background" aria-hidden="true" d="M0,0h0v0h0Z" pointer-events="none"/><g><g class="mark-rule role-axis-grid" pointer-events="none"><line transform="translate(0,300)" x2="600" y2="0" stroke="#ddd" stroke-width="1" opacity="1"/><line transform="translate(0,267)" x2="600" y2="0" stroke="#ddd" stroke-width="1" opacity="1"/><line transform="translate(0,233)" x2="600" y2="0" stroke="#ddd" stroke-width="1" opacity="1"/><line transform="translate(0,200)" x2="600" y2="0" stroke="#ddd" stroke-width="1" opacity="1"/><line transform="translate(0,167)" x2="600" y2="0" stroke="#ddd" stroke-width="1" opacity="1"/><line transform="translate(0,133)" x2="600" y2="0" stroke="#ddd" stroke-width="1" opacity="1"/><line transform="translate(0,100)" x2="600" y2="0" stroke="#ddd" stroke-width="1" opacity="1"/><line transform="translate(0,67)" x2="600" y2="0" stroke="#ddd" stroke-width="1" opacity="1"/><line transform="translate(0,33)" x2="600" y2="0" stroke="#ddd" stroke-width="1" opacity="1"/><line transform="translate(0,0)" x2="600" y2="0" stroke="#ddd" stroke-width="1" opacity="1"/></g></g><path class="foreground" aria-hidden="true" d="" pointer-events="none" display="none"/></g></g><g class="mark-group role-axis" role="graphics-symbol" aria-roledescription="axis" aria-label="X-axis titled 'Number of Clusters' for a discrete scale with 10 values: 10, 20, 30, 40, 50, ending with 100"><g transform="translate(0.5,300.5)"><path class="background" aria-hidden="true" d="M0,0h0v0h0Z" pointer-events="none"/><g><g class="mark-rule role-axis-tick" pointer-events="none"><line transform="translate(30,0)" x2="0" y2="5" stroke="#888" stroke-width="1" opacity="1"/><line transform="translate(90,0)" x2="0" y2="5" stroke="#888" stroke-width="1" opacity="1"/><line transform="translate(150,0)" x2="0" y2="5" stroke="#888" stroke-width="1" opacity="1"/><line transform="translate(210,0)" x2="0" y2="5" stroke="#888" stroke-width="1" opacity="1"/><line transform="translate(270,0)" x2="0" y2="5" stroke="#888" stroke-width="1" opacity="1"/><line transform="translate(330,0)" x2="0" y2="5" stroke="#888" stroke-width="1" opacity="1"/><line transform="translate(390,0)" x2="0" y2="5" stroke="#888" stroke-width="1" opacity="1"/><line transform="translate(450,0)" x2="0" y2="5" stroke="#888" stroke-width="1" opacity="1"/><line transform="translate(510,0)" x2="0" y2="5" stroke="#888" stroke-width="1" opacity="1"/><line transform="translate(570,0)" x2="0" y2="5" stroke="#888" stroke-width="1" opacity="1"/></g><g class="mark-text role-axis-label" pointer-events="none"><text text-anchor="end" transform="translate(30,7) rotate(270) translate(0,3)" font-family="sans-serif" font-size="10px" fill="#000" opacity="1">10</text><text text-anchor="end" transform="translate(90,7) rotate(270) translate(0,3)" font-family="sans-serif" font-size="10px" fill="#000" opacity="1">20</text><text text-anchor="end" transform="translate(150,7) rotate(270) translate(0,3)" font-family="sans-serif" font-size="10px" fill="#000" opacity="1">30</text><text text-anchor="end" transform="translate(210,7) rotate(270) translate(0,3)" font-family="sans-serif" font-size="10px" fill="#000" opacity="1">40</text><text text-anchor="end" transform="translate(270,7) rotate(270) translate(0,3)" font-family="sans-serif" font-size="10px" fill="#000" opacity="1">50</text><text text-anchor="end" transform="translate(330,7) rotate(270) translate(0,3)" font-family="sans-serif" font-size="10px" fill="#000" opacity="1">60</text><text text-anchor="end" transform="translate(390,7) rotate(270) translate(0,3)" font-family="sans-serif" font-size="10px" fill="#000" opacity="1">70</text><text text-anchor="end" transform="translate(450,7) rotate(270) translate(0,3)" font-family="sans-serif" font-size="10px" fill="#000" opacity="1">80</text><text text-anchor="end" transform="translate(510,7) rotate(270) translate(0,3)" font-family="sans-serif" font-size="10px" fill="#000" opacity="1">90</text><text text-anchor="end" transform="translate(570,7) rotate(270) translate(0,3)" font-family="sans-serif" font-size="10px" fill="#000" opacity="1">100</text></g><g class="mark-rule role-axis-domain" pointer-events="none"><line transform="translate(0,0)" x2="600" y2="0" stroke="#888" stroke-width="1" opacity="1"/></g><g class="mark-text role-axis-title" pointer-events="none"><text text-anchor="middle" transform="translate(300,36.6845703125)" font-family="sans-serif" font-size="11px" font-weight="bold" fill="#000" opacity="1">Number of Clusters</text></g></g><path class="foreground" aria-hidden="true" d="" pointer-events="none" display="none"/></g></g><g class="mark-group role-axis" role="graphics-symbol" aria-roledescription="axis" aria-label="Y-axis titled 'MEUR, -' for a linear scale with values from 173 to 182"><g transform="translate(0.5,0.5)"><path class="background" aria-hidden="true" d="M0,0h0v0h0Z" pointer-events="none"/><g><g class="mark-rule role-axis-tick" pointer-events="none"><line transform="translate(0,300)" x2="-5" y2="0" stroke="#888" stroke-width="1" opacity="1"/><line transform="translate(0,267)" x2="-5" y2="0" stroke="#888" stroke-width="1" opacity="1"/><line transform="translate(0,233)" x2="-5" y2="0" stroke="#888" stroke-width="1" opacity="1"/><line transform="translate(0,200)" x2="-5" y2="0" stroke="#888" stroke-width="1" opacity="1"/><line transform="translate(0,167)" x2="-5" y2="0" stroke="#888" stroke-width="1" opacity="1"/><line transform="translate(0,133)" x2="-5" y2="0" stroke="#888" stroke-width="1" opacity="1"/><line transform="translate(0,100)" x2="-5" y2="0" stroke="#888" stroke-width="1" opacity="1"/><line transform="translate(0,67)" x2="-5" y2="0" stroke="#888" stroke-width="1" opacity="1"/><line transform="translate(0,33)" x2="-5" y2="0" stroke="#888" stroke-width="1" opacity="1"/><line transform="translate(0,0)" x2="-5" y2="0" stroke="#888" stroke-width="1" opacity="1"/></g><g class="mark-text role-axis-label" pointer-events="none"><text text-anchor="end" transform="translate(-7,303)" font-family="sans-serif" font-size="10px" fill="#000" opacity="1">173</text><text text-anchor="end" transform="translate(-7,269.66666666666663)" font-family="sans-serif" font-size="10px" fill="#000" opacity="1">174</text><text text-anchor="end" transform="translate(-7,236.33333333333334)" font-family="sans-serif" font-size="10px" fill="#000" opacity="1">175</text><text text-anchor="end" transform="translate(-7,203.00000000000003)" font-family="sans-serif" font-size="10px" fill="#000" opacity="1">176</text><text text-anchor="end" transform="translate(-7,169.66666666666669)" font-family="sans-serif" font-size="10px" fill="#000" opacity="1">177</text><text text-anchor="end" transform="translate(-7,136.33333333333331)" font-family="sans-serif" font-size="10px" fill="#000" opacity="1">178</text><text text-anchor="end" transform="translate(-7,103.00000000000001)" font-family="sans-serif" font-size="10px" fill="#000" opacity="1">179</text><text text-anchor="end" transform="translate(-7,69.66666666666666)" font-family="sans-serif" font-size="10px" fill="#000" opacity="1">180</text><text text-anchor="end" transform="translate(-7,36.33333333333335)" font-family="sans-serif" font-size="10px" fill="#000" opacity="1">181</text><text text-anchor="end" transform="translate(-7,3)" font-family="sans-serif" font-size="10px" fill="#000" opacity="1">182</text></g><g class="mark-rule role-axis-domain" pointer-events="none"><line transform="translate(0,300)" x2="0" y2="-300" stroke="#888" stroke-width="1" opacity="1"/></g><g class="mark-text role-axis-title" pointer-events="none"><text text-anchor="middle" transform="translate(-27.6845703125,150) rotate(-90) translate(0,-2)" font-family="sans-serif" font-size="11px" font-weight="bold" fill="#000" opacity="1">MEUR, -</text></g></g><path class="foreground" aria-hidden="true" d="" pointer-events="none" display="none"/></g></g><g class="mark-group role-scope layer_0_layer_0_pathgroup" role="graphics-object" aria-roledescription="group mark container"><g transform="translate(0,0)"><path class="background" aria-hidden="true" d="M0,0h600v300h-600Z"/><g><g class="mark-line role-mark layer_0_layer_0_marks" role="graphics-object" aria-roledescription="line mark container"><path aria-label="Number of Clusters: 10; MEUR: 181.444391202; Category5: 1.RES and Demand - 1.OptModel" role="graphics-symbol" aria-roledescription="line mark" d="M30,18.52L90,40.16L150,40.25L210,195.105L270,85.852L330,115.968L390,85.914L450,114.938L510,40.843L570,84.879" stroke="#4c78a8" stroke-width="2"/></g></g><path class="foreground" aria-hidden="true" d="" display="none"/></g><g transform="translate(0,0)"><path class="background" aria-hidden="true" d="M0,0h600v300h-600Z"/><g><g class="mark-line role-mark layer_0_layer_0_marks" role="graphics-object" aria-roledescription="line mark container"><path aria-label="Number of Clusters: 10; MEUR: 175.041954281; Category5: 2.Line Benefits - 1.OptModel" role="graphics-symbol" aria-roledescription="line mark" d="M30,231.935L90,209.054L150,199.949L210,134.748L270,248.206L330,232.86L390,267.559L450,261.473L510,261.492L570,172.96" stroke="#f58518" stroke-width="2"/></g></g><path class="foreground" aria-hidden="true" d="" display="none"/></g><g transform="translate(0,0)"><path class="background" aria-hidden="true" d="M0,0h600v300h-600Z"/><g><g class="mark-line role-mark layer_0_layer_0_marks" role="graphics-object" aria-roledescription="line mark container"><path aria-label="Number of Clusters: 10; MEUR: 177.345103506; Category5: 2.Line Benefits - 2.NN_OC_fy_1" role="graphics-symbol" aria-roledescription="line mark" d="M30,155.163L90,213.806L150,281.534L210,192.95L270,230.909L330,213.983L390,226.322L450,230.969L510,212.524L570,212.582" stroke="#e45756" stroke-width="2"/></g></g><path class="foreground" aria-hidden="true" d="" display="none"/></g><g transform="translate(0,0)"><path class="background" aria-hidden="true" d="M0,0h600v300h-600Z"/><g><g class="mark-line role-mark layer_0_layer_0_marks" role="graphics-object" aria-roledescription="line mark container"><path aria-label="Number of Clusters: 10; MEUR: 176.790085728; Category5: 2.Line Benefits - 3.NN_OC_fy_2" role="graphics-symbol" aria-roledescription="line mark" d="M30,173.664L90,200.409L150,129.362L210,205.542L270,197.382L330,198.203L390,192.879L450,225.114L510,213.361L570,201.798" stroke="#72b7b2" stroke-width="2"/></g></g><path class="foreground" aria-hidden="true" d="" display="none"/></g><g transform="translate(0,0)"><path class="background" aria-hidden="true" d="M0,0h600v300h-600Z"/><g><g class="mark-line role-mark layer_0_layer_0_marks" role="graphics-object" aria-roledescription="line mark container"><path aria-label="Number of Clusters: 10; MEUR: 174.853117413; Category5: 2.Line Benefits - 4.NN_OC_fy_3" role="graphics-symbol" aria-roledescription="line mark" d="M30,238.229L90,278.224L150,253.67L210,174.032L270,237.654L330,205.438L390,170.877L450,129.223L510,217.486L570,250.719" stroke="#54a24b" stroke-width="2"/></g></g><path class="foreground" aria-hidden="true" d="" display="none"/></g><g transform="translate(0,0)"><path class="background" aria-hidden="true" d="M0,0h600v300h-600Z"/><g><g class="mark-line role-mark layer_0_layer_0_marks" role="graphics-object" aria-roledescription="line mark container"><path aria-label="Number of Clusters: 10; MEUR: 178.7635853; Category5: 2.Line Benefits - 5.NN_OC_fy_4" role="graphics-symbol" aria-roledescription="line mark" d="M30,107.88L90,190.544L150,208.39L210,203.811L270,223.628L330,246.285L390,239.962L450,232.827L510,208.945L570,217.044" stroke="#eeca3b" stroke-width="2"/></g></g><path class="foreground" aria-hidden="true" d="" display="none"/></g></g><g class="mark-symbol role-mark layer_0_layer_1_marks" role="graphics-object" aria-roledescription="symbol mark container"><path aria-label="Number of Clusters: 10; MEUR: 181.444391202; Category5: 1.RES and Demand - 1.OptModel" role="graphics-symbol" aria-roledescription="point" transform="translate(30,18.520293280280022)" d="M2.739,0A2.739,2.739,0,1,1,-2.739,0A2.739,2.739,0,1,1,2.739,0" fill="#4c78a8" stroke-width="2" opacity="1"/><path aria-label="Number of Clusters: 100; MEUR: 179.453620165; Category5: 1.RES and Demand - 1.OptModel" role="graphics-symbol" aria-roledescription="point" transform="translate(570,84.87932784068258)" d="M2.739,0A2.739,2.739,0,1,1,-2.739,0A2.739,2.739,0,1,1,2.739,0" fill="#4c78a8" stroke-width="2" opacity="1"/><path aria-label="Number of Clusters: 20; MEUR: 180.795200829; Category5: 1.RES and Demand - 1.OptModel" role="graphics-symbol" aria-roledescription="point" transform="translate(90,40.15997236237182)" d="M2.739,0A2.739,2.739,0,1,1,-2.739,0A2.739,2.739,0,1,1,2.739,0" fill="#4c78a8" stroke-width="2" opacity="1"/><path aria-label="Number of Clusters: 30; MEUR: 180.79249765; Category5: 1.RES and Demand - 1.OptModel" role="graphics-symbol" aria-roledescription="point" transform="translate(150,40.250078340933236)" d="M2.739,0A2.739,2.739,0,1,1,-2.739,0A2.739,2.739,0,1,1,2.739,0" fill="#4c78a8" stroke-width="2" opacity="1"/><path aria-label="Number of Clusters: 40; MEUR: 176.14683603; Category5: 1.RES and Demand - 1.OptModel" role="graphics-symbol" aria-roledescription="point" transform="translate(210,195.10546565481187)" d="M2.739,0A2.739,2.739,0,1,1,-2.739,0A2.739,2.739,0,1,1,2.739,0" fill="#4c78a8" stroke-width="2" opacity="1"/><path aria-label="Number of Clusters: 50; MEUR: 179.42444543; Category5: 1.RES and Demand - 1.OptModel" role="graphics-symbol" aria-roledescription="point" transform="translate(270,85.8518190129909)" d="M2.739,0A2.739,2.739,0,1,1,-2.739,0A2.739,2.739,0,1,1,2.739,0" fill="#4c78a8" stroke-width="2" opacity="1"/><path aria-label="Number of Clusters: 60; MEUR: 178.520974879; Category5: 1.RES and Demand - 1.OptModel" role="graphics-symbol" aria-roledescription="point" transform="translate(330,115.96750404980013)" d="M2.739,0A2.739,2.739,0,1,1,-2.739,0A2.739,2.739,0,1,1,2.739,0" fill="#4c78a8" stroke-width="2" opacity="1"/><path aria-label="Number of Clusters: 70; MEUR: 179.422582821; Category5: 1.RES and Demand - 1.OptModel" role="graphics-symbol" aria-roledescription="point" transform="translate(390,85.91390596660156)" d="M2.739,0A2.739,2.739,0,1,1,-2.739,0A2.739,2.739,0,1,1,2.739,0" fill="#4c78a8" stroke-width="2" opacity="1"/><path aria-label="Number of Clusters: 80; MEUR: 178.551873241; Category5: 1.RES and Demand - 1.OptModel" role="graphics-symbol" aria-roledescription="point" transform="translate(450,114.93755862560515)" d="M2.739,0A2.739,2.739,0,1,1,-2.739,0A2.739,2.739,0,1,1,2.739,0" fill="#4c78a8" stroke-width="2" opacity="1"/><path aria-label="Number of Clusters: 90; MEUR: 180.774722553; Category5: 1.RES and Demand - 1.OptModel" role="graphics-symbol" aria-roledescription="point" transform="translate(510,40.84258157264552)" d="M2.739,0A2.739,2.739,0,1,1,-2.739,0A2.739,2.739,0,1,1,2.739,0" fill="#4c78a8" stroke-width="2" opacity="1"/><path aria-label="Number of Clusters: 10; MEUR: 175.041954281; Category5: 2.Line Benefits - 1.OptModel" role="graphics-symbol" aria-roledescription="point" transform="translate(30,231.93485731499473)" d="M2.739,0A2.739,2.739,0,1,1,-2.739,0A2.739,2.739,0,1,1,2.739,0" fill="#f58518" stroke-width="2" opacity="1"/><path aria-label="Number of Clusters: 100; MEUR: 176.811210156; Category5: 2.Line Benefits - 1.OptModel" role="graphics-symbol" aria-roledescription="point" transform="translate(570,172.95966146525643)" d="M2.739,0A2.739,2.739,0,1,1,-2.739,0A2.739,2.739,0,1,1,2.739,0" fill="#f58518" stroke-width="2" opacity="1"/><path aria-label="Number of Clusters: 20; MEUR: 175.728393966; Category5: 2.Line Benefits - 1.OptModel" role="graphics-symbol" aria-roledescription="point" transform="translate(90,209.05353446770314)" d="M2.739,0A2.739,2.739,0,1,1,-2.739,0A2.739,2.739,0,1,1,2.739,0" fill="#f58518" stroke-width="2" opacity="1"/><path aria-label="Number of Clusters: 30; MEUR: 176.001530266; Category5: 2.Line Benefits - 1.OptModel" role="graphics-symbol" aria-roledescription="point" transform="translate(150,199.94899113602287)" d="M2.739,0A2.739,2.739,0,1,1,-2.739,0A2.739,2.739,0,1,1,2.739,0" fill="#f58518" stroke-width="2" opacity="1"/><path aria-label="Number of Clusters: 40; MEUR: 177.957574897; Category5: 2.Line Benefits - 1.OptModel" role="graphics-symbol" aria-roledescription="point" transform="translate(210,134.7475034365516)" d="M2.739,0A2.739,2.739,0,1,1,-2.739,0A2.739,2.739,0,1,1,2.739,0" fill="#f58518" stroke-width="2" opacity="1"/><path aria-label="Number of Clusters: 50; MEUR: 174.553816401; Category5: 2.Line Benefits - 1.OptModel" role="graphics-symbol" aria-roledescription="point" transform="translate(270,248.20611995236086)" d="M2.739,0A2.739,2.739,0,1,1,-2.739,0A2.739,2.739,0,1,1,2.739,0" fill="#f58518" stroke-width="2" opacity="1"/><path aria-label="Number of Clusters: 60; MEUR: 175.014204465; Category5: 2.Line Benefits - 1.OptModel" role="graphics-symbol" aria-roledescription="point" transform="translate(330,232.85985115269244)" d="M2.739,0A2.739,2.739,0,1,1,-2.739,0A2.739,2.739,0,1,1,2.739,0" fill="#f58518" stroke-width="2" opacity="1"/><path aria-label="Number of Clusters: 70; MEUR: 173.973230617; Category5: 2.Line Benefits - 1.OptModel" role="graphics-symbol" aria-roledescription="point" transform="translate(390,267.5589794381248)" d="M2.739,0A2.739,2.739,0,1,1,-2.739,0A2.739,2.739,0,1,1,2.739,0" fill="#f58518" stroke-width="2" opacity="1"/><path aria-label="Number of Clusters: 80; MEUR: 174.155806109; Category5: 2.Line Benefits - 1.OptModel" role="graphics-symbol" aria-roledescription="point" transform="translate(450,261.47312968425825)" d="M2.739,0A2.739,2.739,0,1,1,-2.739,0A2.739,2.739,0,1,1,2.739,0" fill="#f58518" stroke-width="2" opacity="1"/><path aria-label="Number of Clusters: 90; MEUR: 174.155240755; Category5: 2.Line Benefits - 1.OptModel" role="graphics-symbol" aria-roledescription="point" transform="translate(510,261.4919748224745)" d="M2.739,0A2.739,2.739,0,1,1,-2.739,0A2.739,2.739,0,1,1,2.739,0" fill="#f58518" stroke-width="2" opacity="1"/><path aria-label="Number of Clusters: 10; MEUR: 177.345103506; Category5: 2.Line Benefits - 2.NN_OC_fy_1" role="graphics-symbol" aria-roledescription="point" transform="translate(30,155.1632164611353)" d="M2.739,0A2.739,2.739,0,1,1,-2.739,0A2.739,2.739,0,1,1,2.739,0" fill="#e45756" stroke-width="2" opacity="1"/><path aria-label="Number of Clusters: 100; MEUR: 175.622538723; Category5: 2.Line Benefits - 2.NN_OC_fy_1" role="graphics-symbol" aria-roledescription="point" transform="translate(570,212.58204255340732)" d="M2.739,0A2.739,2.739,0,1,1,-2.739,0A2.739,2.739,0,1,1,2.739,0" fill="#e45756" stroke-width="2" opacity="1"/><path aria-label="Number of Clusters: 20; MEUR: 175.585806974; Category5: 2.Line Benefits - 2.NN_OC_fy_1" role="graphics-symbol" aria-roledescription="point" transform="translate(90,213.80643420721506)" d="M2.739,0A2.739,2.739,0,1,1,-2.739,0A2.739,2.739,0,1,1,2.739,0" fill="#e45756" stroke-width="2" opacity="1"/><path aria-label="Number of Clusters: 30; MEUR: 173.553979379; Category5: 2.Line Benefits - 2.NN_OC_fy_1" role="graphics-symbol" aria-roledescription="point" transform="translate(150,281.5340206961186)" d="M2.739,0A2.739,2.739,0,1,1,-2.739,0A2.739,2.739,0,1,1,2.739,0" fill="#e45756" stroke-width="2" opacity="1"/><path aria-label="Number of Clusters: 40; MEUR: 176.211514136; Category5: 2.Line Benefits - 2.NN_OC_fy_1" role="graphics-symbol" aria-roledescription="point" transform="translate(210,192.94952881046754)" d="M2.739,0A2.739,2.739,0,1,1,-2.739,0A2.739,2.739,0,1,1,2.739,0" fill="#e45756" stroke-width="2" opacity="1"/><path aria-label="Number of Clusters: 50; MEUR: 175.072722771; Category5: 2.Line Benefits - 2.NN_OC_fy_1" role="graphics-symbol" aria-roledescription="point" transform="translate(270,230.9092409554078)" d="M2.739,0A2.739,2.739,0,1,1,-2.739,0A2.739,2.739,0,1,1,2.739,0" fill="#e45756" stroke-width="2" opacity="1"/><path aria-label="Number of Clusters: 60; MEUR: 175.580513553; Category5: 2.Line Benefits - 2.NN_OC_fy_1" role="graphics-symbol" aria-roledescription="point" transform="translate(330,213.98288155284322)" d="M2.739,0A2.739,2.739,0,1,1,-2.739,0A2.739,2.739,0,1,1,2.739,0" fill="#e45756" stroke-width="2" opacity="1"/><path aria-label="Number of Clusters: 70; MEUR: 175.21035427; Category5: 2.Line Benefits - 2.NN_OC_fy_1" role="graphics-symbol" aria-roledescription="point" transform="translate(390,226.32152433029944)" d="M2.739,0A2.739,2.739,0,1,1,-2.739,0A2.739,2.739,0,1,1,2.739,0" fill="#e45756" stroke-width="2" opacity="1"/><path aria-label="Number of Clusters: 80; MEUR: 175.070933917; Category5: 2.Line Benefits - 2.NN_OC_fy_1" role="graphics-symbol" aria-roledescription="point" transform="translate(450,230.9688694186112)" d="M2.739,0A2.739,2.739,0,1,1,-2.739,0A2.739,2.739,0,1,1,2.739,0" fill="#e45756" stroke-width="2" opacity="1"/><path aria-label="Number of Clusters: 90; MEUR: 175.6242873; Category5: 2.Line Benefits - 2.NN_OC_fy_1" role="graphics-symbol" aria-roledescription="point" transform="translate(510,212.5237566557094)" d="M2.739,0A2.739,2.739,0,1,1,-2.739,0A2.739,2.739,0,1,1,2.739,0" fill="#e45756" stroke-width="2" opacity="1"/><path aria-label="Number of Clusters: 10; MEUR: 176.790085728; Category5: 2.Line Benefits - 3.NN_OC_fy_2" role="graphics-symbol" aria-roledescription="point" transform="translate(30,173.66380905647625)" d="M2.739,0A2.739,2.739,0,1,1,-2.739,0A2.739,2.739,0,1,1,2.739,0" fill="#72b7b2" stroke-width="2" opacity="1"/><path aria-label="Number of Clusters: 100; MEUR: 175.946074478; Category5: 2.Line Benefits - 3.NN_OC_fy_2" role="graphics-symbol" aria-roledescription="point" transform="translate(570,201.7975173987907)" d="M2.739,0A2.739,2.739,0,1,1,-2.739,0A2.739,2.739,0,1,1,2.739,0" fill="#72b7b2" stroke-width="2" opacity="1"/><path aria-label="Number of Clusters: 20; MEUR: 175.98773239; Category5: 2.Line Benefits - 3.NN_OC_fy_2" role="graphics-symbol" aria-roledescription="point" transform="translate(90,200.40892033215133)" d="M2.739,0A2.739,2.739,0,1,1,-2.739,0A2.739,2.739,0,1,1,2.739,0" fill="#72b7b2" stroke-width="2" opacity="1"/><path aria-label="Number of Clusters: 30; MEUR: 178.119143935; Category5: 2.Line Benefits - 3.NN_OC_fy_2" role="graphics-symbol" aria-roledescription="point" transform="translate(150,129.36186882483676)" d="M2.739,0A2.739,2.739,0,1,1,-2.739,0A2.739,2.739,0,1,1,2.739,0" fill="#72b7b2" stroke-width="2" opacity="1"/><path aria-label="Number of Clusters: 40; MEUR: 175.833734382; Category5: 2.Line Benefits - 3.NN_OC_fy_2" role="graphics-symbol" aria-roledescription="point" transform="translate(210,205.5421872784649)" d="M2.739,0A2.739,2.739,0,1,1,-2.739,0A2.739,2.739,0,1,1,2.739,0" fill="#72b7b2" stroke-width="2" opacity="1"/><path aria-label="Number of Clusters: 50; MEUR: 176.078547814; Category5: 2.Line Benefits - 3.NN_OC_fy_2" role="graphics-symbol" aria-roledescription="point" transform="translate(270,197.38173952634287)" d="M2.739,0A2.739,2.739,0,1,1,-2.739,0A2.739,2.739,0,1,1,2.739,0" fill="#72b7b2" stroke-width="2" opacity="1"/><path aria-label="Number of Clusters: 60; MEUR: 176.053924116; Category5: 2.Line Benefits - 3.NN_OC_fy_2" role="graphics-symbol" aria-roledescription="point" transform="translate(330,198.20252947087337)" d="M2.739,0A2.739,2.739,0,1,1,-2.739,0A2.739,2.739,0,1,1,2.739,0" fill="#72b7b2" stroke-width="2" opacity="1"/><path aria-label="Number of Clusters: 70; MEUR: 176.213628578; Category5: 2.Line Benefits - 3.NN_OC_fy_2" role="graphics-symbol" aria-roledescription="point" transform="translate(390,192.8790474156775)" d="M2.739,0A2.739,2.739,0,1,1,-2.739,0A2.739,2.739,0,1,1,2.739,0" fill="#72b7b2" stroke-width="2" opacity="1"/><path aria-label="Number of Clusters: 80; MEUR: 175.246584653; Category5: 2.Line Benefits - 3.NN_OC_fy_2" role="graphics-symbol" aria-roledescription="point" transform="translate(450,225.1138448850109)" d="M2.739,0A2.739,2.739,0,1,1,-2.739,0A2.739,2.739,0,1,1,2.739,0" fill="#72b7b2" stroke-width="2" opacity="1"/><path aria-label="Number of Clusters: 90; MEUR: 175.599165967; Category5: 2.Line Benefits - 3.NN_OC_fy_2" role="graphics-symbol" aria-roledescription="point" transform="translate(510,213.3611344224884)" d="M2.739,0A2.739,2.739,0,1,1,-2.739,0A2.739,2.739,0,1,1,2.739,0" fill="#72b7b2" stroke-width="2" opacity="1"/><path aria-label="Number of Clusters: 10; MEUR: 174.853117413; Category5: 2.Line Benefits - 4.NN_OC_fy_3" role="graphics-symbol" aria-roledescription="point" transform="translate(30,238.22941957801524)" d="M2.739,0A2.739,2.739,0,1,1,-2.739,0A2.739,2.739,0,1,1,2.739,0" fill="#54a24b" stroke-width="2" opacity="1"/><path aria-label="Number of Clusters: 100; MEUR: 174.478424304; Category5: 2.Line Benefits - 4.NN_OC_fy_3" role="graphics-symbol" aria-roledescription="point" transform="translate(570,250.71918988108828)" d="M2.739,0A2.739,2.739,0,1,1,-2.739,0A2.739,2.739,0,1,1,2.739,0" fill="#54a24b" stroke-width="2" opacity="1"/><path aria-label="Number of Clusters: 20; MEUR: 173.653293356; Category5: 2.Line Benefits - 4.NN_OC_fy_3" role="graphics-symbol" aria-roledescription="point" transform="translate(90,278.223554801653)" d="M2.739,0A2.739,2.739,0,1,1,-2.739,0A2.739,2.739,0,1,1,2.739,0" fill="#54a24b" stroke-width="2" opacity="1"/><path aria-label="Number of Clusters: 30; MEUR: 174.389909418; Category5: 2.Line Benefits - 4.NN_OC_fy_3" role="graphics-symbol" aria-roledescription="point" transform="translate(150,253.66968607437647)" d="M2.739,0A2.739,2.739,0,1,1,-2.739,0A2.739,2.739,0,1,1,2.739,0" fill="#54a24b" stroke-width="2" opacity="1"/><path aria-label="Number of Clusters: 40; MEUR: 176.779046383; Category5: 2.Line Benefits - 4.NN_OC_fy_3" role="graphics-symbol" aria-roledescription="point" transform="translate(210,174.03178723177555)" d="M2.739,0A2.739,2.739,0,1,1,-2.739,0A2.739,2.739,0,1,1,2.739,0" fill="#54a24b" stroke-width="2" opacity="1"/><path aria-label="Number of Clusters: 50; MEUR: 174.870365604; Category5: 2.Line Benefits - 4.NN_OC_fy_3" role="graphics-symbol" aria-roledescription="point" transform="translate(270,237.65447985961808)" d="M2.739,0A2.739,2.739,0,1,1,-2.739,0A2.739,2.739,0,1,1,2.739,0" fill="#54a24b" stroke-width="2" opacity="1"/><path aria-label="Number of Clusters: 60; MEUR: 175.836855655; Category5: 2.Line Benefits - 4.NN_OC_fy_3" role="graphics-symbol" aria-roledescription="point" transform="translate(330,205.43814481686977)" d="M2.739,0A2.739,2.739,0,1,1,-2.739,0A2.739,2.739,0,1,1,2.739,0" fill="#54a24b" stroke-width="2" opacity="1"/><path aria-label="Number of Clusters: 70; MEUR: 176.873679255; Category5: 2.Line Benefits - 4.NN_OC_fy_3" role="graphics-symbol" aria-roledescription="point" transform="translate(390,170.87735815489867)" d="M2.739,0A2.739,2.739,0,1,1,-2.739,0A2.739,2.739,0,1,1,2.739,0" fill="#54a24b" stroke-width="2" opacity="1"/><path aria-label="Number of Clusters: 80; MEUR: 178.123308469; Category5: 2.Line Benefits - 4.NN_OC_fy_3" role="graphics-symbol" aria-roledescription="point" transform="translate(450,129.22305103474986)" d="M2.739,0A2.739,2.739,0,1,1,-2.739,0A2.739,2.739,0,1,1,2.739,0" fill="#54a24b" stroke-width="2" opacity="1"/><path aria-label="Number of Clusters: 90; MEUR: 175.475411224; Category5: 2.Line Benefits - 4.NN_OC_fy_3" role="graphics-symbol" aria-roledescription="point" transform="translate(510,217.48629254197738)" d="M2.739,0A2.739,2.739,0,1,1,-2.739,0A2.739,2.739,0,1,1,2.739,0" fill="#54a24b" stroke-width="2" opacity="1"/><path aria-label="Number of Clusters: 10; MEUR: 178.7635853; Category5: 2.Line Benefits - 5.NN_OC_fy_4" role="graphics-symbol" aria-roledescription="point" transform="translate(30,107.88049000009038)" d="M2.739,0A2.739,2.739,0,1,1,-2.739,0A2.739,2.739,0,1,1,2.739,0" fill="#eeca3b" stroke-width="2" opacity="1"/><path aria-label="Number of Clusters: 100; MEUR: 175.488682323; Category5: 2.Line Benefits - 5.NN_OC_fy_4" role="graphics-symbol" aria-roledescription="point" transform="translate(570,217.04392256618706)" d="M2.739,0A2.739,2.739,0,1,1,-2.739,0A2.739,2.739,0,1,1,2.739,0" fill="#eeca3b" stroke-width="2" opacity="1"/><path aria-label="Number of Clusters: 20; MEUR: 176.283680788; Category5: 2.Line Benefits - 5.NN_OC_fy_4" role="graphics-symbol" aria-roledescription="point" transform="translate(90,190.54397372017795)" d="M2.739,0A2.739,2.739,0,1,1,-2.739,0A2.739,2.739,0,1,1,2.739,0" fill="#eeca3b" stroke-width="2" opacity="1"/><path aria-label="Number of Clusters: 30; MEUR: 175.748302977; Category5: 2.Line Benefits - 5.NN_OC_fy_4" role="graphics-symbol" aria-roledescription="point" transform="translate(150,208.38990076778904)" d="M2.739,0A2.739,2.739,0,1,1,-2.739,0A2.739,2.739,0,1,1,2.739,0" fill="#eeca3b" stroke-width="2" opacity="1"/><path aria-label="Number of Clusters: 40; MEUR: 175.885680287; Category5: 2.Line Benefits - 5.NN_OC_fy_4" role="graphics-symbol" aria-roledescription="point" transform="translate(210,203.81065709370412)" d="M2.739,0A2.739,2.739,0,1,1,-2.739,0A2.739,2.739,0,1,1,2.739,0" fill="#eeca3b" stroke-width="2" opacity="1"/><path aria-label="Number of Clusters: 50; MEUR: 175.291150279; Category5: 2.Line Benefits - 5.NN_OC_fy_4" role="graphics-symbol" aria-roledescription="point" transform="translate(270,223.62832403909655)" d="M2.739,0A2.739,2.739,0,1,1,-2.739,0A2.739,2.739,0,1,1,2.739,0" fill="#eeca3b" stroke-width="2" opacity="1"/><path aria-label="Number of Clusters: 60; MEUR: 174.611444844; Category5: 2.Line Benefits - 5.NN_OC_fy_4" role="graphics-symbol" aria-roledescription="point" transform="translate(330,246.28517187873817)" d="M2.739,0A2.739,2.739,0,1,1,-2.739,0A2.739,2.739,0,1,1,2.739,0" fill="#eeca3b" stroke-width="2" opacity="1"/><path aria-label="Number of Clusters: 70; MEUR: 174.801135092; Category5: 2.Line Benefits - 5.NN_OC_fy_4" role="graphics-symbol" aria-roledescription="point" transform="translate(390,239.9621635909322)" d="M2.739,0A2.739,2.739,0,1,1,-2.739,0A2.739,2.739,0,1,1,2.739,0" fill="#eeca3b" stroke-width="2" opacity="1"/><path aria-label="Number of Clusters: 80; MEUR: 175.015176288; Category5: 2.Line Benefits - 5.NN_OC_fy_4" role="graphics-symbol" aria-roledescription="point" transform="translate(450,232.82745705505192)" d="M2.739,0A2.739,2.739,0,1,1,-2.739,0A2.739,2.739,0,1,1,2.739,0" fill="#eeca3b" stroke-width="2" opacity="1"/><path aria-label="Number of Clusters: 90; MEUR: 175.731638062; Category5: 2.Line Benefits - 5.NN_OC_fy_4" role="graphics-symbol" aria-roledescription="point" transform="translate(510,208.94539794229271)" d="M2.739,0A2.739,2.739,0,1,1,-2.739,0A2.739,2.739,0,1,1,2.739,0" fill="#eeca3b" stroke-width="2" opacity="1"/></g><g class="mark-rule role-mark layer_1_marks" role="graphics-object" aria-roledescription="rule mark container"><line aria-label="-: 174.568533343" role="graphics-symbol" aria-roledescription="rule mark" transform="translate(600,247.71555523383313)" x2="-600" y2="0" stroke="black"/></g><g class="mark-group role-legend" role="graphics-symbol" aria-roledescription="legend" aria-label="Symbol legend for fill color and stroke color with 6 values: 1.RES and Demand - 1.OptModel, 2.Line Benefits - 1.OptModel, 2.Line Benefits - 2.NN_OC_fy_1, 2.Line Benefits - 3.NN_OC_fy_2, 2.Line Benefits - 4.NN_OC_fy_3, 2.Line Benefits - 5.NN_OC_fy_4"><g transform="translate(618,0)"><path class="background" aria-hidden="true" d="M0,0h166v93h-166Z" pointer-events="none"/><g><g class="mark-group role-legend-entry"><g transform="translate(0,0)"><path class="background" aria-hidden="true" d="M0,0h0v0h0Z" pointer-events="none"/><g><g class="mark-group role-scope" role="graphics-object" aria-roledescription="group mark container"><g transform="translate(0,0)"><path class="background" aria-hidden="true" d="M0,0h165.521484375v12.5h-165.521484375Z" pointer-events="none" opacity="1"/><g><g class="mark-symbol role-legend-symbol" pointer-events="none"><path transform="translate(6,6)" d="M5,0A5,5,0,1,1,-5,0A5,5,0,1,1,5,0" fill="#4c78a8" stroke="#4c78a8" stroke-width="1.5" opacity="1"/></g><g class="mark-text role-legend-label" pointer-events="none"><text text-anchor="start" transform="translate(16,9)" font-family="sans-serif" font-size="10px" fill="#000" opacity="1">1.RES and Demand - 1.OptModel</text></g></g><path class="foreground" aria-hidden="true" d="" pointer-events="none" display="none"/></g><g transform="translate(0,16)"><path class="background" aria-hidden="true" d="M0,0h165.521484375v12.5h-165.521484375Z" pointer-events="none" opacity="1"/><g><g class="mark-symbol role-legend-symbol" pointer-events="none"><path transform="translate(6,6)" d="M5,0A5,5,0,1,1,-5,0A5,5,0,1,1,5,0" fill="#f58518" stroke="#f58518" stroke-width="1.5" opacity="1"/></g><g class="mark-text role-legend-label" pointer-events="none"><text text-anchor="start" transform="translate(16,9)" font-family="sans-serif" font-size="10px" fill="#000" opacity="1">2.Line Benefits - 1.OptModel</text></g></g><path class="foreground" aria-hidden="true" d="" pointer-events="none" display="none"/></g><g transform="translate(0,32)"><path class="background" aria-hidden="true" d="M0,0h165.521484375v12.5h-165.521484375Z" pointer-events="none" opacity="1"/><g><g class="mark-symbol role-legend-symbol" pointer-events="none"><path transform="translate(6,6)" d="M5,0A5,5,0,1,1,-5,0A5,5,0,1,1,5,0" fill="#e45756" stroke="#e45756" stroke-width="1.5" opacity="1"/></g><g class="mark-text role-legend-label" pointer-events="none"><text text-anchor="start" transform="translate(16,9)" font-family="sans-serif" font-size="10px" fill="#000" opacity="1">2.Line Benefits - 2.NN_OC_fy_1</text></g></g><path class="foreground" aria-hidden="true" d="" pointer-events="none" display="none"/></g><g transform="translate(0,48)"><path class="background" aria-hidden="true" d="M0,0h165.521484375v12.5h-165.521484375Z" pointer-events="none" opacity="1"/><g><g class="mark-symbol role-legend-symbol" pointer-events="none"><path transform="translate(6,6)" d="M5,0A5,5,0,1,1,-5,0A5,5,0,1,1,5,0" fill="#72b7b2" stroke="#72b7b2" stroke-width="1.5" opacity="1"/></g><g class="mark-text role-legend-label" pointer-events="none"><text text-anchor="start" transform="translate(16,9)" font-family="sans-serif" font-size="10px" fill="#000" opacity="1">2.Line Benefits - 3.NN_OC_fy_2</text></g></g><path class="foreground" aria-hidden="true" d="" pointer-events="none" display="none"/></g><g transform="translate(0,64)"><path class="background" aria-hidden="true" d="M0,0h165.521484375v12.5h-165.521484375Z" pointer-events="none" opacity="1"/><g><g class="mark-symbol role-legend-symbol" pointer-events="none"><path transform="translate(6,6)" d="M5,0A5,5,0,1,1,-5,0A5,5,0,1,1,5,0" fill="#54a24b" stroke="#54a24b" stroke-width="1.5" opacity="1"/></g><g class="mark-text role-legend-label" pointer-events="none"><text text-anchor="start" transform="translate(16,9)" font-family="sans-serif" font-size="10px" fill="#000" opacity="1">2.Line Benefits - 4.NN_OC_fy_3</text></g></g><path class="foreground" aria-hidden="true" d="" pointer-events="none" display="none"/></g><g transform="translate(0,80)"><path class="background" aria-hidden="true" d="M0,0h165.521484375v12.5h-165.521484375Z" pointer-events="none" opacity="1"/><g><g class="mark-symbol role-legend-symbol" pointer-events="none"><path transform="translate(6,6)" d="M5,0A5,5,0,1,1,-5,0A5,5,0,1,1,5,0" fill="#eeca3b" stroke="#eeca3b" stroke-width="1.5" opacity="1"/></g><g class="mark-text role-legend-label" pointer-events="none"><text text-anchor="start" transform="translate(16,9)" font-family="sans-serif" font-size="10px" fill="#000" opacity="1">2.Line Benefits - 5.NN_OC_fy_4</text></g></g><path class="foreground" aria-hidden="true" d="" pointer-events="none" display="none"/></g></g></g><path class="foreground" aria-hidden="true" d="" pointer-events="none" display="none"/></g></g></g><path class="foreground" aria-hidden="true" d="" pointer-events="none" display="none"/></g></g></g><path class="foreground" aria-hidden="true" d="" display="none"/></g></g></g></svg>