<svg xmlns="http://www.w3.org/2000/svg" xmlns:xlink="http://www.w3.org/1999/xlink" version="1.1" class="marks" width="650" height="354" viewBox="0 0 650 354"><rect width="650" height="354" fill="white"/><g fill="none" stroke-miterlimit="10" transform="translate(44,10)"><g class="mark-group role-frame root" role="graphics-object" aria-roledescription="group mark container"><g transform="translate(0,0)"><path class="background" aria-hidden="true" d="M0.5,0.5h600v300h-600Z" stroke="#ddd"/><g><g class="mark-group role-axis" aria-hidden="true"><g transform="translate(0.5,0.5)"><path class="background" aria-hidden="true" d="M0,0h0v0h0Z" pointer-events="none"/><g><g class="mark-rule role-axis-grid" pointer-events="none"><line transform="translate(0,300)" x2="600" y2="0" stroke="#ddd" stroke-width="1" opacity="1"/><line transform="translate(0,257)" x2="600" y2="0" stroke="#ddd" stroke-width="1" opacity="1"/><line transform="translate(0,214)" x2="600" y2="0" stroke="#ddd" stroke-width="1" opacity="1"/><line transform="translate(0,171)" x2="600" y2="0" stroke="#ddd" stroke-width="1" opacity="1"/><line transform="translate(0,129)" x2="600" y2="0" stroke="#ddd" stroke-width="1" opacity="1"/><line transform="translate(0,86)" x2="600" y2="0" stroke="#ddd" stroke-width="1" opacity="1"/><line transform="translate(0,43)" x2="600" y2="0" stroke="#ddd" stroke-width="1" opacity="1"/><line transform="translate(0,0)" x2="600" y2="0" stroke="#ddd" stroke-width="1" opacity="1"/></g></g><path class="foreground" aria-hidden="true" d="" pointer-events="none" display="none"/></g></g><g class="mark-group role-axis" role="graphics-symbol" aria-roledescription="axis" aria-label="X-axis titled 'Number of Clusters' for a discrete scale with 10 values: 10, 20, 30, 40, 50, ending with 100"><g transform="translate(0.5,300.5)"><path class="background" aria-hidden="true" d="M0,0h0v0h0Z" pointer-events="none"/><g><g class="mark-rule role-axis-tick" pointer-events="none"><line transform="translate(30,0)" x2="0" y2="5" stroke="#888" stroke-width="1" opacity="1"/><line transform="translate(90,0)" x2="0" y2="5" stroke="#888" stroke-width="1" opacity="1"/><line transform="translate(150,0)" x2="0" y2="5" stroke="#888" stroke-width="1" opacity="1"/><line transform="translate(210,0)" x2="0" y2="5" stroke="#888" stroke-width="1" opacity="1"/><line transform="translate(270,0)" x2="0" y2="5" stroke="#888" stroke-width="1" opacity="1"/><line transform="translate(330,0)" x2="0" y2="5" stroke="#888" stroke-width="1" opacity="1"/><line transform="translate(390,0)" x2="0" y2="5" stroke="#888" stroke-width="1" opacity="1"/><line transform="translate(450,0)" x2="0" y2="5" stroke="#888" stroke-width="1" opacity="1"/><line transform="translate(510,0)" x2="0" y2="5" stroke="#888" stroke-width="1" opacity="1"/><line transform="translate(570,0)" x2="0" y2="5" stroke="#888" stroke-width="1" opacity="1"/></g><g class="mark-text role-axis-label" pointer-events="none"><text text-anchor="end" transform="translate(30,7) rotate(270) translate(0,3)" font-family="sans-serif" font-size="10px" fill="#000" opacity="1">10</text><text text-anchor="end" transform="translate(90,7) rotate(270) translate(0,3)" font-family="sans-serif" font-size="10px" fill="#000" opacity="1">20</text><text text-anchor="end" transform="translate(150,7) rotate(270) translate(0,3)" font-family="sans-serif" font-size="10px" fill="#000" opacity="1">30</text><text text-anchor="end" transform="translate(210,7) rotate(270) translate(0,3)" font-family="sans-serif" font-size="10px" fill="#000" opacity="1">40</text><text text-anchor="end" transform="translate(270,7) rotate(270) translate(0,3)" font-family="sans-serif" font-size="10px" fill="#000" opacity="1">50</text><text text-anchor="end" transform="translate(330,7) rotate(270) translate(0,3)" font-family="sans-serif" font-size="10px" fill="#000" opacity="1">60</text><text text-anchor="end" transform="translate(390,7) rotate(270) translate(0,3)" font-family="sans-serif" font-size="10px" fill="#000" opacity="1">70</text><text text-anchor="end" transform="translate(450,7) rotate(270) translate(0,3)" font-family="sans-serif" font-size="10px" fill="#000" opacity="1">80</text><text text-anchor="end" transform="translate(510,7) rotate(270) translate(0,3)" font-family="sans-serif" font-size="10px" fill="#000" opacity="1">90</text><text text-anchor="end" transform="translate(570,7) rotate(270) translate(0,3)" font-family="sans-serif" font-size="10px" fill="#000" opacity="1">100</text></g><g class="mark-rule role-axis-domain" pointer-events="none"><line transform="translate(0,0)" x2="600" y2="0" stroke="#888" stroke-width="1" opacity="1"/></g><g class="mark-text role-axis-title" pointer-events="none"><text text-anchor="middle" transform="translate(300,36.6845703125)" font-family="sans-serif" font-size="11px" font-weight="bold" fill="#000" opacity="1">Number of Clusters</text></g></g><path class="foreground" aria-hidden="true" d="" pointer-events="none" display="none"/></g></g><g class="mark-group role-axis" role="graphics-symbol" aria-roledescription="axis" aria-label="Y-axis titled 'MEUR, -' for a linear scale with values from 200 to 550"><g transform="translate(0.5,0.5)"><path class="background" aria-hidden="true" d="M0,0h0v0h0Z" pointer-events="none"/><g><g class="mark-rule role-axis-tick" pointer-events="none"><line transform="translate(0,300)" x2="-5" y2="0" stroke="#888" stroke-width="1" opacity="1"/><line transform="translate(0,257)" x2="-5" y2="0" stroke="#888" stroke-width="1" opacity="1"/><line transform="translate(0,214)" x2="-5" y2="0" stroke="#888" stroke-width="1" opacity="1"/><line transform="translate(0,171)" x2="-5" y2="0" stroke="#888" stroke-width="1" opacity="1"/><line transform="translate(0,129)" x2="-5" y2="0" stroke="#888" stroke-width="1" opacity="1"/><line transform="translate(0,86)" x2="-5" y2="0" stroke="#888" stroke-width="1" opacity="1"/><line transform="translate(0,43)" x2="-5" y2="0" stroke="#888" stroke-width="1" opacity="1"/><line transform="translate(0,0)" x2="-5" y2="0" stroke="#888" stroke-width="1" opacity="1"/></g><g class="mark-text role-axis-label" pointer-events="none"><text text-anchor="end" transform="translate(-7,303)" font-family="sans-serif" font-size="10px" fill="#000" opacity="1">200</text><text text-anchor="end" transform="translate(-7,260.14285714285717)" font-family="sans-serif" font-size="10px" fill="#000" opacity="1">250</text><text text-anchor="end" transform="translate(-7,217.28571428571428)" font-family="sans-serif" font-size="10px" fill="#000" opacity="1">300</text><text text-anchor="end" transform="translate(-7,174.42857142857142)" font-family="sans-serif" font-size="10px" fill="#000" opacity="1">350</text><text text-anchor="end" transform="translate(-7,131.57142857142858)" font-family="sans-serif" font-size="10px" fill="#000" opacity="1">400</text><text text-anchor="end" transform="translate(-7,88.71428571428571)" font-family="sans-serif" font-size="10px" fill="#000" opacity="1">450</text><text text-anchor="end" transform="translate(-7,45.85714285714287)" font-family="sans-serif" font-size="10px" fill="#000" opacity="1">500</text><text text-anchor="end" transform="translate(-7,3)" font-family="sans-serif" font-size="10px" fill="#000" opacity="1">550</text></g><g class="mark-rule role-axis-domain" pointer-events="none"><line transform="translate(0,300)" x2="0" y2="-300" stroke="#888" stroke-width="1" opacity="1"/></g><g class="mark-text role-axis-title" pointer-events="none"><text text-anchor="middle" transform="translate(-27.6845703125,150) rotate(-90) translate(0,-2)" font-family="sans-serif" font-size="11px" font-weight="bold" fill="#000" opacity="1">MEUR, -</text></g></g><path class="foreground" aria-hidden="true" d="" pointer-events="none" display="none"/></g></g><g class="mark-group role-scope layer_0_layer_0_pathgroup" role="graphics-object" aria-roledescription="group mark container"><g transform="translate(0,0)"><path class="background" aria-hidden="true" d="M0,0h600v300h-600Z"/><g><g class="mark-line role-mark layer_0_layer_0_marks" role="graphics-object" aria-roledescription="line mark container"><path aria-label="Number of Clusters: 10; MEUR: 434.478357912; Category5: 1.RES and Demand - 1.OptModel" role="graphics-symbol" aria-roledescription="line mark" d="M30,99.019L90,124.859L150,112.102L210,112.612L270,114.743L330,113.654L390,114.963L450,112.412L510,118.823L570,116.104" stroke="#4c78a8" stroke-width="2"/></g></g><path class="foreground" aria-hidden="true" d="" display="none"/></g><g transform="translate(0,0)"><path class="background" aria-hidden="true" d="M0,0h600v300h-600Z"/><g><g class="mark-line role-mark layer_0_layer_0_marks" role="graphics-object" aria-roledescription="line mark container"><path aria-label="Number of Clusters: 10; MEUR: 412.0649858; Category5: 2.Line Benefits - 1.OptModel" role="graphics-symbol" aria-roledescription="line mark" d="M30,118.23L90,113.78L150,115.258L210,115.9L270,114.954L330,115.506L390,114.992L450,116.765L510,286.872L570,284.152" stroke="#f58518" stroke-width="2"/></g></g><path class="foreground" aria-hidden="true" d="" display="none"/></g><g transform="translate(0,0)"><path class="background" aria-hidden="true" d="M0,0h600v300h-600Z"/><g><g class="mark-line role-mark layer_0_layer_0_marks" role="graphics-object" aria-roledescription="line mark container"><path aria-label="Number of Clusters: 10; MEUR: 384.776920875; Category5: 2.Line Benefits - 2.NN_OC_fy_1" role="graphics-symbol" aria-roledescription="line mark" d="M30,141.62L90,121.236L150,125.833L210,115.668L270,97.544L330,108.015L390,112.559L450,104.169L510,106.116L570,107.661" stroke="#e45756" stroke-width="2"/></g></g><path class="foreground" aria-hidden="true" d="" display="none"/></g><g transform="translate(0,0)"><path class="background" aria-hidden="true" d="M0,0h600v300h-600Z"/><g><g class="mark-line role-mark layer_0_layer_0_marks" role="graphics-object" aria-roledescription="line mark container"><path aria-label="Number of Clusters: 10; MEUR: 460.116847114; Category5: 2.Line Benefits - 3.NN_OC_fy_2" role="graphics-symbol" aria-roledescription="line mark" d="M30,77.043L90,86.275L150,107.772L210,105.214L270,75.012L330,103.3L390,79.356L450,81.772L510,100.223L570,111.928" stroke="#72b7b2" stroke-width="2"/></g></g><path class="foreground" aria-hidden="true" d="" display="none"/></g><g transform="translate(0,0)"><path class="background" aria-hidden="true" d="M0,0h600v300h-600Z"/><g><g class="mark-line role-mark layer_0_layer_0_marks" role="graphics-object" aria-roledescription="line mark container"><path aria-label="Number of Clusters: 10; MEUR: 486.854284582; Category5: 2.Line Benefits - 4.NN_OC_fy_3" role="graphics-symbol" aria-roledescription="line mark" d="M30,54.125L90,83.283L150,85.811L210,102.17L270,55.92L330,79.042L390,100.265L450,106.198L510,102.687L570,63.149" stroke="#54a24b" stroke-width="2"/></g></g><path class="foreground" aria-hidden="true" d="" display="none"/></g><g transform="translate(0,0)"><path class="background" aria-hidden="true" d="M0,0h600v300h-600Z"/><g><g class="mark-line role-mark layer_0_layer_0_marks" role="graphics-object" aria-roledescription="line mark container"><path aria-label="Number of Clusters: 10; MEUR: 495.002511479; Category5: 2.Line Benefits - 5.NN_OC_fy_4" role="graphics-symbol" aria-roledescription="line mark" d="M30,47.141L90,33.196L150,58.085L210,63.894L270,37.041L330,61.959L390,51.59L450,84.793L510,52.404L570,45.172" stroke="#eeca3b" stroke-width="2"/></g></g><path class="foreground" aria-hidden="true" d="" display="none"/></g></g><g class="mark-symbol role-mark layer_0_layer_1_marks" role="graphics-object" aria-roledescription="symbol mark container"><path aria-label="Number of Clusters: 10; MEUR: 434.478357912; Category5: 1.RES and Demand - 1.OptModel" role="graphics-symbol" aria-roledescription="point" transform="translate(30,99.01855036082328)" d="M2.739,0A2.739,2.739,0,1,1,-2.739,0A2.739,2.739,0,1,1,2.739,0" fill="#4c78a8" stroke-width="2" opacity="1"/><path aria-label="Number of Clusters: 100; MEUR: 414.545812934; Category5: 1.RES and Demand - 1.OptModel" role="graphics-symbol" aria-roledescription="point" transform="translate(570,116.1035889135361)" d="M2.739,0A2.739,2.739,0,1,1,-2.739,0A2.739,2.739,0,1,1,2.739,0" fill="#4c78a8" stroke-width="2" opacity="1"/><path aria-label="Number of Clusters: 20; MEUR: 404.331589939; Category5: 1.RES and Demand - 1.OptModel" role="graphics-symbol" aria-roledescription="point" transform="translate(90,124.85863719492129)" d="M2.739,0A2.739,2.739,0,1,1,-2.739,0A2.739,2.739,0,1,1,2.739,0" fill="#4c78a8" stroke-width="2" opacity="1"/><path aria-label="Number of Clusters: 30; MEUR: 419.213927813; Category5: 1.RES and Demand - 1.OptModel" role="graphics-symbol" aria-roledescription="point" transform="translate(150,112.10234758861056)" d="M2.739,0A2.739,2.739,0,1,1,-2.739,0A2.739,2.739,0,1,1,2.739,0" fill="#4c78a8" stroke-width="2" opacity="1"/><path aria-label="Number of Clusters: 40; MEUR: 418.619620386; Category5: 1.RES and Demand - 1.OptModel" role="graphics-symbol" aria-roledescription="point" transform="translate(210,112.61175395525599)" d="M2.739,0A2.739,2.739,0,1,1,-2.739,0A2.739,2.739,0,1,1,2.739,0" fill="#4c78a8" stroke-width="2" opacity="1"/><path aria-label="Number of Clusters: 50; MEUR: 416.133085214; Category5: 1.RES and Demand - 1.OptModel" role="graphics-symbol" aria-roledescription="point" transform="translate(270,114.74306981648503)" d="M2.739,0A2.739,2.739,0,1,1,-2.739,0A2.739,2.739,0,1,1,2.739,0" fill="#4c78a8" stroke-width="2" opacity="1"/><path aria-label="Number of Clusters: 60; MEUR: 417.403665216; Category5: 1.RES and Demand - 1.OptModel" role="graphics-symbol" aria-roledescription="point" transform="translate(330,113.65400124356958)" d="M2.739,0A2.739,2.739,0,1,1,-2.739,0A2.739,2.739,0,1,1,2.739,0" fill="#4c78a8" stroke-width="2" opacity="1"/><path aria-label="Number of Clusters: 70; MEUR: 415.876746949; Category5: 1.RES and Demand - 1.OptModel" role="graphics-symbol" aria-roledescription="point" transform="translate(390,114.96278832913934)" d="M2.739,0A2.739,2.739,0,1,1,-2.739,0A2.739,2.739,0,1,1,2.739,0" fill="#4c78a8" stroke-width="2" opacity="1"/><path aria-label="Number of Clusters: 80; MEUR: 418.85236512; Category5: 1.RES and Demand - 1.OptModel" role="graphics-symbol" aria-roledescription="point" transform="translate(450,112.41225846835357)" d="M2.739,0A2.739,2.739,0,1,1,-2.739,0A2.739,2.739,0,1,1,2.739,0" fill="#4c78a8" stroke-width="2" opacity="1"/><path aria-label="Number of Clusters: 90; MEUR: 411.373015065; Category5: 1.RES and Demand - 1.OptModel" role="graphics-symbol" aria-roledescription="point" transform="translate(510,118.8231299439768)" d="M2.739,0A2.739,2.739,0,1,1,-2.739,0A2.739,2.739,0,1,1,2.739,0" fill="#4c78a8" stroke-width="2" opacity="1"/><path aria-label="Number of Clusters: 10; MEUR: 412.0649858; Category5: 2.Line Benefits - 1.OptModel" role="graphics-symbol" aria-roledescription="point" transform="translate(30,118.23001217142857)" d="M2.739,0A2.739,2.739,0,1,1,-2.739,0A2.739,2.739,0,1,1,2.739,0" fill="#f58518" stroke-width="2" opacity="1"/><path aria-label="Number of Clusters: 100; MEUR: 218.489475487; Category5: 2.Line Benefits - 1.OptModel" role="graphics-symbol" aria-roledescription="point" transform="translate(570,284.15187815431403)" d="M2.739,0A2.739,2.739,0,1,1,-2.739,0A2.739,2.739,0,1,1,2.739,0" fill="#f58518" stroke-width="2" opacity="1"/><path aria-label="Number of Clusters: 20; MEUR: 417.256622; Category5: 2.Line Benefits - 1.OptModel" role="graphics-symbol" aria-roledescription="point" transform="translate(90,113.7800382857143)" d="M2.739,0A2.739,2.739,0,1,1,-2.739,0A2.739,2.739,0,1,1,2.739,0" fill="#f58518" stroke-width="2" opacity="1"/><path aria-label="Number of Clusters: 30; MEUR: 415.5318687; Category5: 2.Line Benefits - 1.OptModel" role="graphics-symbol" aria-roledescription="point" transform="translate(150,115.25839825714284)" d="M2.739,0A2.739,2.739,0,1,1,-2.739,0A2.739,2.739,0,1,1,2.739,0" fill="#f58518" stroke-width="2" opacity="1"/><path aria-label="Number of Clusters: 40; MEUR: 414.7836381; Category5: 2.Line Benefits - 1.OptModel" role="graphics-symbol" aria-roledescription="point" transform="translate(210,115.89973877142855)" d="M2.739,0A2.739,2.739,0,1,1,-2.739,0A2.739,2.739,0,1,1,2.739,0" fill="#f58518" stroke-width="2" opacity="1"/><path aria-label="Number of Clusters: 50; MEUR: 415.8871852; Category5: 2.Line Benefits - 1.OptModel" role="graphics-symbol" aria-roledescription="point" transform="translate(270,114.95384125714287)" d="M2.739,0A2.739,2.739,0,1,1,-2.739,0A2.739,2.739,0,1,1,2.739,0" fill="#f58518" stroke-width="2" opacity="1"/><path aria-label="Number of Clusters: 60; MEUR: 415.2429902; Category5: 2.Line Benefits - 1.OptModel" role="graphics-symbol" aria-roledescription="point" transform="translate(330,115.5060084)" d="M2.739,0A2.739,2.739,0,1,1,-2.739,0A2.739,2.739,0,1,1,2.739,0" fill="#f58518" stroke-width="2" opacity="1"/><path aria-label="Number of Clusters: 70; MEUR: 415.8426815; Category5: 2.Line Benefits - 1.OptModel" role="graphics-symbol" aria-roledescription="point" transform="translate(390,114.99198728571425)" d="M2.739,0A2.739,2.739,0,1,1,-2.739,0A2.739,2.739,0,1,1,2.739,0" fill="#f58518" stroke-width="2" opacity="1"/><path aria-label="Number of Clusters: 80; MEUR: 413.7743544; Category5: 2.Line Benefits - 1.OptModel" role="graphics-symbol" aria-roledescription="point" transform="translate(450,116.7648390857143)" d="M2.739,0A2.739,2.739,0,1,1,-2.739,0A2.739,2.739,0,1,1,2.739,0" fill="#f58518" stroke-width="2" opacity="1"/><path aria-label="Number of Clusters: 90; MEUR: 215.315880566; Category5: 2.Line Benefits - 1.OptModel" role="graphics-symbol" aria-roledescription="point" transform="translate(510,286.8721023717154)" d="M2.739,0A2.739,2.739,0,1,1,-2.739,0A2.739,2.739,0,1,1,2.739,0" fill="#f58518" stroke-width="2" opacity="1"/><path aria-label="Number of Clusters: 10; MEUR: 384.776920875; Category5: 2.Line Benefits - 2.NN_OC_fy_1" role="graphics-symbol" aria-roledescription="point" transform="translate(30,141.61978210674832)" d="M2.739,0A2.739,2.739,0,1,1,-2.739,0A2.739,2.739,0,1,1,2.739,0" fill="#e45756" stroke-width="2" opacity="1"/><path aria-label="Number of Clusters: 100; MEUR: 424.395017693; Category5: 2.Line Benefits - 2.NN_OC_fy_1" role="graphics-symbol" aria-roledescription="point" transform="translate(570,107.66141340577569)" d="M2.739,0A2.739,2.739,0,1,1,-2.739,0A2.739,2.739,0,1,1,2.739,0" fill="#e45756" stroke-width="2" opacity="1"/><path aria-label="Number of Clusters: 20; MEUR: 408.558445792; Category5: 2.Line Benefits - 2.NN_OC_fy_1" role="graphics-symbol" aria-roledescription="point" transform="translate(90,121.23561789272253)" d="M2.739,0A2.739,2.739,0,1,1,-2.739,0A2.739,2.739,0,1,1,2.739,0" fill="#e45756" stroke-width="2" opacity="1"/><path aria-label="Number of Clusters: 30; MEUR: 403.195380879; Category5: 2.Line Benefits - 2.NN_OC_fy_1" role="graphics-symbol" aria-roledescription="point" transform="translate(150,125.83253067554782)" d="M2.739,0A2.739,2.739,0,1,1,-2.739,0A2.739,2.739,0,1,1,2.739,0" fill="#e45756" stroke-width="2" opacity="1"/><path aria-label="Number of Clusters: 40; MEUR: 415.053617322; Category5: 2.Line Benefits - 2.NN_OC_fy_1" role="graphics-symbol" aria-roledescription="point" transform="translate(210,115.66832801009726)" d="M2.739,0A2.739,2.739,0,1,1,-2.739,0A2.739,2.739,0,1,1,2.739,0" fill="#e45756" stroke-width="2" opacity="1"/><path aria-label="Number of Clusters: 50; MEUR: 436.198708437; Category5: 2.Line Benefits - 2.NN_OC_fy_1" role="graphics-symbol" aria-roledescription="point" transform="translate(270,97.54396419703572)" d="M2.739,0A2.739,2.739,0,1,1,-2.739,0A2.739,2.739,0,1,1,2.739,0" fill="#e45756" stroke-width="2" opacity="1"/><path aria-label="Number of Clusters: 60; MEUR: 423.982912214; Category5: 2.Line Benefits - 2.NN_OC_fy_1" role="graphics-symbol" aria-roledescription="point" transform="translate(330,108.01464667369687)" d="M2.739,0A2.739,2.739,0,1,1,-2.739,0A2.739,2.739,0,1,1,2.739,0" fill="#e45756" stroke-width="2" opacity="1"/><path aria-label="Number of Clusters: 70; MEUR: 418.681127498; Category5: 2.Line Benefits - 2.NN_OC_fy_1" role="graphics-symbol" aria-roledescription="point" transform="translate(390,112.55903357291271)" d="M2.739,0A2.739,2.739,0,1,1,-2.739,0A2.739,2.739,0,1,1,2.739,0" fill="#e45756" stroke-width="2" opacity="1"/><path aria-label="Number of Clusters: 80; MEUR: 428.468994934; Category5: 2.Line Benefits - 2.NN_OC_fy_1" role="graphics-symbol" aria-roledescription="point" transform="translate(450,104.16943291413045)" d="M2.739,0A2.739,2.739,0,1,1,-2.739,0A2.739,2.739,0,1,1,2.739,0" fill="#e45756" stroke-width="2" opacity="1"/><path aria-label="Number of Clusters: 90; MEUR: 426.197819339; Category5: 2.Line Benefits - 2.NN_OC_fy_1" role="graphics-symbol" aria-roledescription="point" transform="translate(510,106.11615485187772)" d="M2.739,0A2.739,2.739,0,1,1,-2.739,0A2.739,2.739,0,1,1,2.739,0" fill="#e45756" stroke-width="2" opacity="1"/><path aria-label="Number of Clusters: 10; MEUR: 460.116847114; Category5: 2.Line Benefits - 3.NN_OC_fy_2" role="graphics-symbol" aria-roledescription="point" transform="translate(30,77.04270247344806)" d="M2.739,0A2.739,2.739,0,1,1,-2.739,0A2.739,2.739,0,1,1,2.739,0" fill="#72b7b2" stroke-width="2" opacity="1"/><path aria-label="Number of Clusters: 100; MEUR: 419.416752611; Category5: 2.Line Benefits - 3.NN_OC_fy_2" role="graphics-symbol" aria-roledescription="point" transform="translate(570,111.92849776218665)" d="M2.739,0A2.739,2.739,0,1,1,-2.739,0A2.739,2.739,0,1,1,2.739,0" fill="#72b7b2" stroke-width="2" opacity="1"/><path aria-label="Number of Clusters: 20; MEUR: 449.346099211; Category5: 2.Line Benefits - 3.NN_OC_fy_2" role="graphics-symbol" aria-roledescription="point" transform="translate(90,86.27477210472927)" d="M2.739,0A2.739,2.739,0,1,1,-2.739,0A2.739,2.739,0,1,1,2.739,0" fill="#72b7b2" stroke-width="2" opacity="1"/><path aria-label="Number of Clusters: 30; MEUR: 424.265645795; Category5: 2.Line Benefits - 3.NN_OC_fy_2" role="graphics-symbol" aria-roledescription="point" transform="translate(150,107.77230360417856)" d="M2.739,0A2.739,2.739,0,1,1,-2.739,0A2.739,2.739,0,1,1,2.739,0" fill="#72b7b2" stroke-width="2" opacity="1"/><path aria-label="Number of Clusters: 40; MEUR: 427.250417799; Category5: 2.Line Benefits - 3.NN_OC_fy_2" role="graphics-symbol" aria-roledescription="point" transform="translate(210,105.21392760128275)" d="M2.739,0A2.739,2.739,0,1,1,-2.739,0A2.739,2.739,0,1,1,2.739,0" fill="#72b7b2" stroke-width="2" opacity="1"/><path aria-label="Number of Clusters: 50; MEUR: 462.485940963; Category5: 2.Line Benefits - 3.NN_OC_fy_2" role="graphics-symbol" aria-roledescription="point" transform="translate(270,75.01205060326723)" d="M2.739,0A2.739,2.739,0,1,1,-2.739,0A2.739,2.739,0,1,1,2.739,0" fill="#72b7b2" stroke-width="2" opacity="1"/><path aria-label="Number of Clusters: 60; MEUR: 429.482864181; Category5: 2.Line Benefits - 3.NN_OC_fy_2" role="graphics-symbol" aria-roledescription="point" transform="translate(330,103.30040213082849)" d="M2.739,0A2.739,2.739,0,1,1,-2.739,0A2.739,2.739,0,1,1,2.739,0" fill="#72b7b2" stroke-width="2" opacity="1"/><path aria-label="Number of Clusters: 70; MEUR: 457.418046604; Category5: 2.Line Benefits - 3.NN_OC_fy_2" role="graphics-symbol" aria-roledescription="point" transform="translate(390,79.35596005410343)" d="M2.739,0A2.739,2.739,0,1,1,-2.739,0A2.739,2.739,0,1,1,2.739,0" fill="#72b7b2" stroke-width="2" opacity="1"/><path aria-label="Number of Clusters: 80; MEUR: 454.598887616; Category5: 2.Line Benefits - 3.NN_OC_fy_2" role="graphics-symbol" aria-roledescription="point" transform="translate(450,81.77238204349824)" d="M2.739,0A2.739,2.739,0,1,1,-2.739,0A2.739,2.739,0,1,1,2.739,0" fill="#72b7b2" stroke-width="2" opacity="1"/><path aria-label="Number of Clusters: 90; MEUR: 433.072627676; Category5: 2.Line Benefits - 3.NN_OC_fy_2" role="graphics-symbol" aria-roledescription="point" transform="translate(510,100.22346199230059)" d="M2.739,0A2.739,2.739,0,1,1,-2.739,0A2.739,2.739,0,1,1,2.739,0" fill="#72b7b2" stroke-width="2" opacity="1"/><path aria-label="Number of Clusters: 10; MEUR: 486.854284582; Category5: 2.Line Benefits - 4.NN_OC_fy_3" role="graphics-symbol" aria-roledescription="point" transform="translate(30,54.12489892934399)" d="M2.739,0A2.739,2.739,0,1,1,-2.739,0A2.739,2.739,0,1,1,2.739,0" fill="#54a24b" stroke-width="2" opacity="1"/><path aria-label="Number of Clusters: 100; MEUR: 476.325617446; Category5: 2.Line Benefits - 4.NN_OC_fy_3" role="graphics-symbol" aria-roledescription="point" transform="translate(570,63.149470760880014)" d="M2.739,0A2.739,2.739,0,1,1,-2.739,0A2.739,2.739,0,1,1,2.739,0" fill="#54a24b" stroke-width="2" opacity="1"/><path aria-label="Number of Clusters: 20; MEUR: 452.836784405; Category5: 2.Line Benefits - 4.NN_OC_fy_3" role="graphics-symbol" aria-roledescription="point" transform="translate(90,83.28275622432996)" d="M2.739,0A2.739,2.739,0,1,1,-2.739,0A2.739,2.739,0,1,1,2.739,0" fill="#54a24b" stroke-width="2" opacity="1"/><path aria-label="Number of Clusters: 30; MEUR: 449.887613221; Category5: 2.Line Benefits - 4.NN_OC_fy_3" role="graphics-symbol" aria-roledescription="point" transform="translate(150,85.81061723927749)" d="M2.739,0A2.739,2.739,0,1,1,-2.739,0A2.739,2.739,0,1,1,2.739,0" fill="#54a24b" stroke-width="2" opacity="1"/><path aria-label="Number of Clusters: 40; MEUR: 430.801136059; Category5: 2.Line Benefits - 4.NN_OC_fy_3" role="graphics-symbol" aria-roledescription="point" transform="translate(210,102.17045480627998)" d="M2.739,0A2.739,2.739,0,1,1,-2.739,0A2.739,2.739,0,1,1,2.739,0" fill="#54a24b" stroke-width="2" opacity="1"/><path aria-label="Number of Clusters: 50; MEUR: 484.760000594; Category5: 2.Line Benefits - 4.NN_OC_fy_3" role="graphics-symbol" aria-roledescription="point" transform="translate(270,55.91999949101042)" d="M2.739,0A2.739,2.739,0,1,1,-2.739,0A2.739,2.739,0,1,1,2.739,0" fill="#54a24b" stroke-width="2" opacity="1"/><path aria-label="Number of Clusters: 60; MEUR: 457.783945791; Category5: 2.Line Benefits - 4.NN_OC_fy_3" role="graphics-symbol" aria-roledescription="point" transform="translate(330,79.04233217891917)" d="M2.739,0A2.739,2.739,0,1,1,-2.739,0A2.739,2.739,0,1,1,2.739,0" fill="#54a24b" stroke-width="2" opacity="1"/><path aria-label="Number of Clusters: 70; MEUR: 433.023953733; Category5: 2.Line Benefits - 4.NN_OC_fy_3" role="graphics-symbol" aria-roledescription="point" transform="translate(390,100.26518251461577)" d="M2.739,0A2.739,2.739,0,1,1,-2.739,0A2.739,2.739,0,1,1,2.739,0" fill="#54a24b" stroke-width="2" opacity="1"/><path aria-label="Number of Clusters: 80; MEUR: 426.101844528; Category5: 2.Line Benefits - 4.NN_OC_fy_3" role="graphics-symbol" aria-roledescription="point" transform="translate(450,106.19841897613163)" d="M2.739,0A2.739,2.739,0,1,1,-2.739,0A2.739,2.739,0,1,1,2.739,0" fill="#54a24b" stroke-width="2" opacity="1"/><path aria-label="Number of Clusters: 90; MEUR: 430.198411097; Category5: 2.Line Benefits - 4.NN_OC_fy_3" role="graphics-symbol" aria-roledescription="point" transform="translate(510,102.68707620280183)" d="M2.739,0A2.739,2.739,0,1,1,-2.739,0A2.739,2.739,0,1,1,2.739,0" fill="#54a24b" stroke-width="2" opacity="1"/><path aria-label="Number of Clusters: 10; MEUR: 495.002511479; Category5: 2.Line Benefits - 5.NN_OC_fy_4" role="graphics-symbol" aria-roledescription="point" transform="translate(30,47.14070444689562)" d="M2.739,0A2.739,2.739,0,1,1,-2.739,0A2.739,2.739,0,1,1,2.739,0" fill="#eeca3b" stroke-width="2" opacity="1"/><path aria-label="Number of Clusters: 100; MEUR: 497.299180322; Category5: 2.Line Benefits - 5.NN_OC_fy_4" role="graphics-symbol" aria-roledescription="point" transform="translate(570,45.1721311529926)" d="M2.739,0A2.739,2.739,0,1,1,-2.739,0A2.739,2.739,0,1,1,2.739,0" fill="#eeca3b" stroke-width="2" opacity="1"/><path aria-label="Number of Clusters: 20; MEUR: 511.270819799; Category5: 2.Line Benefits - 5.NN_OC_fy_4" role="graphics-symbol" aria-roledescription="point" transform="translate(90,33.19644017231534)" d="M2.739,0A2.739,2.739,0,1,1,-2.739,0A2.739,2.739,0,1,1,2.739,0" fill="#eeca3b" stroke-width="2" opacity="1"/><path aria-label="Number of Clusters: 30; MEUR: 482.234607166; Category5: 2.Line Benefits - 5.NN_OC_fy_4" role="graphics-symbol" aria-roledescription="point" transform="translate(150,58.0846224294943)" d="M2.739,0A2.739,2.739,0,1,1,-2.739,0A2.739,2.739,0,1,1,2.739,0" fill="#eeca3b" stroke-width="2" opacity="1"/><path aria-label="Number of Clusters: 40; MEUR: 475.457116004; Category5: 2.Line Benefits - 5.NN_OC_fy_4" role="graphics-symbol" aria-roledescription="point" transform="translate(210,63.8939005684032)" d="M2.739,0A2.739,2.739,0,1,1,-2.739,0A2.739,2.739,0,1,1,2.739,0" fill="#eeca3b" stroke-width="2" opacity="1"/><path aria-label="Number of Clusters: 50; MEUR: 506.785335549; Category5: 2.Line Benefits - 5.NN_OC_fy_4" role="graphics-symbol" aria-roledescription="point" transform="translate(270,37.041140958314344)" d="M2.739,0A2.739,2.739,0,1,1,-2.739,0A2.739,2.739,0,1,1,2.739,0" fill="#eeca3b" stroke-width="2" opacity="1"/><path aria-label="Number of Clusters: 60; MEUR: 477.714523428; Category5: 2.Line Benefits - 5.NN_OC_fy_4" role="graphics-symbol" aria-roledescription="point" transform="translate(330,61.95897991859156)" d="M2.739,0A2.739,2.739,0,1,1,-2.739,0A2.739,2.739,0,1,1,2.739,0" fill="#eeca3b" stroke-width="2" opacity="1"/><path aria-label="Number of Clusters: 70; MEUR: 489.812052988; Category5: 2.Line Benefits - 5.NN_OC_fy_4" role="graphics-symbol" aria-roledescription="point" transform="translate(390,51.589668867424486)" d="M2.739,0A2.739,2.739,0,1,1,-2.739,0A2.739,2.739,0,1,1,2.739,0" fill="#eeca3b" stroke-width="2" opacity="1"/><path aria-label="Number of Clusters: 80; MEUR: 451.074593936; Category5: 2.Line Benefits - 5.NN_OC_fy_4" role="graphics-symbol" aria-roledescription="point" transform="translate(450,84.79320519731641)" d="M2.739,0A2.739,2.739,0,1,1,-2.739,0A2.739,2.739,0,1,1,2.739,0" fill="#eeca3b" stroke-width="2" opacity="1"/><path aria-label="Number of Clusters: 90; MEUR: 488.862540989; Category5: 2.Line Benefits - 5.NN_OC_fy_4" role="graphics-symbol" aria-roledescription="point" transform="translate(510,52.40353629505534)" d="M2.739,0A2.739,2.739,0,1,1,-2.739,0A2.739,2.739,0,1,1,2.739,0" fill="#eeca3b" stroke-width="2" opacity="1"/></g><g class="mark-rule role-mark layer_1_marks" role="graphics-object" aria-roledescription="rule mark container"><line aria-label="-: 409.989891886" role="graphics-symbol" aria-roledescription="rule mark" transform="translate(600,120.00866409739204)" x2="-600" y2="0" stroke="black"/></g><g class="mark-group role-legend" role="graphics-symbol" aria-roledescription="legend" aria-label="Symbol legend for fill color and stroke color with 6 values: 1.RES and Demand - 1.OptModel, 2.Line Benefits - 1.OptModel, 2.Line Benefits - 2.NN_OC_fy_1, 2.Line Benefits - 3.NN_OC_fy_2, 2.Line Benefits - 4.NN_OC_fy_3, 2.Line Benefits - 5.NN_OC_fy_4"><g transform="translate(18,189)"><path class="background" aria-hidden="true" d="M0,0h166v93h-166Z" pointer-events="none"/><g><g class="mark-group role-legend-entry"><g transform="translate(0,0)"><path class="background" aria-hidden="true" d="M0,0h0v0h0Z" pointer-events="none"/><g><g class="mark-group role-scope" role="graphics-object" aria-roledescription="group mark container"><g transform="translate(0,0)"><path class="background" aria-hidden="true" d="M0,0h165.521484375v12.5h-165.521484375Z" pointer-events="none" opacity="1"/><g><g class="mark-symbol role-legend-symbol" pointer-events="none"><path transform="translate(6,6)" d="M5,0A5,5,0,1,1,-5,0A5,5,0,1,1,5,0" fill="#4c78a8" stroke="#4c78a8" stroke-width="1.5" opacity="1"/></g><g class="mark-text role-legend-label" pointer-events="none"><text text-anchor="start" transform="translate(16,9)" font-family="sans-serif" font-size="10px" fill="#000" opacity="1">1.RES and Demand - 1.OptModel</text></g></g><path class="foreground" aria-hidden="true" d="" pointer-events="none" display="none"/></g><g transform="translate(0,16)"><path class="background" aria-hidden="true" d="M0,0h165.521484375v12.5h-165.521484375Z" pointer-events="none" opacity="1"/><g><g class="mark-symbol role-legend-symbol" pointer-events="none"><path transform="translate(6,6)" d="M5,0A5,5,0,1,1,-5,0A5,5,0,1,1,5,0" fill="#f58518" stroke="#f58518" stroke-width="1.5" opacity="1"/></g><g class="mark-text role-legend-label" pointer-events="none"><text text-anchor="start" transform="translate(16,9)" font-family="sans-serif" font-size="10px" fill="#000" opacity="1">2.Line Benefits - 1.OptModel</text></g></g><path class="foreground" aria-hidden="true" d="" pointer-events="none" display="none"/></g><g transform="translate(0,32)"><path class="background" aria-hidden="true" d="M0,0h165.521484375v12.5h-165.521484375Z" pointer-events="none" opacity="1"/><g><g class="mark-symbol role-legend-symbol" pointer-events="none"><path transform="translate(6,6)" d="M5,0A5,5,0,1,1,-5,0A5,5,0,1,1,5,0" fill="#e45756" stroke="#e45756" stroke-width="1.5" opacity="1"/></g><g class="mark-text role-legend-label" pointer-events="none"><text text-anchor="start" transform="translate(16,9)" font-family="sans-serif" font-size="10px" fill="#000" opacity="1">2.Line Benefits - 2.NN_OC_fy_1</text></g></g><path class="foreground" aria-hidden="true" d="" pointer-events="none" display="none"/></g><g transform="translate(0,48)"><path class="background" aria-hidden="true" d="M0,0h165.521484375v12.5h-165.521484375Z" pointer-events="none" opacity="1"/><g><g class="mark-symbol role-legend-symbol" pointer-events="none"><path transform="translate(6,6)" d="M5,0A5,5,0,1,1,-5,0A5,5,0,1,1,5,0" fill="#72b7b2" stroke="#72b7b2" stroke-width="1.5" opacity="1"/></g><g class="mark-text role-legend-label" pointer-events="none"><text text-anchor="start" transform="translate(16,9)" font-family="sans-serif" font-size="10px" fill="#000" opacity="1">2.Line Benefits - 3.NN_OC_fy_2</text></g></g><path class="foreground" aria-hidden="true" d="" pointer-events="none" display="none"/></g><g transform="translate(0,64)"><path class="background" aria-hidden="true" d="M0,0h165.521484375v12.5h-165.521484375Z" pointer-events="none" opacity="1"/><g><g class="mark-symbol role-legend-symbol" pointer-events="none"><path transform="translate(6,6)" d="M5,0A5,5,0,1,1,-5,0A5,5,0,1,1,5,0" fill="#54a24b" stroke="#54a24b" stroke-width="1.5" opacity="1"/></g><g class="mark-text role-legend-label" pointer-events="none"><text text-anchor="start" transform="translate(16,9)" font-family="sans-serif" font-size="10px" fill="#000" opacity="1">2.Line Benefits - 4.NN_OC_fy_3</text></g></g><path class="foreground" aria-hidden="true" d="" pointer-events="none" display="none"/></g><g transform="translate(0,80)"><path class="background" aria-hidden="true" d="M0,0h165.521484375v12.5h-165.521484375Z" pointer-events="none" opacity="1"/><g><g class="mark-symbol role-legend-symbol" pointer-events="none"><path transform="translate(6,6)" d="M5,0A5,5,0,1,1,-5,0A5,5,0,1,1,5,0" fill="#eeca3b" stroke="#eeca3b" stroke-width="1.5" opacity="1"/></g><g class="mark-text role-legend-label" pointer-events="none"><text text-anchor="start" transform="translate(16,9)" font-family="sans-serif" font-size="10px" fill="#000" opacity="1">2.Line Benefits - 5.NN_OC_fy_4</text></g></g><path class="foreground" aria-hidden="true" d="" pointer-events="none" display="none"/></g></g></g><path class="foreground" aria-hidden="true" d="" pointer-events="none" display="none"/></g></g></g><path class="foreground" aria-hidden="true" d="" pointer-events="none" display="none"/></g></g></g><path class="foreground" aria-hidden="true" d="" display="none"/></g></g></g></svg>