<svg xmlns="http://www.w3.org/2000/svg" xmlns:xlink="http://www.w3.org/1999/xlink" version="1.1" class="marks" width="1671" height="547" viewBox="0 0 1671 547"><rect width="1671" height="547" fill="white"/><g fill="none" stroke-miterlimit="10" transform="translate(47,10)"><g class="mark-group role-frame root" role="graphics-object" aria-roledescription="group mark container"><g transform="translate(0,0)"><path class="background" aria-hidden="true" d="M0.5,0.5h1500v500h-1500Z" stroke="#ddd"/><g><g class="mark-group role-axis" aria-hidden="true"><g transform="translate(0.5,500.5)"><path class="background" aria-hidden="true" d="M0,0h0v0h0Z" pointer-events="none"/><g><g class="mark-rule role-axis-grid" pointer-events="none"><line transform="translate(0,-500)" x2="0" y2="500" stroke="#ddd" stroke-width="1" opacity="1"/><line transform="translate(54,-500)" x2="0" y2="500" stroke="#ddd" stroke-width="1" opacity="1"/><line transform="translate(108,-500)" x2="0" y2="500" stroke="#ddd" stroke-width="1" opacity="1"/><line transform="translate(162,-500)" x2="0" y2="500" stroke="#ddd" stroke-width="1" opacity="1"/><line transform="translate(216,-500)" x2="0" y2="500" stroke="#ddd" stroke-width="1" opacity="1"/><line transform="translate(269,-500)" x2="0" y2="500" stroke="#ddd" stroke-width="1" opacity="1"/><line transform="translate(323,-500)" x2="0" y2="500" stroke="#ddd" stroke-width="1" opacity="1"/><line transform="translate(377,-500)" x2="0" y2="500" stroke="#ddd" stroke-width="1" opacity="1"/><line transform="translate(431,-500)" x2="0" y2="500" stroke="#ddd" stroke-width="1" opacity="1"/><line transform="translate(485,-500)" x2="0" y2="500" stroke="#ddd" stroke-width="1" opacity="1"/><line transform="translate(539,-500)" x2="0" y2="500" stroke="#ddd" stroke-width="1" opacity="1"/><line transform="translate(593,-500)" x2="0" y2="500" stroke="#ddd" stroke-width="1" opacity="1"/><line transform="translate(647,-500)" x2="0" y2="500" stroke="#ddd" stroke-width="1" opacity="1"/><line transform="translate(701,-500)" x2="0" y2="500" stroke="#ddd" stroke-width="1" opacity="1"/><line transform="translate(754,-500)" x2="0" y2="500" stroke="#ddd" stroke-width="1" opacity="1"/><line transform="translate(808,-500)" x2="0" y2="500" stroke="#ddd" stroke-width="1" opacity="1"/><line transform="translate(862,-500)" x2="0" y2="500" stroke="#ddd" stroke-width="1" opacity="1"/><line transform="translate(916,-500)" x2="0" y2="500" stroke="#ddd" stroke-width="1" opacity="1"/><line transform="translate(970,-500)" x2="0" y2="500" stroke="#ddd" stroke-width="1" opacity="1"/><line transform="translate(1024,-500)" x2="0" y2="500" stroke="#ddd" stroke-width="1" opacity="1"/><line transform="translate(1078,-500)" x2="0" y2="500" stroke="#ddd" stroke-width="1" opacity="1"/><line transform="translate(1132,-500)" x2="0" y2="500" stroke="#ddd" stroke-width="1" opacity="1"/><line transform="translate(1186,-500)" x2="0" y2="500" stroke="#ddd" stroke-width="1" opacity="1"/><line transform="translate(1240,-500)" x2="0" y2="500" stroke="#ddd" stroke-width="1" opacity="1"/><line transform="translate(1293,-500)" x2="0" y2="500" stroke="#ddd" stroke-width="1" opacity="1"/><line transform="translate(1347,-500)" x2="0" y2="500" stroke="#ddd" stroke-width="1" opacity="1"/><line transform="translate(1401,-500)" x2="0" y2="500" stroke="#ddd" stroke-width="1" opacity="1"/><line transform="translate(1455,-500)" x2="0" y2="500" stroke="#ddd" stroke-width="1" opacity="1"/></g></g><path class="foreground" aria-hidden="true" d="" pointer-events="none" display="none"/></g></g><g class="mark-group role-axis" aria-hidden="true"><g transform="translate(0.5,0.5)"><path class="background" aria-hidden="true" d="M0,0h0v0h0Z" pointer-events="none"/><g><g class="mark-rule role-axis-grid" pointer-events="none"><line transform="translate(0,500)" x2="1500" y2="0" stroke="#ddd" stroke-width="1" opacity="1"/><line transform="translate(0,475)" x2="1500" y2="0" stroke="#ddd" stroke-width="1" opacity="1"/><line transform="translate(0,450)" x2="1500" y2="0" stroke="#ddd" stroke-width="1" opacity="1"/><line transform="translate(0,425)" x2="1500" y2="0" stroke="#ddd" stroke-width="1" opacity="1"/><line transform="translate(0,400)" x2="1500" y2="0" stroke="#ddd" stroke-width="1" opacity="1"/><line transform="translate(0,375)" x2="1500" y2="0" stroke="#ddd" stroke-width="1" opacity="1"/><line transform="translate(0,350)" x2="1500" y2="0" stroke="#ddd" stroke-width="1" opacity="1"/><line transform="translate(0,325)" x2="1500" y2="0" stroke="#ddd" stroke-width="1" opacity="1"/><line transform="translate(0,300)" x2="1500" y2="0" stroke="#ddd" stroke-width="1" opacity="1"/><line transform="translate(0,275)" x2="1500" y2="0" stroke="#ddd" stroke-width="1" opacity="1"/><line transform="translate(0,250)" x2="1500" y2="0" stroke="#ddd" stroke-width="1" opacity="1"/><line transform="translate(0,225)" x2="1500" y2="0" stroke="#ddd" stroke-width="1" opacity="1"/><line transform="translate(0,200)" x2="1500" y2="0" stroke="#ddd" stroke-width="1" opacity="1"/><line transform="translate(0,175)" x2="1500" y2="0" stroke="#ddd" stroke-width="1" opacity="1"/><line transform="translate(0,150)" x2="1500" y2="0" stroke="#ddd" stroke-width="1" opacity="1"/><line transform="translate(0,125)" x2="1500" y2="0" stroke="#ddd" stroke-width="1" opacity="1"/><line transform="translate(0,100)" x2="1500" y2="0" stroke="#ddd" stroke-width="1" opacity="1"/><line transform="translate(0,75)" x2="1500" y2="0" stroke="#ddd" stroke-width="1" opacity="1"/><line transform="translate(0,50)" x2="1500" y2="0" stroke="#ddd" stroke-width="1" opacity="1"/><line transform="translate(0,25)" x2="1500" y2="0" stroke="#ddd" stroke-width="1" opacity="1"/><line transform="translate(0,0)" x2="1500" y2="0" stroke="#ddd" stroke-width="1" opacity="1"/></g></g><path class="foreground" aria-hidden="true" d="" pointer-events="none" display="none"/></g></g><g class="mark-group role-axis" role="graphics-symbol" aria-roledescription="axis" aria-label="X-axis titled 'LoadLevel' for a time scale with values from Thursday, 04 May 2023, 12:00:00 AM to Wednesday, 10 May 2023, 11:00:00 PM"><g transform="translate(0.5,500.5)"><path class="background" aria-hidden="true" d="M0,0h0v0h0Z" pointer-events="none"/><g><g class="mark-rule role-axis-tick" pointer-events="none"><line transform="translate(0,0)" x2="0" y2="5" stroke="#888" stroke-width="1" opacity="1"/><line transform="translate(54,0)" x2="0" y2="5" stroke="#888" stroke-width="1" opacity="1"/><line transform="translate(108,0)" x2="0" y2="5" stroke="#888" stroke-width="1" opacity="1"/><line transform="translate(162,0)" x2="0" y2="5" stroke="#888" stroke-width="1" opacity="1"/><line transform="translate(216,0)" x2="0" y2="5" stroke="#888" stroke-width="1" opacity="1"/><line transform="translate(269,0)" x2="0" y2="5" stroke="#888" stroke-width="1" opacity="1"/><line transform="translate(323,0)" x2="0" y2="5" stroke="#888" stroke-width="1" opacity="1"/><line transform="translate(377,0)" x2="0" y2="5" stroke="#888" stroke-width="1" opacity="1"/><line transform="translate(431,0)" x2="0" y2="5" stroke="#888" stroke-width="1" opacity="1"/><line transform="translate(485,0)" x2="0" y2="5" stroke="#888" stroke-width="1" opacity="1"/><line transform="translate(539,0)" x2="0" y2="5" stroke="#888" stroke-width="1" opacity="1"/><line transform="translate(593,0)" x2="0" y2="5" stroke="#888" stroke-width="1" opacity="1"/><line transform="translate(647,0)" x2="0" y2="5" stroke="#888" stroke-width="1" opacity="1"/><line transform="translate(701,0)" x2="0" y2="5" stroke="#888" stroke-width="1" opacity="1"/><line transform="translate(754,0)" x2="0" y2="5" stroke="#888" stroke-width="1" opacity="1"/><line transform="translate(808,0)" x2="0" y2="5" stroke="#888" stroke-width="1" opacity="1"/><line transform="translate(862,0)" x2="0" y2="5" stroke="#888" stroke-width="1" opacity="1"/><line transform="translate(916,0)" x2="0" y2="5" stroke="#888" stroke-width="1" opacity="1"/><line transform="translate(970,0)" x2="0" y2="5" stroke="#888" stroke-width="1" opacity="1"/><line transform="translate(1024,0)" x2="0" y2="5" stroke="#888" stroke-width="1" opacity="1"/><line transform="translate(1078,0)" x2="0" y2="5" stroke="#888" stroke-width="1" opacity="1"/><line transform="translate(1132,0)" x2="0" y2="5" stroke="#888" stroke-width="1" opacity="1"/><line transform="translate(1186,0)" x2="0" y2="5" stroke="#888" stroke-width="1" opacity="1"/><line transform="translate(1240,0)" x2="0" y2="5" stroke="#888" stroke-width="1" opacity="1"/><line transform="translate(1293,0)" x2="0" y2="5" stroke="#888" stroke-width="1" opacity="1"/><line transform="translate(1347,0)" x2="0" y2="5" stroke="#888" stroke-width="1" opacity="1"/><line transform="translate(1401,0)" x2="0" y2="5" stroke="#888" stroke-width="1" opacity="1"/><line transform="translate(1455,0)" x2="0" y2="5" stroke="#888" stroke-width="1" opacity="1"/></g><g class="mark-text role-axis-label" pointer-events="none"><text text-anchor="start" transform="translate(0,15)" font-family="sans-serif" font-size="10px" fill="#000" opacity="1">Thu 04</text><text text-anchor="middle" transform="translate(53.89221556886228,15)" font-family="sans-serif" font-size="10px" fill="#000" opacity="1">06 AM</text><text text-anchor="middle" transform="translate(107.78443113772455,15)" font-family="sans-serif" font-size="10px" fill="#000" opacity="1">12 PM</text><text text-anchor="middle" transform="translate(161.67664670658684,15)" font-family="sans-serif" font-size="10px" fill="#000" opacity="1">06 PM</text><text text-anchor="middle" transform="translate(215.5688622754491,15)" font-family="sans-serif" font-size="10px" fill="#000" opacity="1">Fri 05</text><text text-anchor="middle" transform="translate(269.4610778443114,15)" font-family="sans-serif" font-size="10px" fill="#000" opacity="1">06 AM</text><text text-anchor="middle" transform="translate(323.3532934131737,15)" font-family="sans-serif" font-size="10px" fill="#000" opacity="1">12 PM</text><text text-anchor="middle" transform="translate(377.2455089820359,15)" font-family="sans-serif" font-size="10px" fill="#000" opacity="1">06 PM</text><text text-anchor="middle" transform="translate(431.1377245508982,15)" font-family="sans-serif" font-size="10px" fill="#000" opacity="1">Sat 06</text><text text-anchor="middle" transform="translate(485.02994011976045,15)" font-family="sans-serif" font-size="10px" fill="#000" opacity="1">06 AM</text><text text-anchor="middle" transform="translate(538.9221556886228,15)" font-family="sans-serif" font-size="10px" fill="#000" opacity="1">12 PM</text><text text-anchor="middle" transform="translate(592.814371257485,15)" font-family="sans-serif" font-size="10px" fill="#000" opacity="1">06 PM</text><text text-anchor="middle" transform="translate(646.7065868263473,15)" font-family="sans-serif" font-size="10px" fill="#000" opacity="1">May 07</text><text text-anchor="middle" transform="translate(700.5988023952096,15)" font-family="sans-serif" font-size="10px" fill="#000" opacity="1">06 AM</text><text text-anchor="middle" transform="translate(754.4910179640718,15)" font-family="sans-serif" font-size="10px" fill="#000" opacity="1">12 PM</text><text text-anchor="middle" transform="translate(808.3832335329341,15)" font-family="sans-serif" font-size="10px" fill="#000" opacity="1">06 PM</text><text text-anchor="middle" transform="translate(862.2754491017964,15)" font-family="sans-serif" font-size="10px" fill="#000" opacity="1">Mon 08</text><text text-anchor="middle" transform="translate(916.1676646706587,15)" font-family="sans-serif" font-size="10px" fill="#000" opacity="1">06 AM</text><text text-anchor="middle" transform="translate(970.0598802395209,15)" font-family="sans-serif" font-size="10px" fill="#000" opacity="1">12 PM</text><text text-anchor="middle" transform="translate(1023.9520958083833,15)" font-family="sans-serif" font-size="10px" fill="#000" opacity="1">06 PM</text><text text-anchor="middle" transform="translate(1077.8443113772455,15)" font-family="sans-serif" font-size="10px" fill="#000" opacity="1">Tue 09</text><text text-anchor="middle" transform="translate(1131.7365269461077,15)" font-family="sans-serif" font-size="10px" fill="#000" opacity="1">06 AM</text><text text-anchor="middle" transform="translate(1185.62874251497,15)" font-family="sans-serif" font-size="10px" fill="#000" opacity="1">12 PM</text><text text-anchor="middle" transform="translate(1239.5209580838323,15)" font-family="sans-serif" font-size="10px" fill="#000" opacity="1">06 PM</text><text text-anchor="middle" transform="translate(1293.4131736526947,15)" font-family="sans-serif" font-size="10px" fill="#000" opacity="1">Wed 10</text><text text-anchor="middle" transform="translate(1347.3053892215569,15)" font-family="sans-serif" font-size="10px" fill="#000" opacity="1">06 AM</text><text text-anchor="middle" transform="translate(1401.1976047904193,15)" font-family="sans-serif" font-size="10px" fill="#000" opacity="1">12 PM</text><text text-anchor="middle" transform="translate(1455.0898203592815,15)" font-family="sans-serif" font-size="10px" fill="#000" opacity="1">06 PM</text></g><g class="mark-rule role-axis-domain" pointer-events="none"><line transform="translate(0,0)" x2="1500" y2="0" stroke="#888" stroke-width="1" opacity="1"/></g><g class="mark-text role-axis-title" pointer-events="none"><text text-anchor="middle" transform="translate(750,30)" font-family="sans-serif" font-size="11px" font-weight="bold" fill="#000" opacity="1">LoadLevel</text></g></g><path class="foreground" aria-hidden="true" d="" pointer-events="none" display="none"/></g></g><g class="mark-group role-axis" role="graphics-symbol" aria-roledescription="axis" aria-label="Y-axis titled 'Value' for a linear scale with values from 0.0 to 0.4"><g transform="translate(0.5,0.5)"><path class="background" aria-hidden="true" d="M0,0h0v0h0Z" pointer-events="none"/><g><g class="mark-rule role-axis-tick" pointer-events="none"><line transform="translate(0,500)" x2="-5" y2="0" stroke="#888" stroke-width="1" opacity="1"/><line transform="translate(0,475)" x2="-5" y2="0" stroke="#888" stroke-width="1" opacity="1"/><line transform="translate(0,450)" x2="-5" y2="0" stroke="#888" stroke-width="1" opacity="1"/><line transform="translate(0,425)" x2="-5" y2="0" stroke="#888" stroke-width="1" opacity="1"/><line transform="translate(0,400)" x2="-5" y2="0" stroke="#888" stroke-width="1" opacity="1"/><line transform="translate(0,375)" x2="-5" y2="0" stroke="#888" stroke-width="1" opacity="1"/><line transform="translate(0,350)" x2="-5" y2="0" stroke="#888" stroke-width="1" opacity="1"/><line transform="translate(0,325)" x2="-5" y2="0" stroke="#888" stroke-width="1" opacity="1"/><line transform="translate(0,300)" x2="-5" y2="0" stroke="#888" stroke-width="1" opacity="1"/><line transform="translate(0,275)" x2="-5" y2="0" stroke="#888" stroke-width="1" opacity="1"/><line transform="translate(0,250)" x2="-5" y2="0" stroke="#888" stroke-width="1" opacity="1"/><line transform="translate(0,225)" x2="-5" y2="0" stroke="#888" stroke-width="1" opacity="1"/><line transform="translate(0,200)" x2="-5" y2="0" stroke="#888" stroke-width="1" opacity="1"/><line transform="translate(0,175)" x2="-5" y2="0" stroke="#888" stroke-width="1" opacity="1"/><line transform="translate(0,150)" x2="-5" y2="0" stroke="#888" stroke-width="1" opacity="1"/><line transform="translate(0,125)" x2="-5" y2="0" stroke="#888" stroke-width="1" opacity="1"/><line transform="translate(0,100)" x2="-5" y2="0" stroke="#888" stroke-width="1" opacity="1"/><line transform="translate(0,75)" x2="-5" y2="0" stroke="#888" stroke-width="1" opacity="1"/><line transform="translate(0,50)" x2="-5" y2="0" stroke="#888" stroke-width="1" opacity="1"/><line transform="translate(0,25)" x2="-5" y2="0" stroke="#888" stroke-width="1" opacity="1"/><line transform="translate(0,0)" x2="-5" y2="0" stroke="#888" stroke-width="1" opacity="1"/></g><g class="mark-text role-axis-label" pointer-events="none"><text text-anchor="end" transform="translate(-7,503)" font-family="sans-serif" font-size="10px" fill="#000" opacity="1">0.00</text><text text-anchor="end" transform="translate(-7,478)" font-family="sans-serif" font-size="10px" fill="#000" opacity="1">0.02</text><text text-anchor="end" transform="translate(-7,453)" font-family="sans-serif" font-size="10px" fill="#000" opacity="1">0.04</text><text text-anchor="end" transform="translate(-7,428)" font-family="sans-serif" font-size="10px" fill="#000" opacity="1">0.06</text><text text-anchor="end" transform="translate(-7,403)" font-family="sans-serif" font-size="10px" fill="#000" opacity="1">0.08</text><text text-anchor="end" transform="translate(-7,378)" font-family="sans-serif" font-size="10px" fill="#000" opacity="1">0.10</text><text text-anchor="end" transform="translate(-7,353)" font-family="sans-serif" font-size="10px" fill="#000" opacity="1">0.12</text><text text-anchor="end" transform="translate(-7,327.99999999999994)" font-family="sans-serif" font-size="10px" fill="#000" opacity="1">0.14</text><text text-anchor="end" transform="translate(-7,303.00000000000006)" font-family="sans-serif" font-size="10px" fill="#000" opacity="1">0.16</text><text text-anchor="end" transform="translate(-7,278)" font-family="sans-serif" font-size="10px" fill="#000" opacity="1">0.18</text><text text-anchor="end" transform="translate(-7,253)" font-family="sans-serif" font-size="10px" fill="#000" opacity="1">0.20</text><text text-anchor="end" transform="translate(-7,228.00000000000003)" font-family="sans-serif" font-size="10px" fill="#000" opacity="1">0.22</text><text text-anchor="end" transform="translate(-7,203)" font-family="sans-serif" font-size="10px" fill="#000" opacity="1">0.24</text><text text-anchor="end" transform="translate(-7,178)" font-family="sans-serif" font-size="10px" fill="#000" opacity="1">0.26</text><text text-anchor="end" transform="translate(-7,152.99999999999997)" font-family="sans-serif" font-size="10px" fill="#000" opacity="1">0.28</text><text text-anchor="end" transform="translate(-7,128.00000000000006)" font-family="sans-serif" font-size="10px" fill="#000" opacity="1">0.30</text><text text-anchor="end" transform="translate(-7,103.00000000000003)" font-family="sans-serif" font-size="10px" fill="#000" opacity="1">0.32</text><text text-anchor="end" transform="translate(-7,78.00000000000001)" font-family="sans-serif" font-size="10px" fill="#000" opacity="1">0.34</text><text text-anchor="end" transform="translate(-7,53.00000000000004)" font-family="sans-serif" font-size="10px" fill="#000" opacity="1">0.36</text><text text-anchor="end" transform="translate(-7,28.00000000000002)" font-family="sans-serif" font-size="10px" fill="#000" opacity="1">0.38</text><text text-anchor="end" transform="translate(-7,3)" font-family="sans-serif" font-size="10px" fill="#000" opacity="1">0.40</text></g><g class="mark-rule role-axis-domain" pointer-events="none"><line transform="translate(0,500)" x2="0" y2="-500" stroke="#888" stroke-width="1" opacity="1"/></g><g class="mark-text role-axis-title" pointer-events="none"><text text-anchor="middle" transform="translate(-30.462890625,250) rotate(-90) translate(0,-2)" font-family="sans-serif" font-size="11px" font-weight="bold" fill="#000" opacity="1">Value</text></g></g><path class="foreground" aria-hidden="true" d="" pointer-events="none" display="none"/></g></g><g class="mark-group role-scope pathgroup" role="graphics-object" aria-roledescription="group mark container"><g transform="translate(0,0)"><path class="background" aria-hidden="true" d="M0,0h1500v500h-1500Z"/><g><g class="mark-line role-mark marks" role="graphics-object" aria-roledescription="line mark container"><path aria-label="Demand: Predicted Demand; LoadLevel: May 04, 2023; Value: 0.0664048865438" role="graphics-symbol" aria-roledescription="line mark" d="M0,416.994L8.982,397.185L17.964,374.674L26.946,341.695L35.928,312.597L44.91,278.257L53.892,240.931L62.874,208.846L71.856,189.406L80.838,181.4L89.82,168.456L98.802,158.577L107.784,160.68L116.766,173.603L125.749,196.387L134.731,226.305L143.713,275.011L152.695,327.556L161.677,371.064L170.659,397.039L179.641,416.02L188.623,432.381L197.605,438.045L206.587,433.41L215.569,427.921L224.551,404.476L233.533,370.828L242.515,330.748L251.497,294.47L260.479,251.657L269.461,209.667L278.443,173.956L287.425,149.625L296.407,135.567L305.389,120.44L314.371,111.478L323.353,115.232L332.335,128.622L341.317,152.065L350.299,184.627L359.281,237.358L368.263,295.051L377.246,336.803L386.228,366.582L395.21,389.824L404.192,411.483L413.174,420.526L422.156,413.578L431.138,398.593L440.12,378.372L449.102,347.401L458.084,305.465L467.066,268.577L476.048,227.343L485.03,186.677L494.012,148.494L502.994,119.887L511.976,106.363L520.958,92.468L529.94,85.38L538.922,89.873L547.904,100.779L556.886,121.292L565.868,149.671L574.85,199.602L583.832,253.336L592.814,306.224L601.796,344.58L610.778,372.315L619.76,394.712L628.743,404.38L637.725,399.242L646.707,380.522L655.689,361.373L664.671,336.563L673.653,299.846L682.635,264.145L691.617,224.503L700.599,185.053L709.581,150.531L718.563,124.919L727.545,110.547L736.527,93.469L745.509,81.844L754.491,85.339L763.473,98.9L772.455,121.65L781.437,152.952L790.419,206.289L799.401,262.617L808.383,316.626L817.365,355.658L826.347,381.688L835.329,403.233L844.311,405.812L853.293,399.755L862.275,390.24L871.257,374.259L880.24,346.977L889.222,306.527L898.204,264.943L907.186,217.291L916.168,171.942L925.15,136.527L934.132,113.03L943.114,99.387L952.096,79.578L961.078,67.142L970.06,75.538L979.042,95.641L988.024,127.685L997.006,168.058L1005.988,226.071L1014.97,282.383L1023.952,334.16L1032.934,364.982L1041.916,384.83L1050.898,402.076L1059.88,411.3L1068.862,409.115L1077.844,398.473L1086.826,377.534L1095.808,347.615L1104.79,307.585L1113.772,267.95L1122.754,219.808L1131.737,174.603L1140.719,139.433L1149.701,116.54L1158.683,107.808L1167.665,95.926L1176.647,88.079L1185.629,99.518L1194.611,121.985L1203.593,154.932L1212.575,195.846L1221.557,251.498L1230.539,305.387L1239.521,354.393L1248.503,379.311L1257.485,399.84L1266.467,423.46L1275.449,433.288L1284.431,425.556L1293.413,409.103L1302.395,383.982L1311.377,355.193L1320.359,320.88L1329.341,290.868L1338.323,251.167L1347.305,209.862L1356.287,173.233L1365.269,151.156L1374.251,145.89L1383.234,136.068L1392.216,128.252L1401.198,134.989L1410.18,155.116L1419.162,185.677L1428.144,220.201L1437.126,270.081L1446.108,321.433L1455.09,372.267L1464.072,395.506L1473.054,416.361L1482.036,436.612L1491.018,438.344L1500,428.874" stroke="#4c78a8" stroke-width="2"/></g></g><path class="foreground" aria-hidden="true" d="" display="none"/></g><g transform="translate(0,0)"><path class="background" aria-hidden="true" d="M0,0h1500v500h-1500Z"/><g><g class="mark-line role-mark marks" role="graphics-object" aria-roledescription="line mark container"><path aria-label="Demand: Test Demand; LoadLevel: May 04, 2023; Value: 0.043739847" role="graphics-symbol" aria-roledescription="line mark" d="M0,445.325L8.982,440.246L17.964,446.126L26.946,404.093L35.928,359.408L44.91,316.197L53.892,287.132L62.874,263.843L71.856,239.092L80.838,214.458L89.82,198.003L98.802,189.406L107.784,189.552L116.766,132.635L125.749,126.972L134.731,161.744L143.713,213.669L152.695,286.225L161.677,355.624L170.659,401.513L179.641,433.229L188.623,447.331L197.605,451.198L206.587,435.464L215.569,382.135L224.551,311.558L233.533,291.06L242.515,247.059L251.497,195.497L260.479,144.925L269.461,99.109L278.443,75.516L287.425,36.019L296.407,8.011L305.389,4.323L314.371,20.714L323.353,44.195L332.335,13.397L341.317,27.309L350.299,65.622L359.281,139.206L368.263,225.502L377.246,310.809L386.228,362.591L395.21,399.62L404.192,416.487L413.174,424.627L422.156,411.311L431.138,361.287L440.12,279.567L449.102,248.348L458.084,223.989L467.066,180.209L476.048,140.798L485.03,108.391L494.012,97.465L502.994,86.414L511.976,76.725L520.958,80.045L529.94,95.372L538.922,112.67L547.904,60.268L556.886,61.356L565.868,99.245L574.85,160.535L583.832,246.098L592.814,321.65L601.796,373.33L610.778,403.798L619.76,421.746L628.743,428.566L637.725,414.13L646.707,364.103L655.689,293.766L664.671,268.85L673.653,241.325L682.635,197.041L691.617,155.753L700.599,122.37L709.581,103.916L718.563,91.045L727.545,86.938L736.527,97.78L745.509,113.954L754.491,126.357L763.473,70.743L772.455,75.119L781.437,107.804L790.419,164.125L799.401,245.75L808.383,322.85L817.365,378.684L826.347,411.211L835.329,427.717L844.311,433.915L853.293,420.223L862.275,371.466L871.257,299.217L880.24,279.762L889.222,254.345L898.204,221.334L907.186,193.242L916.168,169.49L925.15,144.63L934.132,144.444L943.114,142.153L952.096,141.197L961.078,152.88L970.06,164.907L979.042,105.3L988.024,107.607L997.006,137.328L1005.988,192.317L1014.97,266.555L1023.952,340.226L1032.934,385.832L1041.916,419.259L1050.898,433.473L1059.88,438.556L1068.862,425.387L1077.844,382.264L1086.826,323.487L1095.808,305.557L1104.79,274.85L1113.772,232.165L1122.754,200.485L1131.737,171.128L1140.719,157.629L1149.701,139.726L1158.683,127.166L1167.665,124.128L1176.647,139.705L1185.629,151.162L1194.611,106.55L1203.593,120.248L1212.575,155.976L1221.557,205.328L1230.539,268.1L1239.521,336.712L1248.503,382.677L1257.485,428.171L1266.467,422.576L1275.449,443.367L1284.431,440.786L1293.413,423.846L1302.395,406.264L1311.377,396.82L1320.359,359.493L1329.341,311.178L1338.323,277.626L1347.305,254.688L1356.287,240.246L1365.269,230.829L1374.251,220.325L1383.234,213.619L1392.216,213.781L1401.198,207.929L1410.18,152.558L1419.162,164.702L1428.144,194.486L1437.126,234.932L1446.108,293.998L1455.09,347.016L1464.072,390.707L1473.054,418.938L1482.036,445.185L1491.018,470.756L1500,477.492" stroke="#f58518" stroke-width="2"/></g></g><path class="foreground" aria-hidden="true" d="" display="none"/></g></g><g class="mark-group role-legend" role="graphics-symbol" aria-roledescription="legend" aria-label="Symbol legend titled 'Demand' for stroke color with 2 values: Predicted Demand, Test Demand"><g transform="translate(1520,0)"><path class="background" aria-hidden="true" d="M0,0h99v40h-99Z" pointer-events="none"/><g><g class="mark-group role-legend-entry"><g transform="translate(0,16)"><path class="background" aria-hidden="true" d="M0,0h0v0h0Z" pointer-events="none"/><g><g class="mark-group role-scope" role="graphics-object" aria-roledescription="group mark container"><g transform="translate(0,0)"><path class="background" aria-hidden="true" d="M0,0h98.822265625v11h-98.822265625Z" pointer-events="none" opacity="1"/><g><g class="mark-symbol role-legend-symbol" pointer-events="none"><path transform="translate(6,6)" d="M-5,0L5,0" stroke="#4c78a8" stroke-width="1.5" opacity="1"/></g><g class="mark-text role-legend-label" pointer-events="none"><text text-anchor="start" transform="translate(16,9)" font-family="sans-serif" font-size="10px" fill="#000" opacity="1">Predicted Demand</text></g></g><path class="foreground" aria-hidden="true" d="" pointer-events="none" display="none"/></g><g transform="translate(0,13)"><path class="background" aria-hidden="true" d="M0,0h98.822265625v11h-98.822265625Z" pointer-events="none" opacity="1"/><g><g class="mark-symbol role-legend-symbol" pointer-events="none"><path transform="translate(6,6)" d="M-5,0L5,0" stroke="#f58518" stroke-width="1.5" opacity="1"/></g><g class="mark-text role-legend-label" pointer-events="none"><text text-anchor="start" transform="translate(16,9)" font-family="sans-serif" font-size="10px" fill="#000" opacity="1">Test Demand</text></g></g><path class="foreground" aria-hidden="true" d="" pointer-events="none" display="none"/></g></g></g><path class="foreground" aria-hidden="true" d="" pointer-events="none" display="none"/></g></g><g class="mark-text role-legend-title" pointer-events="none"><text text-anchor="start" transform="translate(0,9)" font-family="sans-serif" font-size="11px" font-weight="bold" fill="#000" opacity="1">Demand</text></g></g><path class="foreground" aria-hidden="true" d="" pointer-events="none" display="none"/></g></g></g><path class="foreground" aria-hidden="true" d="" display="none"/></g></g></g></svg>